<mxfile host="app.diagrams.net" modified="2024-05-30T08:34:56.801Z" agent="Mozilla/5.0 (Windows NT 10.0; Win64; x64) AppleWebKit/537.36 (KHTML, like Gecko) Chrome/125.0.0.0 Safari/537.36" etag="Rx18Ht8iGA0Pk8_RI3ow" version="24.4.10" type="github">
  <diagram name="第 1 页" id="puAi52kBni6FsiKDaK1P">
    <mxGraphModel dx="1434" dy="772" grid="1" gridSize="10" guides="1" tooltips="1" connect="1" arrows="1" fold="1" page="1" pageScale="1" pageWidth="827" pageHeight="1169" math="0" shadow="0">
      <root>
        <mxCell id="0" />
        <mxCell id="1" parent="0" />
        <mxCell id="N-EFDGDJVmfZZWuScxHc-2" value="&lt;span style=&quot;color: rgb(0, 0, 0); font-family: Helvetica; font-size: 15px; font-style: normal; font-variant-ligatures: normal; font-variant-caps: normal; font-weight: 700; letter-spacing: normal; orphans: 2; text-align: center; text-indent: 0px; text-transform: none; widows: 2; word-spacing: 0px; -webkit-text-stroke-width: 0px; white-space: nowrap; background-color: rgb(251, 251, 251); text-decoration-thickness: initial; text-decoration-style: initial; text-decoration-color: initial; display: inline !important; float: none;&quot;&gt;Pendulum&lt;/span&gt;" style="text;whiteSpace=wrap;html=1;" vertex="1" parent="1">
          <mxGeometry x="141.49" y="440" width="80" height="30" as="geometry" />
        </mxCell>
        <mxCell id="N-EFDGDJVmfZZWuScxHc-3" value="" style="shape=image;verticalLabelPosition=bottom;labelBackgroundColor=default;verticalAlign=top;aspect=fixed;imageAspect=0;image=data:image/png,iVBORw0KGgoAAAANSUhEUgAAAeEAAAHXCAIAAAAEC3XpAAAgAElEQVR4AexdCXwURfaumVyTBAghXOEwXHIYblRuAyxyqRBAQFBEQQRkUVhgkUNBkUNFwFXk8oBkDaJ/lGtFBWS5VERAQQKrnAlniOYid2be39Cdmnume6anr1f984dvqqur3ve9Vx9FV1c3AXYwBhgDjAHGgFoZIGp1jPnFGGAMMAYYA6A9jTabzenp6dnZ2TnsYAwwBhgDOmIgOzs7PT3dbDbb/tWkPY1OT08n7GAMMAYYAzplID09XdsanZ2dTQi5ePGijv76FAQlMzMzJSUlMzNTUG1WSfsMoI04WuDcBDQ7O1vbGp2Tk0MIyczMtIWBwS4pKdm6dWtJSQkGsAwjAKCNOFrgnLjl5OTY5r/27nUwjbaNH7N1zABaqUILnGm0tocz2sTVdtj88B5txNECZxrtx3BRwaVoE1cF3CvjAtqIowXONFqZkSZVr2gTVyoCNdcO2oijBc40WnOD1M5htIlrxwKmH/qLeFlZWaGAIzc3d+fOnbm5uQLqaqyK5zV/ptHaHt/6G7HajkfgvddTxC0Wy7Vr186cOZMq4Dh9+vRPP/10+vRpAXW1V+X8+fMOT27QVGIaTanQpKGnEavJAMjutJ4inpWVlZqaeuvWrYKCAq9T3/z8/Js3b+bn53utqa0KBQUFOTk5aWlpqampLmWaabTsg0zSDvU0YiUlRreN6SbiFovlf//735UrVwSGymw2Z2VlOWyJFnit+qtZLJa0tLTz5887u8o02pkTLZXoZsRqiXRFfdVNxEtLS1NTU3NzcwXSqW+NBoCcnJzU1FTne9NMowVmiEqr6WbEqpRf9bmlm4gXFhampqYWFBQI5Fj3Gl1QUJCamlpYWOhACNNoB0I09lM3I1ZjvCvibmEhJCWZExNvtWxpTkyEpCRwGs+K+OVbp5xGO0uSu9Z0r9HuCGEa7S4ltFHONFobcfLfy23bIDoaCLEYjfTP8pLt2/1vW5EW3EmSO2eYRtsyw97XYcuGqm2m0aoOj1TObdsGBkP5f4TY/ccVbtsmVT9ytsM02oFtd4SwebQDURr7yTRaYwHzwd3CwvL5srNAc3ptMJSf1eBND3eS5I4hpebRH330EfdK6oMHD9r6ZrFY6tWrRwh56KGHuHJCyOTJk23r/CWvCxYsaN26dWRkpMlkio+P/+c//3n16lXbOtR2RwjTaEqRJg2m0ZoMmyink5Ls5s4OU2nuZ3KyqCbVUNmdJLnzzVGj79ydhyFDICGh/M+A3Z3nNNpkMk2aNMnWt3379hFCwsLC3Gn0+fPnGzZsGBQU9Nhjj7377rvr1q37+9//HhMTc/fdd9u2Q213hDCNphRp0mAarcmwiXJ6yBC4cw/arVIbjeUipbXDnSS5w2Gn0RV353lmOH4Cc3ee0+ghQ4ZUr169tLSUujd+/PgOHTrExcW51OjS0tI2bdpEREQ4zL5zcnLmzJlDG7E13BHCNNqWJe3ZTKO1FzOxHickuFVnOqfu0UNsq4rXdydJ7hyzarS8d+c5jf7ss88MBsOXX37JuVdcXBwdHf3WW2+50+hPPvmEELJo0SJ3cJzL3RHCNNqZKy2VMI3WUrR88zUx0e3NaE6jUc2j8/NlvjvPafTRo0e7dOkyevRoLoZbt241Go1Xr151p9GjRo0ihKSlpQmPOdNo4VxpqSbTaC1FywdfT5+GuDjv82g896M3bJCZDarR7777buXKlblNN8OGDevZsycAuNPodu3aRUVFiQo402hRdGmmMtNozYRKrKNmMyxfDmFh3iVJT891dOgAdeu6/M9St665Th2LyeSdEJPJZQt2hR06CAwI1eiMjIzg4OBPP/00Nzc3PDx8/fr1HjS6cePG9erVE9gFV41ptCi6NFOZabRmQiXK0cuXoWdPqxjVr+/6+WjuXsfTT4tqWyWVXUtS3bpW1PRueyCMunUF8kA1GgD69euXmJi4YcOG0NDQrKwsDxrN5tGO9HK31dl3wR15Yb81x4DFAhs3QpUqVqmaNg0KCqDiSQa7fYb0fvTevZoD6lqjVTyPBoCkpKSwsLBOnToNGjSII9zdvY6RI0ey+9F2Ock02o4O9kOjDNy6Vf4UHZ021q8PtuJbWAjJyebExAzufR3JyTBrFl+5enUQszylBnpca7R7z/jnOpS7Hw0AeXl54eHhhJDNmzdznrrT6JSUFELI4sWL3QNyPOOOEPZchyNT2vrN7nVoK16evN25E2rVsgr06NFw51/TDpfYRbysDPr14y+5915t7TZ0J0kOeOlPXqOVe66D82TDhg0LFiygr+tzp9ElJSWtWrWKjIz87rvvKAQAyM3NZc9H2xKif9tuxOofrk4R5uXBs89a1TkmBv7v/9xBdYz4H39Aw4b8tWPHgsXi7kK1lfuo0WZz+WukPLy9ROqXTNnej3bm0J1GA8Dvv/8eFxcXHBw8atSoVatWrVu37oUXXqhRo0bTpk2d2wEAd4SwebRLujRT6DhiNeM4c7SCgcOHoXFjq0APGADXrlWcc/F/FxH/+WcID+dbWLvWxTWqLHInSe6cte5hAaB352XbZ3j06FGXjnnQaADIysp6+eWXW7VqFRERYTKZWrZsOXv27OvXr7tsyh0hTKNd0qWZQhcjVjO+o3e0uBhmz7bu846MhLVrvU6EXUf83//mNTokBL7/XhPMupMkd87bafSdaSckJ5ffvu/Ro/zPv+7Oa/DFUrZg3RHCNNqWJe3Zrkes9nDg8/jUKWjb1jp97twZfv9dCAtuI/7CC3xrderAjRtCmlK2jjtJcueVo0a7q6fZcneEMI3WbEjvOO52xGoblq69N5vhrbesm1OCg2HRIrB5WY9n8G4jXlICDzzAy3T37lBS4rkdxc+6kyR3jjGNtmWGvePflg1V225HrKq9RuzcpUvl/zanT9fdcw8cPy6KDk8Rv3ED6tThG3/hBVHNyl+ZabQD5+4IYfNoB6I09tPTiNUYFL2767A5xWCAf/zDh1uoXiL+/fcQEsLL9L//rWZO3UmSO5/ZPNqWGTaPtmVD1baXEatq3zE557A55a67YN8+3/B7j/jatbxGh4fDiRO+9SLDVUyjHUh2RwibRzsQpbGf3kesxgDp0V2HzSljxkB2ts84vUfcYoFx43iZbtgQ/vjD574CeqE7SXLXKZtH2zLD5tG2bKja9j5iVe2+3p3Ly4Px43m5JARiYmDLFj8xC4p4YSHcdx/fb9++UFbmZ6eBuJxptAOr7ghh82gHojT2U9CI1Rgmvbh76BA0amQV6AEDwM3mBVGAhUY8LQ1q1OB7nztXVBfyVHYnSe56Z/NoW2bYPNqWDVXbQkesqkHozjmfNqcIZEFExL/9FoKCeJn+4guB7ctWjWm0A9XuCGHzaAeiNPZTxIjVGDLNuuuwOaVLFzh3TkIw4iL+1lu8RleuDGfOSOiG/025kyR3LbN5tC0zbB5ty4aqbXEjVtVQtO+c2QzLlkFoKC+LISGweLHk94LFRdxigREjeH+aN4fcXPWwzDTaIRbuCGHzaAeiNPZT3IjVGDhNuXvpEth+wDs+PkDPvYmO+O3b0LIlL9NDhnh9H4hspLuTJHcOsHm0LTNsHm3Lhqpt0SNW1Wi06ZzFAh99BJUr8zpoMMD06T5sThEI3peI//47REXx7i1ZIrCjQFdTv0YTj8e+ffsuXrxICHnzzTdtubpx48b06dObNWsWHh4eERHRvn37hQsXch/Wsq3mbLsjhM2jnbnSUokvI1ZL+FTva0YGDB7Myx8h4MfmFIFQfYz4zp3l71wmpPw1e19/LbCvgFZzJ0nuOnWYRxcWQlJS+QvvEhLK/0xKkv6vxWSb48EHHySE2BQk37hxw1mjf/zxx+rVq5tMpmeeeWb1nWPcuHGRkZEPPvigO1y03B0hTKMpRZo0fByxmsSqPqd37ICaNa0C7d/mFIHwfI/4K6/wrlarBhcuCOwucNXcSZK7Hm01uuLjjjK8Ppp3Z/LkyYQ43mBw0OisrKy6devWqlXrjP3y7I0bNxYuXOgOFy13RwjTaEqRJg3fR6wm4arG6dxceOYZqzpXrw6ffy6Pc75H3GyGhx/mfW7bFvLz5XHYXS/uJMldfarR27Z5+gzLtm3uGvCrXIhGL126lBDy8ccf+9aTO0KYRvvGp1qu8n3EqgWBBv04eND6eSpCyoVPis0pAonwK+JZWXD33bxMjx6t7PqhO0lyxwOn0fn55uho/rYNfXsgNQwGiI6W/qYHAAjR6C5duoSHhxcXF7uD4LncHSFMoz3zpvazfo1YtYNTn39FReWf4uZu7BICkZGwfr3MSudvxE+dKnebU7V33lGQYneS5M4lTqM3bDBTRXZnJCe7a8P3ciEaHR0d3aZNG5/7cEcI02ifKVXFhf6OWFWA0IgTJ09C69bW+xtdu0q7OUUgCxJEfPNmHkVwMBw8KLBfyau5lKQOHaBuXXf/WerUMZtMFnfSTMtNJnctWMs7dBAHSIhGBwUFdevWTVy7NrVdEgIATKNtSNKgKcGI1SBquV0uK4M337TbnLJkieSbUwSCkibiM2fyMl27Nly9KrBraau5lKS6da1/CVLNDYRRt644NEI0ms2jPXHK/VWTmZnpqZIez0kzYvXIjGSYLl60foOKkPL9IIq+lFmaiJeWQq9evBx27gy+3kL1h2SXGq3peXTnzp31cz/6t99+GzFiRN26dcPDw5s1a/bKK6/k26wyHz58uGvXruHh4bVq1ZoyZUpeXp7XVGAa7ZUiVkE0A86bU2bMCMiClBjPpNFoAMjIKH+am5ujPvecGBekqetSoz00rf770YsXLyaEpKSkeEDh4ZQ7QhS415GWlla1atW4uLglS5asXbv2qaeeIoQMHDiQ8/7EiRMmk6ldu3arV6+eO3duWFhYv379PADjTjGN9koRqyCOgYwMSEy0/sM7Lg7++19xLQSmtmQaDQBHj1o/ffvRR4Hx122r7iTJ3QXqf67jzz//jL1z/O9//7NFcfPmTY09H71o0SJCyK+//kphPPnkk4SQP//8EwD69+8fGxubk5PDnV2/fj0h5GtvO6OYRlMymSEBA9u3221OefppqEhICRr3rwkpNRoAPvyQ/3soLAx++sk/18Rd7ZtGm83m7ds9PR+9fbs4NwTWFnI/GgB++OGHatWqhYeHjx8/fs2d49lnn61cuXKfPn28duSOEAXm0bNmzSKE3Lp1izo9a9Yso9F4+/btnJyc4ODgmTNn0lPFxcWVKlUaN24cLXFpMI12SQsrFM1Abq71Q1OEQPXqoLI3L0us0QAwaRIv03fdVX4DRK7DnSS565+bR5vNZgBQ5z5DzvNr165NmzatadOmJpMpIiKiQ4cOixYtopNOd+gAwB0hCmj0rl27uJsbJ06cSEtL++STT6pUqTJ16lQAOHToECFk8+bNtki6devWvn172xJnm2m0MyesRDQDDptTHnkEbtwQ3UiAL5Beo4uLoVMnXqb/9jcoLQ0wAr55d5Lkrndbjb6jaJCcXP6mjh49yv9MTlZ8pcCd40LL3RGigEYDwMKFC8PDw+lbpeZWfMvns88+I4QcOHDAFtawYcNq165tW8LZRUVFORVHeno6IeT69eslyI78/PytW7fm5+cjwy013Ly8sunTLRWbUyyVKpWuXVtSXCx1NxK0F5CIX7pkqVWLk+my6dMl8FJAE7m5uadPn87PzzcLO8rKyrKyssrKyoRV116t/Pz806dP5+bmOpCXmZlJCHGYiTu+OsRZH/0sSU5O7tu377p167Zs2TJ27FiDwfDOnS1PSUlJhJAjR47Ytj969OioqCjbEs6eP38+VXnOSElJ2coOxoBIBvauXJndoAE/kSQks0WLb9asEdmG5qsfWLTIXPFhrR9nzpQBz86dO3/66aebN29mseMOAzdv3vzpp5927tzpQH5KSorcGr1p06bw8PD09HQqu0899VRERERmZiabRzv8Fer1Z0BmVV571U2FwsKyJUssFV9OsYSElC1eXFJYqGZ8gYt42YoV3F9UlsjIkhMnAk0Cm0c7TPVVNI/u3r17ly5dqEADwOeff04I2b17N7sfbUuLEFv6u5NCetVHnQsXoHt3On2GVq3g55/VjyyAEbdY4IkneELuvhuysgLKhrvbr+46dbgf7a6adsvdEaLA/eimTZt27NjRlsrNmzcTQnbt2pWdne3yuY6xY8fa1ne22ZqhMyesxC0DFgt88AFUqsTrkcEAM2dCUZHb+mo6EUCNBih/YWnbtjwtjzwCdx6iCBB6d5Lkrjum0bbMBPZ+9MMPPxwaGmr7mHdiYqLRaLx6570B/fr1i42Nza34OOb777/Pybetf84202hnTliJawZu3oRBg6zT57g42L/fdU1VlgZWowHKX/9frRrPz6uvBo4DptEO3LojRIF59P79+4OCgmrWrPnqq6+uWrWqf//+hJBnnnmG8/jYsWNhYWF0n6HJZBLy+DfTaId4s5+uGdi6FWrUsAq0mjanuHbYqTTgGg1Q/jEt7hEXgwH+8x8nF6QpcCdJ7lpn82hbZgI7j/5rM+GRI0f69+9fu3btkJCQpk2bLlq0qNTmqcyDBw926dLFZDLVqFFj8uTJdE5t66KDzTTagRD205GBnBwYO9aqzjVqwNatjnW08FsOjQaAxYt5rqpWhd9/DwQxnEYXFBQIbFz3Gl1QUJCamlpYWOhAiALzaAcPJPnJNFoSGnXbyIEDYPN0HQwcCDdvahSsTBptsVi/pduqFdy+LTldZWVlqampwt9VqXuNvnXr1pkzZ8rKyhyoZhrtQIjGfso0YjXGio27RUXl64EVm1PK1wk/+EDmL6fYeCOBKV/Ec3KgeXN+Nv3YY4Eg7dq1a5xMFxQUFHo78vPzb968mZ+f762ixs4XFBTk5uZeuXIlNTX12rVrzinCNNqZEy2VyDditcRKha+//FL+RB19RXz37mr4HnaFcz7+X9aInzkDlSvzBC5f7qPH7i+zWCycTKcKOE6fPv3TTz+dPn1aQF3tVfnf//6XlZVlsVic2WIa7cyJlkpkHbEaIqasDJYuhZAQXl9CQ+H115X6coq0tMkd8c8/5zkMCoJvv5UWC9daWVmZkKlvbm7uzp07c3NzhVTWVp3S0lKX6szxwzQ6EFknX5tyj1j5kPnR04UL0K2bdfrcqhX88osfzanrUgUiPmcOT2aNGpCWphQdCgBXCqp9v0yj7fnQ2i+0ies6UM6bU/75T61sTnGNyKlUgYiXlUHfvrxM33efUu+XUwC4E/mKFDCNVoR2yTpFm7guGLx5s/yBDXr3uUEDsH+BootLNFikTMT/+AMaNuS5rdjKIDN5ygCXGaSr7phGu2JFO2VoE9cxRA6bU8aNg4qtqo41Nf5bsYifOAHh4bxMr1snP4uKAZcfqn2PTKPt+dDaL7SJaw1UTg48/bR1+lyjRvlXOvR7KBnx5GSe59BQ+OEHmTlWErjMUO27Yxptz4fWfqFNXD5Q+/fbbU4ZNEi7m1MEpp7CEX/+eV6m69aV+SM1CgMXGJ4AVGMaHQBSZWwSbeKWrwTOmGHdnFK5cvnnU109XipjNOToSuGIl5RYX+iakAAlJXJgvtOHwsBlw+nUEdNoJ0o0VYA0cX/+2W5zygMPwMWLmoqb784qH/Hr16FOHX42feczpL6DEXOl8sDFeCthXabREpKpQFPoEtd5c8qbb+pjc4rA7FFFxL/7zro/6OOPBXruZzVVAPcTg0+XM432iTbVXIQrcc+ft9uc0qYNnDypmlDI5IhaIr5mDT+VDg+X5/s1agEuU5yt3TCNtnKhRQtL4lossH693ZdTZs3S2eYUgemnlohbLNZ3vTZsCH/8IdB/n6upBbjPAHy9kGm0r8yp4zoUiXvjBjzyCD9rI6R8M8XBg+qgXwEvVBTxwkK4914+Lv36BfqOk4qAyxt2ptHy8i11b/pP3M8/h+rVrQKt380pAlNDXRG/fNkanXnzBELwrZq6gPuGwaermEb7RJtqLtJz4ubkwFNPWdW5Zk19b04RmFOqi/jevWA08mEK5KdtVAdcYMD8rsY02m8KFW1At4n73/9CXJxVoBMTISNDUabV0rkaI75sGR+pypXh7NkAMaVG4AGCat8s02h7PrT2S4eJW1gI06fbbU756CMMm1MEpp4aI26xwPDhvEy3aBGgN6WoEbjAmPlXjWm0f/wpfbXeEvfECWjZ0jp9xrQ5RWAqqTTieXnWwA0dGoi/U1UKXGDY/KjGNNoP8lRwqX4St6ys/FvUtl9OWbYMzGYVcKwuF9Qb8d9+g6go/u/XpUslZ029wCWHat8g02h7PrT2SyeJe/48dO1qnT6j3JwiMPVUHfEdO/ggGo3wzTcCEQmspmrgAjH4VI1ptE+0qeYizSeuxQLr1kFkpHVsv/gizs0pAnNK7RGfP58PZbVq0r5ERe3ABcZPfDWm0eI5U9MV2k7cGzfg4Yet0+dGjeDQITWxq0Zf1B5xs9ka03btoKBAKhLVDlwqnE7tMI12okRTBRpOXIfNKePHB+h5AE3F07uzGoh4VhY0acL/1fvkk1KtH2oAuPfo+VKDabQvrKnnGk0mbnY2jBljnT7XqgU7dqiHUpV7oo2InzoFERF8iN99VxJKtQFcEqj2jTCNtudDa7+0l7j79sFdd1kFevBgtjlFVNJpJuKffMJHOThYkltYmgEuKpwCKjONFkCSiqtoKXELC+Ef/7DbnLJhg1T/EFZxiCR2TUsRnz6dl+nateHqVT+J0BJwP6HaX8402p4Prf3STOIePw7x8dbpc48ecOmS1shWhb+aiTgAlJZCz5580Lt0geJifxjUEnB/cDpdyzTaiRJNFWggcR02p4SFwVtvsc0pPmeZBiJuiy0jA+rX52V68mTbM2JtjQEXC899fabR7rnRwhm1J+65c9Cli3X63LYtnDqlBV7V66PaI+7M3NGjEBbG58CGDc7nBZZoD7hAYN6qMY32xpC6z6s3cS0WWLvWbnPKnDl+/mtX3aGQyTv1RtwDAR98wGt0WBgcO+ahoodTmgTuAY/gU0yjBVOlyooqTdzr1+Ghh6zT50aN4PBhVfKnPadUGnGvRE6YwOdDXBzcuuW1unMFrQJ3RiKyhGm0SMJUVl2Nift//wcxMVaBfvZZyMtTGW0adkeNERdCZ1ERdOrEZ0Xv3uXLiSIPrQIXCdO5OtNoZ060VKKuxM3OhieftKpzrVqwc6eW2NSCr+qKuCjGrlyBWrX49Jg1S9SlAKBh4GKh2tdnGm3Ph9Z+qShxv/3WbnPK0KG+/ZNWaxGQ218VRdwH6AcOQHAwL9OffSaqAW0DFwXVvjLTaHs+tPZLFYlbWAjTplmnz1WqQFIS25wSoFRSRcT9wfb223yqREbC6dPCW9I8cOFQ7WuK0+jz58+vX7/+qaee6t27d9u2bbt06TJo0KB58+bt3r272L8H1O29Ev2Lg5GZmSn6So1foHziHj8O99xjFWi2OSXAGaV8xP0EaLHA44/zCdO0KWRnC2xP88AF4nSqJkijLRZLSkrKAw88YLxzGJwOo9EYExMzffr0CxcuOHUhRwHTaDlYduijtBRee836T9ewMFi+nG1OcSBJ8p96kKr8fGjThpfpgQMF5owegPuUDd41eteuXa1atTIYDDVq1Bg/fvyHH3548uTJmzdvlpaW5ubmXrp06euvv3711Ve7detmNBrDwsKmTZv2559/+uSM7xcxjfadO9+u/P136NzZOn1u2xZ+/dW3lthVohjQiVSdPw/R0Xz+LFwohAGdABcC1b6Od402GAzdu3ffsWNHqbfHZS5dujR37tyoqKhXXnnFvpeA/2IaHXCKaQcWC6xZwzanUD5kNvQjVV99xb9gy2CAL7/0SqN+gHuFal/Bu0bv2bPH/hIvv7Kyso4fP+6lktSnmUZLzaib9q5dgwEDrNPnxo3Z5hQ3TAWqWFdStWgRn0tVq8K5c54p0xVwz1Dtz3rXaPv6Kv3FNFqOwDhsTpkwgW1OkYN2+z50JVVmMyQm8jLdqhXcvm2P1e6XroDbIfPyg2m0F4JUflqmxM3OhtGjrdPn2rXhP/9ROTN6dU+miMtGX04ONGvGp9bIkR4e2dQbcMEM+67R6enpc+bMGTJkyNChQ1966aWrfr/DW7DPLiqyebQLUqQq2rvX+npJQoBtTpGKWJ/a0aFUpaZCpUq8TK9Y4Y4VHQJ3B9W+3EeN3rVrl8lkioqKuv/++9u0aRMcHBwRESH2zrW9J379YhrtF33uLi4ogKlTrdNntjnFHVEylutTqrZs4dMsKAj27XNJpz6Bu4RqX+ijRjdv3nzUqFGFhYVca5cuXWrcuHHr1q3tG5fvF9No6bk+dsxuc0rPnnD5svS9sBZFMqBbqZo9m5fpGjUgPd2ZFd0Cd4ZqXyJIo5csWWI2m20vDA4O/vbbb21Lpk2bFhYWZlsip800Wkq2nTenrFghcKOBlG6wtlwxoFupKiuDPn14mb7/figqckCvW+AOOJ1+CtLoatWqtWvX7pjNy7lbtGjx+OOPF1XwmJaW1rhx41atWjm176JgzJgxxNVx5coVAEhISHA42bdvXxet2Bcxjbbnw49fv/9ufYckIdC+vaiXKvjRMbtUEAN6lqrMTGjQgJfp8eMd6NAzcAeo9j8FafSNGzeGDRsWEhIyY8aMgoICAPjPf/4TFhZWtWrVjh07tm3bNiQkxGQyff311/aNu/713XffJdscSUlJERER99xzD1c7ISGhXr16NueT9+7d67ohm1Km0TZk+GpaLLB6NURE8IPEaIR589iXU3xlM1DX6Vyqjh8Hk4nPwHXrbEnUOXBbqPa2II3mLtm+fXv9+vUbNWq0e/duALh06dKsWbMG3znmzJmTlpZm37LQXwcPHiSELFq0iLsgISEhPj5e6MUV9ZhGVzDh6/+vXYP+/fmxQQg0aQLffedrW+y6ADKgf6lKSuLzMDQUjhyhVO+PgM8AACAASURBVOofOIVqb4jQaADIzc2dNGlSUFDQmDFjpHopx6RJkwwGw8WLFznHOI0uLS3NE/PxDqbR9mEV+evTT6FaNatAT5zoeTeByNZZdSkZQCFVU6bw2VivHty8ydGHArirTBGn0VwLhw4duueee2rWrJmSkuKqTRFlJSUlMTExXbt2pdckJCSEhISEhoYSQmrVqjVv3rySkhJ61p3BNNodM17Ks7KsL4okBGrXFvLmBC9tstOBZACFVJWUQLduvEwnJHAf1kIB3FXm+KLR3HdrXnrppdDQ0IceesjnuxwAsGPHDkLIe++9R30bO3bsggULtmzZkpSUNHDgQELI8OHD6Vlbo6ioKKfiSE9PJ4Rcv369BNmRn5+/devW/Px8H3CXfvWVpV49On02Dx1ago9AH3hT9hJ/Iq6s5+J6T0uzxMZyyVk2eXLphx+WDhp0q2XL0kGDSj/8sCQ3V1xrWq6dmZlJCMnJybFVP2L7g7O/+OKL/v37x8fH9+/ff+vWrVzhr7/+2qlTp8qVK7/99tvOlwgpGTlyZEhIiId3848fP54Q8v333zu3Nn/+fIcnQFJSUrayQwAD2zdvPvfww1SdSyIifpo2besXXwi4lFVhDMjEwP6lS830w1qEWAwGqPizODLy+zlzZPJD6W5SUlK8a/T7779vNBqbNWs2YsSI5s2bG43GDz/8kBNNi8Xy9ttvV65cuVOnTr+KfINwXl5eRETEww8/7Ky/tOTs2bOEkIWu3jDL5tElJSW+zKp++MHSvDkVaHPPniXnz2t5noHLd18irlmGyp59liaqrWExGCwGQ+mWLZpFJsJxQfPoFi1adOvWjdvGYjabu3bt2qJFCyqjAHD58uUBAwaEhobaFnq1k5OTCSGbNm3yUDM/P/+vv0OmTZvmoQ4AsPvRnvnhz5aWwquvWr+cYjLBypVsc4og6lRTCdFt2cJC63cACLHV6HLbYCg/W7HVWTXxkd4RQfejK1euPHPmTNr5zJkzK1euTH9SQ+wSYr9+/SpVqpSfn09bcDZOnTpFCFm8eLHzKdsSptG2bLi2f/sNOna0JnqHDpCa6romK1UxA4g0mj6E5yzQtCQ5WcWxksY1QRrdqVOnxo0bc/sAr1692qRJk06dOvnZf0ZGRnBw8OjRo23bycnJoXsXAcBisYwYMYIQYrvF0bY+tZlGUypcGBYLvPee3eaUl14CAU/LuGiKFSnNACKNHjIEjEbrrILqMjWMRhgyROmABLx/QRp96NChyMjI4ODg2NjYkJCQiIiIQ4cO+enaO++8Qwj56quvbNvZt29f7dq1p02btmrVqmXLlnXt2pUQ8uyzz9rWcWkzjXZJS3nh1avQr5810Zs0AVcLsG4vZydUxgAijU5IsOYt1WUHo0cPlcVHencEaTQApKWlLV68+LnnnluyZMllKd5/1qlTp5o1a5aVldliunDhwrBhwxo0aGAymSIiIjp06LBmzRqLxWJbx6XNNNolLeCwOWXSJLY5xTVR2ilFpNFsHn0nLYVqtMpzmGm0Y4AcNqfExsKuXY512G8NMoBIo9n96Dv5yTRag8PUxmXXI3bPHrDZnALDhkFmps1FzNQwA64jrmFA7l3nnuu481i0i5se7LkOytySJUs8P3pBa3LG999/v3PnTofCQP/EOI8uLISkJHNi4q2WLc2JiZCUVP4cUkEBPP+8NaGjouDf//bwjbhAx4W1LzkDiDQaALZvL3/GzlmmucLt2yWnV4UNep9HR0ZG1qxZc8GCBec8fly9uLj4s88+69Onj9FoXLZsmcxQ0Wn0tm3co6OWOwvf3J9QuTLUrWsV6L/9DXx9GaHM4WPdCWcAl0YDgMtUj44ul28ch3eNvnr16lNPPRUUFGQ0Gtu3b//cc8998MEHO3fuPHTo0J49ez799NOFCxc+/PDDVatWNRqNjRo12rx5s/zU4dLobdtcTy7okrfJBG+/zTanyJ+HMvSITqMByv+BmJxsTkzM4P7JmJyMYesKzSXvGs1V/f3332fMmFGzZk2DwWC0PwwGQ1BQUK9evT799NPS0lLatJwGIo32fJOOEAgKghMn5CSf9SUnAxg1+g6/aIEL1WguCy0Wyy+//PLee+/NmTNnwoQJU6dOXbRo0fbt27OysuRMU+e+EGk0W+x2Dj+mErRShRa4OI1W7VhApNHsoVHVZqEsjqGVKrTAmUbLMrAk7IRtvpKQTA02hVaq0AIXp9FpaWl79+6lj+KZzealS5d26dLlb3/7m/zP29mOLzaPtj7OgeMlBrbRR2WjlSq0wMVp9JgxY6pVq0Y/XvXqq68aKo7g4OAff/xRqdGCSKPZ/Wilkkwd/aKVKrTAxWl0kyZN6JerLBZLzZo1W7RokZ6efvTo0aioqGHDhimVxog0mr1UV6kkU0e/aKUKLXBxGl2lShX6Iunjx48bDAb6KcIxY8Y0aNBAqTRGpNEAsGSJ9c4GfSaae+u5wYDn2X6lkk3ZftFKFVrg4jS6UqVK06dP53J0+fLlRqPx7Nmz3M85c+aYTCal0heRRpeWQqtWVKPt9hli2nylVKYp3i9aqUILXJxG33PPPd27d+fS9IEHHqhbty5N2bFjx9auXZv+lNlApNErV/IC3bYtbNyIdvOVzAmmhu7uvKAFEhPNLVveSkw0cy9oUYNj8vjANNqWZxffBedOv/TSS0ajcejQoY8//rjRaHz++efpZZ06derSpQv9KbOBRaOvX4cqVXiN/uEHAECbuDInmOLdVby1AoxGCyH8n6j+4YQ21cXNo3Nycjp27Mg9ytGmTZs///yTy91Lly4ZjcY5c+YolcpYNHr0aF6gn3mGoxpt4iqVaYr06+4FLdzb37ZtU8QpuTtFm+riNJoLy6k7h+0nVC5durR161bug4dyh+5Ofyg0+sABXqCjo+HWLY5ntImrSJop0qnnF7SgeYsy3n8y+qLRimSq5071r9G2S4WrV1M2mEZTKvRqsAfiuciiTXVfNPr69eurVq2aMmXKuHHjOPoyMjKOHDlSUFCg1DjRv0bTpcL27cHmI5BoE1epTJO/X/aCFo5ztKkuWqNXrVplMpm4W9JGo5Gj79dffzUajevWrZM/g7keda7RTkuFlGe0iUsZ0L3BXtDChRhtqovT6O3btxsMhvvuu2/Hjh3PPfcc1WgAaNu27YABA5QaMDrXaKelQsoz2sSlDOjeePBBfhnCdruSrY3kBS1oU12cRnfv3j0uLu727dsAsGDBAluNHj16NNtnGBC9cLVUSDtCm7iUAR0bFgu8+y6EhHjRaEIgOVnHNPDQ0Ka6OI2uXLnyc889x3HmoNEvvvhieHi4Upmi23m0m6VCyjPaxKUM6NW4cgX69PGuzoRA1aooPh2FNtXFaXRkZOQLL7zAjQoHjR47dmzVqlWVGjC61Wg3S4WUZ7SJSxnQpbFpE/dJYV6jH3rI0wcsO3dG8eV3tKkuTqPb3zm4UWGr0aWlpU2aNKHbxOUfNvrUaPdLhZRhtIlLGdCZ8eef8Nhj1ulznTrw9dflEF3uM6R3pZcu1RkNLuCgTXVxGv3WW28ZDIYFCxbY3o8uKyt74YUXjEbj+vXrXVArS5E+Ndr9UiElFW3iUgb0ZHzzDdStaxXoxx6DP/6w4rvzdWzufR0ZiYnm5GT4/HO+stEI33xjralLC22qi9PokpKSHj16GI3Gu+++u1WrVkajcdiwYQ0bNjQYDH379rVYLEolhw412uNSIeUZbeJSBvRh5OfD3/9uVeeqVWHTJtfIHCK+YAF/VUwMXLzo+hJ9lDoA1wcoISjEaTQAFBcXz5kzp1q1atwj0gaDISoq6sUXXywuLhbSX4Dq6E2jvS0VUhrRJi5lQAfGjz9Cs2ZWge7TB65ccQvLIeJmMzz8MH9tu3ag3DYytw5LdcIBuFTNqr8d0RrNQbJYLGfOnDl8+PCpU6dsX9yhFGC9abS3pULKM9rEpQxo2igpgfnzISiIF9nw8PKH7Tz/c9Q54llZ0KQJ38KTT3q5XLt0OQPXLhZRnvuo0aL6kKGyrjRawFIhpRRt4lIGtGucPQv33WedPt93H1R8MMMTJpcRP3UKIiP5pt5919Pl2j3nErh24Qj3nGm0cK7kqilgqZC6gjZxKQNaNMxmeOcdCA/nVfWvefSCBfDXnFrI4S7imzfzrQUHw6FDQlrSWB13wDUGQ7y74jS6ocejUaNG4h2Q5gr9zKOFLRVS1tAmLmVAc8aVK2C7vbtZM/jxRxEgPER8xgxepmvXhmvXRLSpiaoegGvCf5+dFKfRcXFxDeyP6OhobvGwTp06bC+4z2HgLxS8VEg7Qpu4lAFtGSkp5dsC6XPNU6ZAfr44BB4iXloKvXrxjXfpAoqu4osDJaS2B+BCLtduHXEa7RLnxYsXBw8e3KVLl3yx6eayOZ8KdTKPFrxUSElCm7iUAa0Yf/wBI0ZY1bluXR+faPYc8YwMqF+f72XyZK1wI8hPz8AFNaHNShJoNPdVvRYtWkydOlUpEvSg0WKWCinPaBOXMqAJ46uvoE4dq0CPHAkVn5kT7b7XiB89CmFhfF8bNohuX7UXeAWuWs/9dEwajQaA559/vk6dOn564/PletBoulRY8eUEIWygTVwh5KihTn4+TJ5sVefoaPjkE7/8EhLxDz/kewwLg2PH/OpOPRcLAa4ebyX0RDKNfuaZZ0wmk4SeiWpK8xptu1SYkSEcO9rEFU6RgjWPHIGmTa0C7XlzikA/BUZ84kS+37g4+vFLgT2otJpA4Cr13g+3pNHoAwcOREZGtmnTxg9P/LpU2xotfqmQkoU2cSkD6jRKSuDll+02p6xaJc3uEoERLyqCTp14me7dG0pL1cmTCK8EAhfRokaqitPonk5H9+7dGzVqZLxzbNmyRSnU2tZo8UuFlGe0iUsZUKFx5gzce691+nz//YI2pwgEIjziV65ArVq8G7NmCWxevdWEA1cvBp88E6fR9B0d1DAajTExMf369ftG0fduaVijfVoqpLFGm7iUAVUZZjO8/TaYTLwyBgXBK69IPIcVFfEDByA4mHfms89URZVoZ0QBF926ii8Qp9GqBaJhjfZpqZAGAm3iUgbUY6SnQ+/e1ulz8+Zw9Kj03omN+L/+xbsUGQmnT0vvj2wtigUum2OB7ohpdKAZ9ti+r0uFtFG0iUsZUINhscDHH9ttTnn++UC9gk5sxC0WeOIJXqabNoXsbDUQ5osPYoH70ocqr2EarVxY/FgqpE6jTVzKgOLGH3/A8OHW6XO9erB7dwCd8iHi+fnQti3v4cCBYDYH0L3ANe0D8MA5I2fL3jX6FcHHq6++Kqfrtn1p8l6HH0uFFDvaxKUMKGvs2gWxsVaBHjXK980pAoH4FvELF6wfSFy4UGBX6qrmG3B1YfDJG+8aTZcHvRpGo9EnHyS4SHsa7d9SIaUMbeJSBpQybt+GSZOs6hwdDZs3y+GLzxH/6qvyD9cSUv7nl1/K4aq0ffgMXFo35G/Nu0b/V8whPwCuR+1ptH9LhZRntIlLGVDE+OEHuPtuq0D37QtXr8rkiD8RX7yY97lqVTh3TiaHperGH+BS+aBIO941WhG3xHaqMY32e6mQ8oM2cSkDMhslJfDSS9bNKRER8N570mxOEQjEn4hbLDB4MC/TrVrB7dsC+1RFNX+AqwKAr04wjfaVOZ+vk2KpkHaONnEpA3IaqanQoYN1+tyxI/z2m5z9l/flZ8RzcqB5cx7CyJGy/u3iJ1N+AvezdwUv91Gjy8rKbty4cdnpEIJkzJgxxNVxpeJDm4cPH+7atWt4eHitWrWmTJmSl5fntVktzaOlWCqkhKBNXMqAPIbD5pTgYFi4UOLNKQKB+B/xM2egcmVeplesENit8tX8B648Bp88EK3RP/30U58+fUwmE7f/2/bPoKAgIT589913yTZHUlJSRETEPffcw1174sQJk8nUrl271atXz507NywsrF+/fl6b1YxGS7RUSAlBm7iUARmMtDT429+s0+fmzeGnn2To1nUXkkT88895OEFBsG+f647UVioJcLWBEuKPOI0+ceJEeHh45cqVBw4caDAY2rZt269fv5o1axoMhp49ez711FNCunSoc/DgQULIokWLuPL+/fvHxsbm5ORwP9evX08I+frrrx2ucvipGY2WaKmQwkebuJSBgBoWC/z73xAVZRXoF14I1OYUgUCkivjs2TyoGjUgPV1g50pWkwq4khh86lucRg8ZMiQ8PDw1NRUA/noU75VXXgGAgoKCSZMm1ahR4+LFiz74MGnSJIPBwF2bk5MTHBw8c+ZM2k5xcXGlSpXGeXulsjY0WrqlQsoP2sSlDATOyMyEYcOs6lyvHuzZE7jehLYsVcTLyqBPHx7d/fdDUZFQB5SqJxVwpfz3uV9xGl2zZs0RI0ZwnRkMhgULFnC22Wxu06bNyJEjxfpRUlISExPTtWtX7sJDhw4RQjbbP2jarVu39u3be25ZAxot6VIhZQNt4lIGAmQ4bE554gnIygpQV+KalTDimZnQoAEv0+PHi3ND/toSApffeX96FKfRYWFhs2fP5voLDQ2dMWMG7fuFF16oWbMm/SnQ2LFjByHkvffe4+p/9tlnhJADBw7YXj5s2LDatWvblnB2UVFRTsWRnp5OCLl+/XqJWo+yt97iRoOlXbuSwkKp3MzPz9+6dWt+fr5UDbJ2srJKJkwoo5+FrVbNsmlTqXpokTbiP/5YYjJZOLCrV6sIpjPh0gJ3bl+1JZmZmYQQevuXUz/iLIhcSf369SdOnMjZd91116BBg2jNCRMmVKpUif4UaIwcOTIkJCQzM5Orn5SURAg5cuSI7eWjR4+OioqyLeHs+fPnOzwekpKSslWVx66PPiqJiOA0ev8bb6jSR+ZUOQOvv76/Tp08KtDt29/48MNd+qZm6tSfOLzBwWVvvLFf32C1iC4lJUWERvft27dnz56cRI4cOTI8PPy7774DgNTU1Ojo6HvvvddZST2U5OXlRUREPPzww7SOXufR5scf5wTa/PTT0v51jXZyIS2NJSUl+fkls2eXGY38pDIiwvLuu2XFxZL342+DgYj45Mn8vxvq1rWkp/vrYYCuDwTwALkqbbPi5tH/+te/goKCrl27BgA///wz9wRe9erVg4KCDAbD559/TtVWiJGcnEwI2bRpE62sz/vRAVgqpIyhvUlHGZDEOH0a2rfn78wSUv6VKfk3pwgEEoiIl5RA9+48/IQEZZ779go/EMC9dqqGCuLuR5eUlNy4caO4uJhz/fDhwwMGDGjevHnfvn137twpFk+/fv0qVaqUn59PL8zOznb5XMfYsWNpHZeGetcMA7NUSElAm7iUAT8NsxlWrICwMF6hFNycIhBIgCJ+/TrUqcOTMG2aQF9krRYg4LJi8KkzcRrtUxeuL8rIyAgODh49erTD6X79+sXGxubm5nLl77//PiFk165dDtUcfqpXoyXdVeiA2v+dwc4Noiq5fBl69bJOn1u0UHJzikDmAydV330HISE8GykpAt2Rr1rggMuHwaeexGn0HukeEH3nnXcIIV999ZWD28eOHQsLC6P7DE0mU58+fRzqOP9UqUZLvavQGTjaxHWmQlSJxQLJyXabU6ZOVXhzikD/Axrx1at5jQ4Ph19+EeiRTNUCClwmDD51I06jDQZD/fr1Z82adfLkSZ+6s17UqVOnmjVrlpWVWYsqrIMHD3bp0sVkMtWoUWPy5Ml0Tl1x3sX/VarRUu8qdEaONnGdqRBekpkJjz5qnT7Xrw979wq/WuGaAY24xQJPP80z06hRwL9XIIrKgAIX5YnMlcVp9JQpU7id30ajsW3btm+99Ra3fiiz087dqVGjA7lUSBlAm7iUAbHGl19C7dpWgVbP5hSBQAId8cJCuPdenp/+/VX0Ya1AAxfIv/zVxGk0AJSVle3YsWP48OEREREGgyE4OLhPnz7Jycm2S39KwaDPWcvvgGOPAV4qpN2hTVzKgHAjLw8mTLCqc7Vq8Nlnwq9WS00ZIn75MlSvzhP10kuIgKsFqr0fojWaXp6bm/vBBx/06NGDe/VdpUqVnnjiCXpWZkN18+gALxVSemUYsbQvTRvffQeNG1sFun9/uPMEqfYwyRPxvXvBaOTp2rZNFSzJA1wVUO2d8F2jaTvp6enz5s0LDQ1l3zPkOQn8UiElH23iUga8GsXFMHeuVXEiImDNGi29294BoGwRf/NNXqOrVIGzZx28UOCnbMAVwOaxS7802mKxfPPNN08++WTlypW5+x4e+wrgSXXNowO/VEipRJu4lAHPxunT0K6ddfrcuTP8/rvnK9R+VraIWywwfDhP3T33QMXTsIrxIxtwxRC66dhHjT5x4sQ//vGPOnXqGI1Gg8EQHx+/dOnSdOVeQ6sijZZlqZBGE23iUgbcGWYzLF9utzll0SKV7qBzB8FluZwRz8uD+Hheph99VOF/fMgJ3CXzShWK0+i0tLQlS5a0bNmSk+batWtPmzbt+PHjSnlP+1WLRtsuFVa8zI86GQgDbeJ6JvPyZejZ0zp9vuceOHbM8xWaOStzxH/7zfoU+euvK8mSzMCVhGrftziN5pYHIyIiRo0atWvXLrPZbN+aYr/UotFyLRVSotEmLmXAwbBYYONGqFLFKtDTpkFhoUMtDf+UP+I7dvBkGo2we7di1MkPXDGo9h2L0+hevXpt2LBByEdg7XsJ+C9VaLSMS4WUULSJSxmwNW7dgiFDrOpcvz58+63teT3YikR8/nye1ZgY8OlrSxIwrwhwCfz2uwlxGu13d4FqQBUaLeNSIeURbeJSBqixcyfUqmUV6CefhOxselI/hiIRN5vhoYd4btu3V2bTvCLA1ZA3TKMlioK8S4XUabSJSxkAgLw8ePZZqzrHxMD//Z/teV3ZSkU8K8v6gPmYMQqsHyoFXPHsYRotRQhkXyqkTqNNXMqAw+aUAQPg+nV6UoeGghE/eRIqviYEq1bJza2CwOWGat8f02h7Pnz7JftSIXUTbeICQHExzJlj3ZwSGQlr1yowv6OxkMdQNuKbNvH/XgkOhsOH5UHM96IscFmh2nfGNNqeDx9+KbFUSN1Em7i//mq3OaVLFzh3jrKiZ0PxiE+fzst07dqy7qdXHLhSWcU02m/mlVgqpE4jTFyzGd56y7o5JSQEFi8GV++4pSTpylA84qWl1mfPu3Yt/9eMPIfiwOWB6dwL02hnTsSUKLRUSF3ElriXLkGPHtblwfh4OHGCkoHCUEPEMzKgfn0+Cn//u0y0qwG4TFDtuxGq0efPn//ll19KS0vtLy//VVJS8ssvv5w/f975lGwlHAy5302q3FIhJRZP4jpsTjEYYPp0XW1OoTH1bKgk4j/+CKGhvExv3OjZZWnOqgS4NGDEtCJIoy9fvhweHj5o0CB3LScmJkZERFy5csVdhUCXK6PRyi0VUj6RJK7D5pS77oJ9+ygHuAz1RPz993mNNpnk2GqvHuAyJ5wgjZ43b15ISIiHmfKFCxdCQkJeUu594ApotKJLhTRLMCSuw+aUMWP0uTmFxtSzoaqI028mxMXBrVueHff3rKqA+wtGzPWCNPq+++574IEHPDfbo0ePe++913OdwJ1VQKMVXSqkTOo7cfPyYPx4693nmBjYsoVCR2qoKuJFRdCpEx+g3r0Du3KrKuByJp8gjY6Kipo6dapnt6ZNmxYVFeW5TuDOyq3RSi8VUiZ1nLiHDkGjRlaBfughnW9OoTH1bKgt4leuQM2afJhefNGz736dVRtwv8CIuViQRoeGhs6dO9dzs3Pnzg0LC/NcJ3BnZdVoFSwVUiZ1mbjFxTB7tt3mlHXr9L85hcbUs6HCiO/fD0FBvEwHbhe+CoF7jpRUZwVpdO3atZ988knPXY4ZMyY2NtZzncCdlVWjVbBUSJnUX+KeOgVt21qnz3g2p9CYejbUGXE6JipVgtOnPSPw8aw6gfsIRsxlgjR6wIABsbGxJSUl7louLi6OjY0dMGCAuwqBLpdPo9WxVEj51FPims2wbJn1ia6QEFiyJLC3OCmNGjLUGXGLBR5/nP+btWnTgCzqqhO4DJkjSKM//PBDg8Hwovu7TXPmzDEajRs2bJDBY5ddyKfR6lgqpCToJnEvXYKEBOv0GeHmFBpTz4ZqI56fD23a8BEcNAgk//6HaoF7jpf/ZwVpdFlZWZs2bYxG45gxY87Zvxbh3LlzTz31lNFobNeuXZlyG3Jl0mjVLBXSwOsgcS0W+OgjqFyZH95oN6fQmHo21Bzx8+chOpqP42uvecYh+qyagYsGI+YCQRoNAJcvX27WrJnBYDAajXfddVeXO0dcXBz3YcPmzZunpaWJ6VfiunJotJqWCil9Wk/cjAwYPNg6fY6Lg//+l4JjhgsGVB7xXbvAYCgPqMEAX37pwn+fi1QO3GdcXi8UqtF33qSe9/LLL9evX99gc9SrV2/+/PmKfz1LDo2myyLt26vnLqmmE3fHDutjW4TAU09BTo7XjMVeQf0Rf+01/i/dqlWlfBmh+oEHKDVFaDT14PLly0fuHJcvX6aFyhoB12iVLRVStjWauLm58Mwz1ulz9erw+ecUEzM8MaD+iJvNkJjIB7d1a7h92xMc4efUD1w4FlE1fdFoUR3IUzngGq2ypULKqhYT9+BBaNjQKtCPPAI3blBAzPDCgCYinpMDzZrxIR41Sppn2zUB3EvwfDrNNFoAbepbKqROaytxi4pg1iz+fiUhUKkSrF8vzQCmhOje0ErEU1PL40tI+X8rV0oQFq0AlwCqfROCNLq/sEOfz0ercqmQBlFDiXvyJLRubZ0+d+0Kir7OllKoMUNDEd+yhQ93UJAES8EaAi5tSgnSaJs1Qk+m0WiU1jnhrQXwXocqlwopM5pI3LIyePNNu80pS5eqZ9mVcqkNQxMRp1S++CIv0zVrQno6LfbF0BZwXxC6uUaQRl8SfLjpJeDFgdJo26XC778POAzx56vfHAAAIABJREFUHag/cS9ehAcesE6fW7WCn38Wj5NdUcGA+iNe4Wn5/8vK4MEH+eh37AhFRbYnxdnaAi4Om8fagjTaYwuqOBkojVbrUiElXc2J67w5ZeZMv0YpRY3ZUHPEXcYlMxPi4niZfvZZl1UEFWoOuCBUAioJ0mij0fjqq68KaE2xKgHRaBUvFVKiVZu4GRnWB7AIKR+l+/dTr5nhOwOqjbgHSMePg8nEy/T69R4qejqlReCe8Ag+J0ij/7oJ/corrwhuU4GK0mu0upcKKcXqTNzt2+02pzz9NNucQiPmr6HOiHtFlZTEa3RoKBw54rW6iwoaBe4CicgiptFuCFP3UiF1Wm2Jm5sL48bxo5EQqFEDtm6lzjJDAgbUFnHhkP7+dz4x6tWDmzeFX8fX1C5w0VDtL2Aabc8H90v1S4XUaVUlrsPmlIEDfRmKFBozXDKgqoi79NBdYXExdOvGy3SPHlBa6q6i63LtAneNR3CpUI3GdT9a9UuFNL4qSdyiIvjnP+02p3zwAducQqMkpaGSiPsG6do1iI3lZfof/xDXhqaBi4NqX1uoRv+1bOj1CAoKsm9cvl8cjMzMTAm61MJSIYWphsR12JzSrRvbnELjI72hhoj7g+rwYQgJ4WV60yYRLWkduAio9lWFanTVqlUbCDjsG5fvl2QarZGlQsqssolbVgZvvGG3OeX119nmFBqcgBjKRlwSSO+9x2t0RAT88ovQJnUAXChU+3pCNRrLcx0aWSqkQVQwcS9cgO7d+cFGCLDNKTQoATUUjLhUuCyW8vfQcq/yaNwY/vxTUMM6AC4Ip1MlptE2lGhnqZA6rUjiWizwwQfWN+YYDMA2p9CIBNpQJOKSgyoogA4deJkeMEDQh7X0AdwHJplG25CmnaVC6rT8iXvzJgwaZJ0+N2jANqfQaMhhyB/xAKG6dAliYvhEevll753oBrh3qPY1mEZX8KGppcIKp0HmxN26tfyRZ+5fqYTA2LFscwoNhUyGzBEPKKrdu8Fo5NNp+3YvXekJuBeo9qeZRt/hQ2tLhTSIsiVuTk65IlN1ZptTaAhkNmSLuDy43niDT6oqVeB///PUp86Ae4Jqf06QRttfosZfHAzfn73T2lIhjYE8iXvgADRoYBXoQYPY5hQaAbkNeSIuGyqLBYYN41PrnnsgL89tzzoD7han0wnFNPrYsWOPPPJIdHR0eHh4fHz822+/zfmWkJBA7I++ffs6ue1Y4JdGa3CpkOIPdOIWFZWvB3Jfeua+nPLhh2xzCqVfASPQEZcfUl4e3HMPL9OPPuo2u/QHXCDVymj0119/HRoa2rFjx+XLl69bt27WrFkzZ87kPE5ISKhXr16yzbF3716vYPzSaA0uFVJCApq4v/xS/kQdvb/RvTtcuEB7ZoYyDAQ04spAgvK7HFWq8Jn2xhuuvdAlcNdQ7UsV0OicnJxatWoNHjzYbDbbO1P+KyEhIT4+3rncc4nvGq3NpULKRoASt6wMli617gcLDS3fq1JWRrtlhmIMBCjiiuGp6HjbNl6jjUbYs6ei1Ob/egVuA9G1qYBGr169mhCSmpoKALdv33ZQak6jS0tL8zzcmnLC4qNGa3apkBIQiMS9cMH67htCyj9CKHwzGHWMGQFiIBARD5CrYpt9+WVepmNi4NIlx6t1DNwRqv1vBTR66NChVapU2b17d9OmTQkhkZGREydOLCws5BxLSEgICQkJDQ0lhNSqVWvevHklJSX2Prv45aNGa3apkFIgbeJaLPD++3abU2bNYl9OoWSrwpA24qqAVOGE2QwDBvAy3b49FBRUnLjzfx0Dt8Pp9EMBjW7dunXEnWPKlClbtmyZMmUKIeSxxx7jfBs7duyCBQu2bNmSlJQ0cODAv2bcw4cPd3K7vKCoqCin4khPTyeEXL9+vUT4kZZmqbgHVnrwoPDrVFUzPz9/69at+fn5/nuVnl7y0ENmeve5YUPLvn2l/jfLWpCWAQkjLq1jkrR282ZJ48YWLgmffNJcXGxtVd/ArTidrMzMTEJITk6OrQwS2x+S240aNSKETJw4kbY8YcIEQshvv/1GS6gxfvx4Qsj3rr73On/+fPsHQEhKSspWwUdajx7cX9mXevcWfJFuK7744g9RUUVUoHv3vrRp007domXAVMzAypXfhoWVcqk4YcLPKvZUJtdSUlK8aLTBYPD6VlKugsB3k8bHxxNC9tt83m7//v2EkI0bN1JppsbZs2cJIQsXLqQl1PBnHl367becQFuio0uuXnX6q0szBf5PLjIzS5580jp9rlnTsmULmz6rNwH8j7h6sVV4lpzMa3RIiGX/fj4bMQCvIMDu/97n0QkJCT1sjjZt2hgMhuDg4IYNG3bq1Klhw4bBwcEGg6FNmzY9evSgAurBePDBB/+6uXH27Fla58yZM4SQlStX0hJq5Ofn//V3yLRp02iJS0Pc/WjtLxVSEvy8Sbd/v/WbzYSUfyU2I4O2zQw1MuBnxNUIyZVP//gHf2M6NhauXSuvgQS4Mxni7kenp6ffddddjz/++OXLl2lbly9fHjVqVFxcXHp6Oi30YLz44ouEENunnvfu3UsI+fjjj52vOnXqFCFk8eLFzqdsS8RptPaXCil2nxO3qAhmzLBuTqlcGT76yO32AdodMxRnwOeIK+65KAdKS6HiZiR07gwffgiJieaWLW8lJpqTkqDiCQNRTWq1sjiNHjFiRMeOHV1i7dixI133c1mBFh4/fvyvu8+jRo2iJSNHjgwODr569WpOTk5RUREtt1gsI0aMIIQcO3aMFro0RGi0lncVOmP3bcT+/LPd5pQHHoCLF53bZiVqZMC3iKsRiTefbt6EevX42TQhYDSWryVyf0ZHg9d3MHlrXjPnxWl0TEzMnDlzXIKbPXt29erVXZ5yLvzr4Q3ugY1Vq1YNGzaMEDJ79uy/NrDs27evdu3a06ZNW7Vq1bJly7p27UoIefbZZ51bcCgRodFa3lXogNqHfwA6b05ZtkzQ23udu2YlijCAR6MB4M03rRpNF7QJKf/3n8EA27YpEgG5OxWn0ZGRkU8//bRLH8eMGRMZGenylHNhSUnJggUL4uLiQkJCmjRpsmLFCq7OhQsXhg0b1qBBA5PJFBER0aFDhzVr1lgsFucWHEqEajTdVVi1qj7uvIoasefP221OadMGTp50IJL9VDsDoiKudjAe/SsshOho1xrNyXR0NIqbHuI0+oEHHggPD//uu+8cuD18+LDJZBK4ZuhwrSQ/BWm0jpYKKWkCR6zFAuvX221OefFFtjmFsqglQ2DEtQTJja9JSW4Fms6pk5PdXKyjYnEaffDgwdDQ0KCgoMTExGXLliUlJS1btmzQoEFBQUFhYWGHDh1SihlBGq2jpULKs5ARe+MGPPKINd0bNoSDB2kDzNAYA0IirjFIbtwdMsT6BQAqyraG0QhDhri5WEfF4jQaAPbs2dOoUSPDncNoNHJGo0aN9rh8D4pcTHnXaH0tFVJevY7Yzz+H6tWtAv3MM5CbS69mhvYY8Bpx7UFy43FCgjVvbaXZ1hb2uK+bDjRSLFqjAcBisRw4cOCdd9557bXX3nnnnQMHDgi5ZRxQQrxrtL6WCimZHkZsTo7168uEQM2aiJbCKT/6MzxEXGdg2TyaC6gvGq3CVPCi0bpbKqQhcDdi//tfu80pgwfrY4mU4sZruIu4/hhh96O5mCLQaD0uFQKUr2gnJbl4sL+wEKZPt9ucsmED25yiHwXDo9Hccx30G0C2tzjYcx2e3qmUkZHx+uuvP/roo7179+5pf/Tq1UupoeBpHq3HpcJt2/jHkhwe7F+5Elq2tN7FS0hgm1OUSslA9YtHowHK785xj0I7C7TBgOXenbh59C+//BITE0OXCrkFQ/qn0WgMVGJ6a9etRutxqXDbNteJa5vHoaHANqd4yxpNnkel0QDlG1W4p6QdpiNsn6Hr9O3du7fBYHjppZcuXbpUpqZPJ7nVaN0tFXr+ByAn061awalTriPISrXOADaN5m7rJSdzt/UyEhPNyckotq7QRBU3j46MjBw8eDC9WD2Ga43W41KhkIWUjz5ST2SYJxIzgFCjOQbRAhen0dHR0TNmzJA46aRozoVG63SpkD2QJEW+aLgNtFKFFrg4jU5MTFRww7eHgeVCo/W4VHjnu+nWJUHbG9C2NoYH+z0kg75PoZUqtMDFafS5c+eqV6/+5ptvqm0YOGq0HpcKOc7ZPFptuSezP2ilCi1wcRr99NNP9+jRw2g0Nm7ceOjQoU/bH2PHjpU5X2l3jhqtu6VCilTI/WgML5qhhGAz0EoVWuDiNJo+ZufSUMuzd3pcKqRK5Pm5DoOh/EElVF+poMwgMdBKFVrg4jT6krdDqXFinUfrdKnQltgvvnB9S5p72h/Pc6O2nOCx0UoVWuDiNFq1I8Gq0TpdKrRlfvVqq0ajfbDflhBUNlqpQgtcVxqd1bs3mEy8gH3/vS6H7q1b1o9TzJuH98F+XQZXCCi0UoUWuC8aXVhYeODAgU8++WSj0yEkyQJRh4ORTR9Ae/DBQPSihjafeYb/O2j06HJ30CauGmKhiA9oI44WuGiNfvfdd6Ojo41Oh8FgUHzNMIdqtE4/SPnDD/wL7apUgevXmUYrIpIKd4pWqtACF6fRW7ZsMRgMrVu3Xr58ucFgGDx48NKlSwcMGGAwGB599NENGzYolb88DFuN1t3zDWVl0KEDP4leuZJnGm3iKpVpiveLNuJogYvT6O7du9eqVSs/Px8A/nr87pVXXuFS9uOPPw4ODt63b59SGeyo0ZxY6+s5YbpU2KoVlJbyTKNNXKUyTfF+0UYcLXBxGh0VFTV+/HguTQ0Gw8svv0xTtk+fPj179qQ/ZTZcaLS+Pkhpu1R44ICVXbSJa6UAmYU24miBi9PoiIiIOXPmcIMiIiLi+eefpwNk5syZUVFR9KfMhguNJgR09N4Kh6VCSi/axKUMYDPQRhwtcHEa3aRJk6effpobFS1atOjevTsdIcOHD4+JiaE/ZTZcaLSO5tHOS4WUXrSJSxnAZqCNOFrg4jR65MiRbdq04UbFtGnTjEbj4sWLf/311zVr1gQHB/fr10+pAeNCowkBXdyPdrlUSHlGm7iUAWwG2oijBS5Ooz///PPmzZtfvHgRADIyMu666y7uGTyDwVC1atWTJ08qNWAcNVpH761wuVRIeUabuJQBbAbaiKMFLk6jHcbDn3/++cYbb0ycOHHJkiVXrlxxOCvnTzuN1tF7K9wtFVJu0SYuZQCbgTbiaIH7pdHqGR4cjGzuO+/R0br5YrC7pULKPNrEpQxgM9BGHC1wXWl01kMPld+D1surOT0sFVJhQpu4lAFsBtqIowWuK43OzMzUzYj1vFRIYaJNXMoANgNtxNECZxqt0jHueamQOo02cSkD2Ay0EUcLnGm0Gse416VC6jTaxKUMYDPQRhwtcKbRahzjXpcKqdNoE5cygM1AG3G0wJlGq26MC1kqpE6jTVzKADYDbcTRAmcara4xLnCpkDqNNnEpA9gMtBFHC1yQRt++fbtJkyZdunQpKSlxHhLFxcVdu3Zt1qxZQUGB81l5SjgYOniuQ+BSIWUVbeJSBrAZaCOOFrggjX7nnXeMRuP+/fvdjYcDBw4YDIZVq1a5qxDocn1otPClQson2sSlDGAz0EYcLXBBGt27d+/4+HjPg6F169a9evXyXCdwZ/Wh0cKXCimTaBOXMoDNQBtxtMAFaXSNGjUmTZrkeTBMmjSpRo0anusE7qwONFrUUiFlEm3iUgawGWgjjha4II0OCQmZN2+e58Ewd+7c0NBQz3UCd1brGi12qZAyiTZxKQPYDLQRRwtckEbHxMQImUcr/o5/7a4Zil0qpMKENnEpA9gMtBFHC1yQRnfu3Nnr/ej4+PguXbooNWA0PY/2YamQ8ow2cSkD2Ay0EUcLXJBGL1y40Gg0btq0yd142Lx5s8FgWLRokbsKgS7XtEb7sFRI+USbuJQBbAbaiKMFLkijs7KyqlWrFhkZ+dFHHzkPiQ0bNlSqVKl69epZWVnOZ+Up0a5G+7ZUSFlFm7iUAWwG2oijBS5IowFgz549ERERRqMxLi7uySefnHPnGDNmTFxcnNFojIiI+PbbbxUcLRrVaJ+XCinVaBOXMoDNQBtxtMCFajQA/Pzzzw888IDB6UhISPj555+VHSoa1Wiflwop22gTlzKAzUAbcbTARWg0NxjOnTu3cePG1+8cGzduPHfunBoGiRY12p+lQso52sSlDGAz0EYcLXDRGq3OIaFFjfZnqZBGAW3iUgawGWgjjha4Yhp97NixRx55JDo6Ojw8PD4+/u2336aD7fDhw127dg0PD69Vq9aUKVPy8vLoKXeG5jTaz6VCygPaxKUMYDPQRhwtcEEazd3ZEPKnwAHz9ddfh4aGduzYcfny5evWrZs1a9bMmTO5a0+cOGEymdq1a7d69eq5c+eGhYX169fPa7Pa0mj/lwopIWgTlzKAzUAbcbTABWm0wWAwGo1Oi4WOBUajUciAycnJqVWr1uDBg81ms3P9/v37x8bG5uTkcKfWr19PCPn666+da9qWaEuj/V8qpNjRJi5lAJuBNuJogQvS6A2CDyEDZvXq1YSQ1NRUALh9+7atUufk5AQHB9M5NQAUFxdXqlRp3LhxnlvWkEZLslRI2UCbuJQBbAbaiKMFLkijpR0GQ4cOrVKlyu7du5s2bUoIiYyMnDhxYmFhIQAcOnSIELJ582bbHrt169a+fXvbEmdbQxotyVIhZQBt4lIGsBloI44WuAIa3bp164g7x5QpU7Zs2TJlyhRCyGOPPQYAn332GSHkwIEDtgNv2LBhtWvXti3h7KKiopyKIz09nRBy/fr1EnUfhw6VGgwWQqBKFUtamgS+5ufnb926NT8/X4K2WBNaYABtxNECz8zMJITQ27+c+hFnQZSwpFGjRoSQiRMn0jYnTJhACPntt9+SkpIIIUeOHKGnAGD06NFRUVG2JZw9f/58Yn+kpKRsVfGxZcvWxo2zCAFCYNy4kyr2lLnGGGAMqIWBlJQU7xrdUNjRqFEjZyV1LomPjyeE2H55a//+/YSQjRs36nse/e67ZZxAt2xpKSiQZs6GdnIhDX0abAVtxNECFzSPNhgMwcHBJgGHsyI7lzz44IN/3dw4e/YsPXXmzBlCyMqVK3V8P1rapUJKHdqbdJQBbAbaiKMFLuh+NKfR/fr1+/TTT11+GlzUOHnxxRcJIXv37qVX7d27lxDy8ccfZ2dnu3yuY+zYsbSyS0P9a4bSLhVSEtAmLmUAm4E24miBC9LoM2fOTJ8+vXbt2kajsXr16lOnTj158qTPY+P48eN/3X0eNWoUbWHkyJHBwcFXr14FgH79+sXGxubm5nJn33//fULIrl27aGWXhso1Wqpdhc7Y0SauMxVIStBGHC1wQRrNZX9ZWdkXX3zxyCOPhISEGI3GDh06vPfee9nZ2T6MjbFjx/71iPTw4cNXrVo1bNgwQsjs2bO5do4dOxYWFkb3GZpMpj59+njtQs0aLeGuQmce0CauMxVIStBGHC1wERpNx8CNGzeWLl3avHlzg8EQERHx+OOPX758mZ4VYpSUlCxYsCAuLi4kJKRJkyYrVqywvergwYNdunQxmUw1atSYPHkynVPb1nGw1azRa9aUP8hBCLRqBaWlDo77+xNt4vpLnGavRxtxtMB90Wia3nv27KlXr57RaNy2bRstVMRQrUYHaKmQkow2cSkD2Ay0EUcL3EeN/vHHHydOnFi1alWDwVCvXr1jx44pO1RUq9EBWiqkbKNNXMoANgNtxNECF6fRt27dWr58eatWrYxGY2ho6NChQ7/88kvbF24oNWDUqdGBWyqkPKNNXMoANgNtxNECF6TRZrN5x44dgwcPDg0NNRgMrVq1WrFixa1bt9QzPFSo0QFdKqTMo01cygA2A23E0QIXpNGxsbFGozE6OnrSpElHjx5V4ahQoUYHdKmQhgBt4lIGsBloI44WuCCNNhgMoaGhPXr06O/xGDBggFIDRm0aHeilQsoz2sSlDGAz0EYcLXChGu34Pn9XvwW+4z8Qg0ptGk2XCp94IhBwrW2iTVwrBcgstBFHC1yQRl8SfCg1XlSl0TIsFVKe0SYuZQCbgTbiaIEL0mj1DwP1aLQ8S4U0ImgTlzKAzUAbcbTAmUZLPMblWSqkTqNNXMoANgNtxNECZxot5RiXbamQOo02cSkD2Ay0EUcLnGm0lGNctqVC6jTaxKUMYDPQRhwtcKbRko1xOZcKqdNoE5cygM1AG3G0wJlGSzPGZV4qpE6jTVzKADYDbcTRAmcaLc0Yl3mpkDqNNnEpA9gMtBFHC5xptARjXP6lQuo02sSlDGAz0EYcLXCm0RKMcfmXCqnTaBOXMoDNQBtxtMCZRvs7xhVZKqROo01cygA2A23E0QJnGu3XGFdqqZA6jTZxKQPYDLQRRwucabRfY1yppULqNNrEpQxgM9BGHC1wptG+j3EFlwqp02gTlzKAzUAbcbTAmUb7PsYVXCqkTqNNXMoANgNtxNECZxrt4xhXdqmQOo02cSkD2Ay0EUcLnGm0L2Nc8aVC6jTaxKUMYDPQRhwtcKbRvoxxxZcKqdNoE5cygM1AG3G0wJlGix7jalgqpE6jTVzKADYDbcTRAmcaLXqMq2GpkDqNNnEpA9gMtBFHC5xptLgxrpKlQuo02sSlDGAz0EYcLXCm0SLGuHqWCqnTaBOXMoDNQBtxtMCZRosY4+pZKqROo01cygA2A23E0QJnGi10jKtqqZA6jTZxKQPYDLQRRwucabTQMa6qpULqNNrEpQxgM9BGHC1wptGCxrjalgqp02gTlzKAzUAbcbTAmUZ7H+O2S4UrVnivL2cNtIkrJ8mq6gttxNECZxrtfQCqcKmQOo02cSkD2Ay0EUcLnGm0lzGuzqVC6jTaxKUMYDPQRhwtcKbRXsa4OpcKqdNoE5cygM1AG3G0wJlGexrjql0qpE6jTVzKADYDbcTRAmca7XaMq3mpkDqNNnEpA9gMtBFHC5xptNsxrualQuo02sSlDGAz0EYcLXCm0a7HuMqXCqnTaBOXMoDNQBtxtMCZRrse4+PHAyHl/z3xhOsKKilFm7gq4V9+N9BGHC1wptEuRpn6lwqp02gTlzKAzUAbcbTAmUY7jnFNLBVSp9EmLmUAm4E24miBM412HOOaWCqkTqNNXMoANgNtxNECZxptN8a1slRInUabuJQBbAbaiKMFzjTaboxrZamQOo02cSkD2Ay0EUcLnGm0dYxraKmQOo02cSkD2Ay0EUcLnGk0P8a1tVRIhQlt4lIGsBloI44WuAIavW/fPuJ0fP/999xgS0hIcDjZt29fr+OQg5GZmem1prsK2loqpCjQJi5lAJuBNuJogSum0c8//3yyzXHr1i1usCUkJNSrV8/mTPLevXu9jkM/NVpzS4WUELSJSxnAZqCNOFrgimn0Z5995nJ0JSQkxMfHuzzlodBPjdbcUiGlAm3iUgawGWgjjha4khqdm5tbWlrqMMY4jS4tLc3Ly3M45eGnPxqtxaVCSgXaxKUMYDPQRhwtcMU0ulKlSoSQoKCgHj16HD16lI60hISEkJCQ0NBQQkitWrXmzZtXUlJCz7ozfNZojS4VUh7QJi5lAJuBNuJogSug0YcPHx46dOgHH3ywbdu2JUuWxMTEmEym48ePc4Nt7NixCxYs2LJlS1JS0sCBAwkhw4cPdzkOi4qKciqO9PR0Qsj169dLRB6rVpVx705q2dJSUCDyYhVUz8/P37p1a35+vgp8YS7IwQDaiKMFnpmZSQjJycmxlUFi+yPQ9u+//x4eHu7u4Y3x48cTQuhTH7bOzJ8/3+EJkJSUlK1ijqSkLytVKuY0etGiA2IuZXUZA4wBxoAcDKSkpCis0QDw2GOPhYaGlpWV2UowZ589e/avWyILFy50PuX/PHrcODMn0KNGmeWYAgWgD7STiwBwqY0m0UYcLXDl59EAMHPmTOe/KDhRzs/P/+vUtGnTnDXatsSH+9GaXiqk2NHepKMMYDPQRhwtcAXuRzsPqqFDh5pMJrPZ7Hzq1KlThJDFixc7n7ItEavRWl8qpNjRJi5lAJuBNuJogSug0RkZGbbj6ueffw4JCRk4cCAA5OTkFBUV0bMWi2XEiBGEkGPHjtFCl4ZYjdborkJn7GgT15kKJCVoI44WuAIa3bNnzwEDBrz22mvr1q2bOnVqREREVFRUamoqAOzbt6927drTpk1btWrVsmXLunbtSgh59tlnvQ4/URqt3V2FzjygTVxnKpCUoI04WuAKaPTbb799//33V6tWLTg4ODY29oknnvj999+5AXbhwoVhw4Y1aNDAZDJFRER06NBhzZo1FovF6/ATpdHa3VXozAPaxHWmAkkJ2oijBa6ARgdiLAnXaH0sFVIO0SYuZQCbgTbiaIHj0mjdLBVSYUKbuJQBbAbaiKMFjkujdbNUSIUJbeJSBrAZaCOOFjgijbZdKty/XydDG23i6iR+4mGgjTha4Ig0Wk9LhXRoo01cygA2A23E0QLHotE6WyqkwoQ2cSkD2Ay0EUcLHIVG62+pkAoT2sSlDGAz0EYcLXAUGq2/pUIqTGgTlzKAzUAbcbTA9a/RulwqpMKENnEpA9gMtBFHC1z/Gq3LpUIqTGgTlzKAzUAbcbTAda7Rel0qpMKENnEpA9gMtBFHC1zPGq3jpUIqTGgTlzKAzUAbcbTA9azROl4qpMKENnEpA9gMtBFHC1y3Gq3vpUIqTGgTlzKAzUAbcbTAdavR+l4qpMKENnEpA9gMtBFHC1yfGq37pUIqTGgTlzKAzUAbcbTAdajRGJYKqTChTVzKADYDbcTRAtehRmNYKqTChDZxKQPYDLQRRwtcbxqNZKmQChPaxKUMYDPQRhwtcL1pNJKlQipMaBOXMoDNQBtxtMB1pdFdu2YRAoS8SGMxAAAJEUlEQVRAlSpw/TqKwYs2cVFE1xVItBFHC1xXGk1INqfR48a5ym49lqFNXD0GUxAmtBFHC1xnGp3DabTBANu2Ccp4rVdCm7haD5zP/qONOFrgutXo6GgoLPR5IGjmQrSJq5kISe0o2oijBa5PjeZm08nJUo8P9bWHNnHVFwqZPEIbcbTAdavRRiMMGSLTsFGwG7SJqyDnynaNNuJogetWowmBHj2UHU1y9I42ceUgV5V9oI04WuC61Wg2j1alwjCn/GUArVShBa5bjSYE2P1of/WAXa8+BtBKFVrg+tRogwHYcx3qkxfmkQQMoJUqtMB1qNEGAxgMsH27BONB/U2gTVz1hyZAHqKNOFrgutJog6F8n2F0NBaBBgC0iRsgBVR/s2gjjha4rjT6oYeykpNRbF2hUoI2cSkD2Ay0EUcLXFcanZmZyUYsNgaw4UUrVWiBM43W9hhHm7jaDpsf3qONOFrgTKP9GC4quBRt4qqAe2VcQBtxtMCZRisz0qTqFW3iSkWg5tpBG3G0wJlGa26Q2jmMNnHtWMD0A23E0QJnGq3t8Y02cbUdNj+8RxtxtMCZRvsxXFRwKdrEVQH3yriANuJogTONVmakSdUr2sSVikDNtYM24miBM43W3CC1cxht4tqxgOkH2oijBc40WtvjG23iajtsfniPNuJogTON9mO4qOBStImrAu6VcQFtxNEC14lGZ2dnE0IuXryYg+zIzMxMSUnJzMxEhhsvXLQRRws8PT2dEJKdnW07KSC2PzRhnz9/nrCDMcAYYAzolIH09HRbKdaeRmdlZRFC0tLSsM2vuL9j09PTsQFHixdtxNECz87OTk9PN5vN2tZol7dsbCHp1UYLXK8B9YoLbcTRAneZEtqbR6ONH1rgLhMXQyHaiKMF7jKrmUa7pEWNhSxx1RiVQPqENuJogbvMJu1pdFFR0fz58//60yUeHReiBa7jmHqGhjbiaIG7zAftabRLGKyQMcAYYAzokgGm0boMKwPFGGAM6IQBptE6CSSDwRhgDOiSAabRugwrA8UYYAzohAEtaXRRUdE///nP2NhYk8l0//33f/PNNzoJgjcYeXl5L7/8ct++faOjowkhH330kbcr2HkNM/Drr78++uijDRs2DA8Pj4mJ6d69+/bt2zWMx1fXX3vtNUJIfHy8rw3o5DotafRjjz0WHBw8Y8aMtWvXdu7cOTg4+ODBgzqJg0cYFy9eJITcddddPXr0YBrtkSo9nPzPf/7Tt2/fBQsWrFu3buXKld27dyeErF27Vg/YBGNIT0+PiIiIjIxkGq0ZjT5y5Agh5M033+SiXFhY2Lhx486dOwsOuoYrFhUVXb9+HQCOHj3KNFrDgfTJ9bKysjZt2jRr1synq7V60YgRI3r16pWQkMA0WjMaPXPmzKCgoJycHJp0ixcv5l7cQUt0bzCN1n2IXQJ8+OGHa9Wq5fKULgv3798fFBR08uRJptEAoBmN7t27d4sWLWwzcs+ePYQQVLfqmEbbJoC+7du3b9+6devcuXPLly8PCgoaNWqUvvFSdGVlZa1bt54wYQIAMI3WkkbHx8f36tWLBhIATp8+TQhZs2aNbaG+babR+o6vLboJEyZwr940Go2PPvron3/+aXtWx/a7774bFRWVkZHBNJqLsmbm0Y0aNerfv79tanIvkl6xYoVtob5tptH6jq8tujNnzuzevXvjxo0PPfTQ4MGDb9y4YXtWr3ZmZma1atWWLVvGAWTzaDaP1liqM43WWMAkcvfBBx+87777LBaLRO2pt5mJEyc2adKkuLiYc5FptJY0mt2PZs91qFdaAuzZ2rVrCSFnz54NcD8KN//bb78ZjcZ//etfFyuOjh07Nm3a9OLFi3/88YfCzinXvWbudcyYMcPhuY5Fixax5zqUyxzWs3wMrFy5khBy5MgR+bpUoqd9+/a5+/rVCy+8oIRHquhTMxr9ww8/2D4fXVRU1KRJk44dO6qCRbmcYPc65GJayX5u3vz/9u7YJbkojOP4E1wQx6ZE0ogIRDexQWkSIWiqwMWxTRwCUQiiUO4sBE3RH9Aoba39C61RirS8uBVkSHTeeIU4rznc6Fbn3vN1Osm95z7P55EfdBHvH/3y4/E4m81Go9HHx0f9/fCth8Nh9/9XJpNJJpPdbvf6+jp8/XrsKDAZ/fZFjnK57DhOs9k8PT0tFAqO41xdXXnsM+iHnZycuK5brVZFZGdnx/33mnp+cNB7pP6JwNbWVrFYbLVaZ2dnruumUikR6XQ6FvpwPzpI96OVUqPRqNFoxGKxSCSytrZ2eXlpz6d2aWnp47+BvV7PHgF7Oj0/Py+VSgsLC47jzM/Pl0qli4sLe9rXOyWjA5bR+vBYI4AAAjYIBOlehw3zoEcEEEBAFyCjdQ3WCCCAgFkCZLRZ86AaBBBAQBcgo3UN1ggggIBZAmS0WfOgGgQQQEAXIKN1DdYIIICAWQJktFnzoBoEEEBAFyCjdQ3WCCCAgFkCZLRZ86AaBBBAQBcgo3UN1ggggIBZAmS0WfOgGhMEer2eiGxsbEwVc3x8PDc3l0gkQv9TzlON8+cvCpDRv4jPpQ0VmJnRh4eHIpJKpQaDgaF1U1YYBcjoME6Vnr4mMJXRr6+vtVpNRHK53HA4/NrenI3A5wTI6M95cbQNAnpGj8fjSqUiIsVi8eHhwYb26dEoATLaqHFQjBEC7xn99PS0ubkpItvb28/Pz0YURxGWCZDRlg2cdj0ITDI6n8+vr6+/PTNzd3f35eXFw3kcgoD/AmS0/6bsGHSBSUZPHnyTz+eD3g71B1qAjA70+Cj+WwQmGZ1Op+PxuIi02+1vuQybIuBBgIz2gMQhlgm834++ublZXFwUkaOjI8sMaNcUATLalElQhzkC7xmtlLq9vU0mkyJycHBgToVUYo8AGW3PrOnUq4Ce0Uqpu7u7yXPZ9/f3vW7BcQj4JEBG+wTJNiESmMpopVS/319eXhaRZrMZokZpJQACZHQAhkSJPyzwMaOVUoPBYGVlRUTq9foP18PlbBYgo22ePr3PFpiZ0Uqp+/v71dVVEdnb25t9Ju8i4LcAGe23KPshgAAC/gmQ0f5ZshMCCCDgt8BfvHDpdlkVL4kAAAAASUVORK5CYII=;" vertex="1" parent="1">
          <mxGeometry x="330" y="160" width="285.94" height="280" as="geometry" />
        </mxCell>
        <mxCell id="N-EFDGDJVmfZZWuScxHc-4" value="&lt;span style=&quot;color: rgb(0, 0, 0); font-family: Helvetica; font-size: 15px; font-style: normal; font-variant-ligatures: normal; font-variant-caps: normal; font-weight: 700; letter-spacing: normal; orphans: 2; text-align: center; text-indent: 0px; text-transform: none; widows: 2; word-spacing: 0px; -webkit-text-stroke-width: 0px; white-space: nowrap; background-color: rgb(251, 251, 251); text-decoration-thickness: initial; text-decoration-style: initial; text-decoration-color: initial; display: inline !important; float: none;&quot;&gt;C3dtree&lt;/span&gt;" style="text;whiteSpace=wrap;html=1;" vertex="1" parent="1">
          <mxGeometry x="442.97" y="440" width="60" height="30" as="geometry" />
        </mxCell>
        <mxCell id="N-EFDGDJVmfZZWuScxHc-5" value="" style="shape=image;verticalLabelPosition=bottom;labelBackgroundColor=default;verticalAlign=top;aspect=fixed;imageAspect=0;image=data:image/png,iVBORw0KGgoAAAANSUhEUgAAAd8AAAHXCAIAAAByMcdiAAAgAElEQVR4AeydB3gUVdfH727aZpMQkgAhgIQmxQChKCAtgJSAiqGEqsIbREBemoIiRVAELAiiIgoWTF6iyIfSFFGKNFHpLfQaIJRISNnU3T2fmxlmNrs7O7O70+/M44Ozd+7ce87/nPvL3dmZOwi0TVNAU0BTQFNAfgog+ZnEbpHFYsnMzLx//36utmkKaApoCqhIgfv372dmZlosFgBQJJ0zMzORtmkKaApoCqhUgczMTKXS+f79+wihy5cvq+hPJidXsrOz09PTs7OzOdXWKilfAWwjjq3jxNTz/v37SqVzbm4uQig7O5v9Ioi6apSWlq5fv760tFRdbmneMCqAbcSxdZyAW25urkZnxlEhzwPYpqw8wyGCVdhGHFvHNTqLMKwE6QLblBVETSU0im3EsXVco7MSxqUrG7FNWVdiYFGGbcSxdVyjs1IHNrYpq9SA+Ww3thHH1nGNzj4PGokawDZlJdJb+m7VF3Gz2VzEYcvLy9u8eXNeXh6Hugqr4v5XfY3O0o867yxQ31j1Tgd8zlJTxK1W682bN0+fPp3BYTt16tTBgwdPnTrFoa7yqly8eJG4K8M5kzU6O2uijBI1jVVlKC61lWqKeE5OTkZGxt27dwsLC1mnuyaT6fbt2yaTibWmsioUFhbm5uZeu3YtIyPDJaA1Oks95rztX01j1VsN8DpPNRG3Wq1nz569fv06x/hZLJacnBzigWaOpyiomtVqvXbt2sWLF51t1ujsrIkySlQzVpUhtwysVE3Ey8rKMjIy8vLyOIqqbjoDQG5ubkZGhvM1aI3OHDNEdtVUM1Zlp6xcDVJNxIuKijIyMgoLCzkqrXo6FxYWZmRkFBUVOQii0dlBEMV8VM1YVYziEhpaVASpqZakpLtNm1qSkiA1FZxGsoTWedo1QWdnGDG1o3o6Mwmi0ZkpJeRertFZ7hHiy74NGyAiAhCy6vXUv7aSjRv56kHkdphgxGSGRmdtnQ2m3JBpuUZnmQaGX7M2bACdzvYfQhX+Iwo3bOC3N3Fa0+jsoDOTINrc2UEoxXzU6KyYUHltaFGRbY7sjGaC1Dqd7agCL3EwwYhJJ6nmzl9//TWxZPSePXvsbbNarbVq1UIIPfnkk0Q5Qmj8+PH2df4F69y5c5s3bx4SEmIwGOLi4l599dUbN27Y16H2mQTR6ExJpLAdjc4KC5gX5qamVpgvO0yfiY9paV40LO0pTDBissqRzuVX4aF/f0hIsP0r2FV4gs4Gg2HcuHH2tu3cuRMhFBQUxETnixcv1q1b18/Pb8iQIZ988smKFSv++9//RkVFPfzww/btUPtMgmh0piRS2I5GZ4UFzAtz+/eH8mvNjIzW6214UtrGBCMmPyrQ+cFVeFIZQh9hrsITdO7fv3+VKlXKysoo80aPHt26devY2FiXdC4rK4uPjzcajQ4z7tzc3BkzZlCN2O8wCaLR2V4lJe1rdFZStLyzNSGBkcvUPLpLF+/alvAsJhgxmUTTWdyr8ASd165dq9Ppfv75Z8K8kpKSiIiIDz74gInO3333HUJo/vz5TO44lzMJotHZWStllGh0VkacfLGyf3/Gi84EnbGaO5tMIl+FJ+h84MCB9u3bP/fcc0Qk169fr9frb9y4wUTnYcOGIYSuXbvGPfIanblrpYyaGp2VESevrSwogM6d2efO+Fx3XrVKZDUoOn/yySdhYWHE4zPJycldu3YFACY6t2zZMjw83KOwa3T2SC4FVNborIAgeW3i8ePQpAk7jHQ6OHDA606kOtE1jFq3hpo1Xf5nrVnTUqOG1WBgF8RgcNlChcLWrTk6TtH5zp07/v7+33//fV5eXnBw8MqVK93QuX79+rVq1eLYBVHNtSDlT3gjhLT3Cnokpiwqa3SWRRh4N8Jqhc8+A4pEQUGu73emrjuHh8OuXbxbIWiDrmFUsyY7fCmvfdmpWZOjdxSdASAxMTEpKWnVqlWBgYE5OTlu6KzNnWl5iQvn2ju5aUW0PeUqkJMDyck0pOLj4cwZeHCXQoVnBcPD4eGHyZpBQbBunYKcdk1nGc+dASA1NTUoKKhdu3bPPPMMITXTlY2hQ4dq153JbNTorKBhqZnqToE//4Q6dWg0//e/9JMmRUWQlmZJSrpDrLORlmY7VFAAiYlkfb0eli9317icjrmmM7OF5D0b0l13BoD8/Pzg4GCE0Jo1awhLmeicnp6OEFqwYAGzQ45HmATR7tlwVEopn7UrG0qJFLudFgu89x74+5OorVwZfvjB+SwXES8theefp4E+Zw5Yrc4nyq2ECUZMdpJ0lu6eDcKwVatWzZ07l1paj4nOpaWlzZo1CwkJ+eOPP+w9ysvL0+53thdEzfsuxqqa3VWvb7dv01NghKB9e7hyxaW3riNutcKrr9KAfvFFMJtdni6fQi/pbLHYFn5ys+oI38tC2V93dlaPic4AcP78+djYWH9//2HDhi1btmzFihWTJk2qWrVqw4YNndsBACZBtLmzS7kUUOh6rCrAcM1EOwW2bYPq1Um26nQwYwbYPZNmV8+26y7iixfTgE5KAs5LJzt0Ic5HJhgx9U4/jQJAXYUX7VnBAwx3xbihMwDk5OS88cYbzZo1MxqNBoOhadOmr7/+elZWlksfmQTR6OxSLgUUuhurCjAfexPLymDmTPphk+ho+O0396KwRHz1aggIIBndqROU31fgvkGpjjLBiMmeCnQun2pCWprtEfYuXWz/ElfhmU5WQjmTIKLSecSIEcSaTw7/Um8Y27dvX4cOHYKDg6OjoydMmJCfn8+qLeGAds8Gq1BaBRkpcO0adOhAz3Z79oRbt1jNY6EzAGzdCiEhZLNNmwLnF/exds1vBSYYMfXiSGemeootZxJEVDr/8ccfaXZbamqq0Wh85JFHCFWPHDliMBhatmy5fPnymTNnBgUFJSYmsgqu0ZlVIq2CvBRYv972RDJxx66fH7zzDlgsXCxkpzOA7eGUqlXJxmvXhtOnubQsch0mGDGZodFZgtX39+zZY79cSO/evWNiYqg3h69cuRIhtHXrVqaYEeUand3rox2VkQLFxTBhAj1ljo2Fij/ruzeVE50B4Nw5qFuX7CUyEvbvd9+s+Ec1OjtoziSIqHNnB5vGjRun0+kuX75MvJXW399/2rRpVJ2SkpLQ0NBRo0ZRJS53NDq7lEUrlJ0CZ89Cy5Y0mgcM8PTSMFc6A0BWFrRoQfYVHAw//SQrNZhgxGSkNncWe+5cWloaFRXVoUMHIiR79+61v9ObKOzYsWOrVq2YYkaUa3R2r492VBYKpKXRV4SDguDTT724MdkDOpfPd6BbNxLQfn7w9dey0KHcCI3ODrFgEkSyufOmTZsQQp9++ilh6Nq1axFCu3fvtrc7OTm5evXq9iXEfnFxce6DLTMzEyGUlZVVitlmMpnWr19vMpkw81tp7t67Z3nuOWrKbG3UqPTgQe988Dji+fmWgQOprs3z55eWlHjXNb9n5eXlnTp1ymQyWbhtZrM5JyfHbDZzq668WiaT6dSpU/8+ruKgc3Z2tjSrIA0dOjQgIIC61yI1NRUh9Ndff9mz+LnnnnO5Ft+cOXMc7vpIT09fr22aAjJTYMeSJXl2i/tceeKJTd99J6qNP/xwsU8fCtAXnnpq/Q8/iGqAq842b9588ODB27dv52hbuQK3b98+ePDg5s2bHdQiHgoXe426/Px8o9H41FNPUSzW5s4OfzZZP3o8k2JtUavAowIlJealS61BQQQZraGhZatW+di8lxEvKTG/9RYFaMugQaX5+T5a4uPp2tzZYXovr7lzWloaQujbb7+l6Kxdd6ak4Ljj2VVIjo1q1XhR4N496NePAiK0amW7j8LnzaeIf/kl+PmRJnXvDnl5PpvjfQNMl1mZWtR+FRT1V8HExMTQ0FCTyUTF4/79+y7v2UhJSaHquNzRfhV0KYtWKJkC+/ZB7do0midNguJiXozxic4AtkUqqGWjW7Xi8vwLL2Y7N6LR2UETJkEk+FWQeNEA9Z4uytDExMSYmJi8B3/Vv/jiC4TQli1bqAoudzQ6u5RFK5RAAYsFFiygp6iRkbZFIfjbfKUzAOzbRz8IU78+XLjAn3UetMQEI6YmtLmzeHPnjz/+GCH0yy+/OATj0KFDQUFB1LOCBoOhZ8+eDnWcP2p0dtZEK5FAgaws6N6dnjJ36gSZmfyawQOdAeDUKahVi7SzWjU4dIhfI7m0ptHZQSUmQSSYO7dr165atWpmV+sc7tmzp3379gaDoWrVquPHj6fm0Q7O2H/U6GyvhrYvjQJbt0K1aiTydDqYPdvNUnNeW8gPnQFsfzbi4khrQ0Nh2zavTfLuRCYYMbUm/tzZ4ZYwh487d+68fPkyQuj999+3t/nWrVuvvPJKo0aNgoODjUZjq1at5s2bR7zmyr6a8z6TIBLQ2dk4X0o0OvuinnaurwqUlsL06fSUOSYGduzwtU2G83mjMwDcu0cvwxQQAHa/zzN0zmcxE4yY+hCfzml2W48ePRBCdgVpt27dcqbz33//XaVKFYPB8MILLywv30aNGhUSEtKjRw8mv6hyJkE0OlMSKWyHz7GqMNdlY+6VK/D44zSae/eG27eFM47niBcWQt++tPFLlwpnuUPLTDByqEZ9dKBzURGkptqWDk1IsP2bmkq/4Ys6hced8ePHI4QcGnSgc05OTs2aNaOjo09XXHbq1q1b8+bNczjX+SOTIBqdnbVSRgnPY1UZTsvJynXroHJlkm7+/rBoEcel5rz2gf+Il5XBCy/QgJ4+3Yvny71whwlGTE3Z0/nBK3BFWHyfNIcLnd955x2E0OrVq5lccF/OJIhGZ/e6yfco/2NVvr7KzLKiInjpJRpqdetCxWdcBTJXkIhbrbar5MRypgjByJFQWiqQ/VSzTDCiKjjsUHTesMHdi6t4vUGGNoELndu3bx8cHFxSUkKf5skekyAanT1RUU51BRmrcnJQpracPg3Nm9M4S06G+/fFMVXAiC9bRr+l5cknwe5BBCFcY4IRU18EnU0mS0QEbSb1B4XY0els9woWFTG14X05FzpHRETEx8d73QeTIBqdvZZU4hMFHKsSeybX7q1W20pvRiOJZoMBVqwQ51IAoYiwEV+7FgIDSdfatYPsbOHCwAQjph4JOq9aZXEgsvPHtDSmNrwv50JnPz+/jh07et0HkyAanb2WVOIThR2rEjsnv+7z8uDZZ+kp8yOPwIkTIlspeMR37oRKlUgfGzeGq1cFctAljFq3hpo1mf6z1qhhMRiszjh2KDEYmFqgy1u39swtLnTW5s6uNSX+vFBr3bmupMZSwceqGkXz0qdDh6BBAxrNL7wg9Hd/l3aKEfGjR+l3hNeoIdBfIJd0tlvLj1baAb68fKxZ06W6jIVc6Pz4449r151dKKjR2YUoWhFfClitsHQp/ZU/LEzkW4Pt/RCDzgBw6RI8/DAJyMqVoeKS6/b2eL3vks6KnjsvWLAAIZSenu6dJi4FId4YJc36zt654XyWRmdnTbQSfhTIzq5wR/Cjj0q1MAXhjkh0BoA7d+Cxx0hABwXBjz/yo+eDVphg9OC44//lf9353r17MeXb2bNn7a2/ffu2dr8z0q5s2OeEts+DArt30+tRIASvvALe3i/FgzHlTYhHZwDIz4devUhA6/Xw+ed8eQEA3tFZzvdsAMCff/4ZGRkZHBw8evToz8q3F198MSwsjMtiQUyCaL8K8ph1ojYl6lgV1TOpOzObYd488mkHhCAqCjZvltomW/9iR7ykpMIPoW++ydcNKkwwYhKZut9540Z39ztv3MjUgE/lXK47Ex3cvHlzypQpDRs2NBgMRqOxdevW8+fPJ95s4t4CJkE0OrvXTb5HxR6r8lWCV8tu3qRfloqQ7WHh69d57cD7xiSIuMUCU6fSP9KNHQuuFi/z1CUmGDG1Q9EZwLYma0SEzSK9nv43IsK2eLVyNyZBNDorNaYSjFWlSsXZ7i1boGpV+uv8m2/yAiPO3bNUlCziixbRgO7f3/dHPphgxOS/PZ3LL4xAWppthY0uXWz/pqX5bhFTzyKVMwmi0VmkAPDejWRjlXdP5NBgSQlMm0YzqGZN+P13Odhlb4OUEf/f/8Dfn9QnIQFycuwN83SfCUZM7TjQmamacsuZBNHorNSYSjlWlaoZg90XL0KbNjSan3oK7t5lqCplscQR/+UXCAkhVWrWDG7c8FoLJhgxNajRWbx3ozDFwLty4s+Lds+Gd+ppZ8H339MPyAUEwJIlfP32xbu2EtMZAP7+G6pUIQEdGwtnznjno0ZnB92YBNHmzg5CKeaj9GNVMVIxGFpYCGPG0FPm+vXhwAGGqrIolkXEz56FOnVI0aKi4M8/vZCGCUZMTWlzZ23uzJQbMi2XxViVqTYczDp1Cpo2pdE8dCjk5nI4Tcoqcon4zZsQH09KZzTCzz97KopGZwfFmATR5s4OQinmo1zGqmIEe2Co1QpffAHBwSRfgoPhyy9lezXjgdG2/8so4vfv226YIJa98PeHb76xt5N1nwlGTCdqc2dt7syUGzItl9FYlalCrszKzYUhQ+gpc9OmtndUK2STV8SLi2HgQFrJ997j/heOoHNhYSFH4VVP58LCwoyMjCKn1am1uTPHDJFdNXmNVdnJ48qgAwegfn0aKGPHAmdAuGpO7DLZRdxshvHjaT2nTOH47i6z2ZyRkcH9l3zV0/nu3bunT582Oz3po9FZ7DHGV3+yG6t8OSZEO1YrLF4MAQEkSsLDbbdqKG2TY8StVnj7bRrQw4ZxXI3k5s2bBKALCwuL2DaTyXT79m2TycRWUWHHCwsL8/Lyrl+/npGRcfPmTed81OjsrIkySuQ4VuWp3N278OSTNEHatrUtkqnATb4RX7mSXpakZ0/Iy2NV12q1EoDO4LCdOnXq4MGDp06d4lBXeVXOnj2bk5NjtVqdRdPo7KyJMkrkO1Zlpd/vv0ONGjSaX31VhLeaCiSArCO+YQMYDKTOrVvD7dtcRDCbzVymu3l5eZs3b87Ly+NSWVl1ysrKXHKZUE+jM5cskmMdWY9VOQhmNsPcufScrmpV2LJFDnZ5bYPcI753L7lAEUK2V8lcvOi1pw4nyt1xB3P5+6jRmT8txW0J25TlJPP167bl5ag3HXXrBq6u63FqSjaVFBDxkyfpRbGjo+HwYV7EU4DjvPjp1IhGZydJFFKAbcqyx2fzZtuizASa9Xrbz1ZOv4azNyK/GsqI+LVr0KQJKX5YGGzf7ruQynDcdz+dWtDo7CSJQgqwTVl38SkpgSlT6ClzrVqwZ4+7+oo6ppiI//MPtG9PRiEwENas8VFmxTjuo59Op2t0dpJEIQXYpixjfC5cgEcfpdH8zDPwzz+MlRV4QEkRN5ngqafIWOh08NFHvuitJMd98dPpXI3OTpIopADblHUdn2+/hbAwer720UfcH11z3aD8ShUW8bIySEmh/1jOmOF1RBTmOH+Zo9GZPy3FbQnblHWUuaAARo2iKfDww3z9GOXYkdSflRdxqxVmzqRDk5ICZWVeqKg8x71w0tUpGp1dqaKEMmxTtkJwTpygf4NCyPaWUg6PQlRoQTkflBrxjz+2vauV+JH2qafAZPJUcqU67qmfTvU1OjtJopACbFOWjI/VCp9/Tj8BYTTCqlUKCZ2XZio44mvWQGAgCejHH/f09wAFO+5lqMnTNDr7pp90Z2ObsjbJc3IgOZn+yhwf7/V7OqQLoMc9KzviO3bQPww0aQLXrnH3X9mOc/fTqaZGZydJFFKAbcra3sdBvZ4DIdsyaU5LLyokhp6ZqfiIHz4M0dHk39SaNeHkSY7+K95xjn46VdPo7CSJQgpwTFmLBd57j345dOXKsG6dQsLFg5lqiPjFi7aHvIlr0JUrw969XHRRg+Nc/HSqo9HZSRKFFGCXsrdvQ2IifTXj8cfhyhWFxIofM1US8du36dvSDQbYsIFVHZU4zuqnUwWNzk6SKKQAr5Tdvh1iYkg063Tw+uvKXWrO6/xST8Tz86FnTzKaej2sXOleE/U47t5Pp6ManZ0kUUgBLilbVgazZtG3ZEVHw6+/KiREPJupqoiXlMDw4fQ3oXnz3DyroirHPUkKjc6eqCWnulik7LVr0LEjPYZ79ICsLDkFQVRb1BZxiwVefpkO7vjxTItVqc1xzlmj0ZmzVDKrqP6U3bABIiPJ0evnBwsXcnxtncwCxZs56oz4++/TgB440OXtN+p0nENeaHTmIJIsq6g5ZYuLYeJEetDGxsIff8gyCKIapdqIp6bS9+F06QL37zvIqlrHHfx0+qjR2UkShRSoNmXPnYOWLWk09+8P9+4pJCbCmqnaiAPYXltjNJJBj493eFWCmh13mzIand3KI+OD6kzZtDQIDSVHaVAQLFvm5sciGQdHENPUGXFKqr/+gipVyNDXqQNnz1JHVO445afTjkZnJ0kUUqC2lC0ogJEj6Slzo0Zw9KhCQiGSmWqLuLNsZ89CbCyZA1WqwN9/2y5Dp6ZakpLuNm1qSUqC1FSXF6adW1JHiUZnpcZRVWP16FFo1IhG88iRUFCg1MAIZreqIs6k0o0b0Lw5mQlBQcQXKateDwgR/9peLLtxI9PZKivX6KzUgKpkrFqttssXQUHkgAwNhbQ0pYZEYLtVEnFWlXJyKryxl3p1L7Gj09lufufwhCFrP/KvoNFZ/jFybaEaxuq9e9C/Pz1lbtnS/mqja7cxLlVDxDmGLycHAgLoxHAGdEQEDpc4NDpzzBfZVVP8WP3jD/oiI0K2W+iKi2WnspwMUnzEuYuZmsqIZorUGHzH0ujMPWXkVVPBY9VisT1a4udHjsDISEy+qPqYQAqOuKee9+8P5deaGRmt19u+dal90+is1AgrdazeugU9etCjrmNHjxZiV2q0+LBbqRH3wveEBDpDqMmyw06XLl40rKxTNDorK160tYocq7/+Sq+/rtPZljfy6jWgtAo47Sky4t4FSJs7l+um0dm79JH+LIWN1dJS27Kf1Ns/q1eH7dulF1FRFigs4r5oq113LldPo7MvSSTluUoaq1euQPv29HfVxES4fVtK7ZTZt5Ii7qPCRUW2+5qpv+UO1zR0OttRDF5XptHZxzyS7HTFjNV166ByZRLN/v7w/vuYLzXndcYoJuJee2h/4saNNjo7A5ooxOOBFAnofOjQoaeffjoiIiI4ODguLm7p0qVEUBISElDFrVevXvbxcrlPOJCdne3yqIoLFTBWi4psr2SlJj516the2Kpt3iqggIh765rr8zZssM2RHzwlqD0r6FolHku3bt0aGBjYtm3bxYsXr1ix4rXXXps2bRrRfkJCQq1atdLstu0cLk1qdOYxOnw2deYMxMfTaE5OhpwcPtvHry3s6Axgu3yRlmZJSrpDrLORlobDBQ0qtUWdO+fm5kZHR/fr189isVAWUDsJCQlxcXHUR447Gp05CiVqtVWrICSERLPBAJ9/ri0157v+ONK5XDVsHedK54sXL65cuXLkyJHdu3dv0aJF+/btn3nmmVmzZv32228lJSUcM2/58uUIoYyMDAAoKChwYDRB57Kysvz8fI4NAoBGZ+5aiVEzLw+ee46eMjdpAsePi9EvBn1gCylsHWehs9VqTU9P79y5s7580zlter0+KirqlVdeuXTpEusAGTBgQKVKlX777beGDRsihEJCQsaOHVv04LfXhISEgICAwMBAhFB0dPSsWbNKS0tZ29TozCqReBUOH4aHH6bRPGqUttQcj+JjCylsHXdH5y1btjRr1kyn01WtWnX06NFfffXV8ePHb9++XVZWlpeXd+XKla1bt7711lsdO3bU6/VBQUFTpky55/Y1Fs2bNzeWbxMmTFi3bt2ECRMQQkOGDCEyOCUlZe7cuevWrUtNTe3bt++/s+xBgwa5TO7i4uLcB1tmZiZCKCsrqxSzzWQyrV+/3mQyycLvkhLzkiXWwEACzdawsLLUVFkYpiIj5BVxEYXF1vHs7GyEUG5uLgAgBxTqdLpOnTpt2rSpjO2BritXrsycOTM8PPzNN990aMT+Y7169RBCY8eOpQrHjBmDEDp37hxVQu2MHj0aIbR//36qhNqZM2dOxZs7UHp6+nptk0iBn9LSbrZpQ02Z7zVo8Ovy5RLZonWrKaAeBdLT0xnpvG3bNgqIXHZycnIOHz7spmZcXBxCaNeuXVSdXbt2IYS++eYbqoTaOXPmDEJo3rx5VAm1o82dS0tLZTKhKNu50/rQQxSazZMmlRYUiDivwqgrmURcfMWxddzd3JmiIV87PXr0+PdSxpkzZ6gGT58+jRD68MMPqRJqx2Qy/ft3Y8qUKVSJyx3turNLWcQoNJvh7bfppeaiomDTJjH6xbUPbC+/Yuu4u+vOvI+C6dOnI4Ts72Levn07Qmj16tXOfZ04cQIhtGDBAudD9iUane3VEG//5k144glqymx7mcX16+L1jmVP2EIKW8e9oXNmZuaMGTP69+8/YMCA2bNn37hxg+NgOXz48L9XmYcNG0bVHzp0qL+//40bN3Jzc4vtFl+3Wq2DBw9GCB06dIiq7HJHo7NLWYQt3LIFqlYl0fzvOrxz54LZLGyPWusA2EIKW8c9pvOWLVsMBkN4eHibNm3i4+P9/f2NRiP3K9T/3phB3IyxbNmy5ORkhNDrr78OADt37qxevfqUKVOWLVu2aNGiDh06IIRefPFF1lGp0ZlVIj4rlJbCq6/SU+YaNeD33/lsX2uLWQFsIYWt4x7TuXHjxsOGDaNuUr5y5Ur9+vWbN2/OnFQVjpSWls6dOzc2NjYgIKBBgwZLliwhDl+6dCk5OblOnToGg8FoNLZu3fqzzz6zWq0VTnb1QaOzK1WEKbt0Cdq2pdH85JNw964wPWmtulAAW0hh6zgLnRcuXOjwRJ+/v/+OHTvsc2fKlClBQUH2JWLua3QWSe21ayE8nERzQAAsXqw9nC2S8g+6wRZS2DrOQufIyK0QZMEAACAASURBVMiWLVvaX/xt0qTJ8OHDqWvE165dq1+/frNmzR6kkNj/1+gsuOKFhTB2LD1lrl8fDhwQvFOtAycFsIUUto6z0PnWrVvJyckBAQFTp04tLCwEgJ9++ikoKKhy5cpt27Zt0aJFQECAwWDYunWrUy6JVKDRWVihT52Cpk1pNA8ZAuVPLgnbqda6KwWwhRS2jrPQmUiSjRs3PvTQQ/Xq1fvtt98A4MqVK6+99lq/8m3GjBnXrl1zlUsilWl0FkpoqxW+/BKCg0k0BwfDF19oVzOEUptDu9hCClvHOdEZAPLy8saNG+fn5zdixAj3i2lwSDM+q2h05lNNqq3cXBg2jJ4yN20Kp05RB7UdSRTAFlLYOs6VzkQ67t2795FHHqlWrVp6erokCercqUZnZ018LTlwAOrXp9E8ZgyUX9TytVntfN8UwBZS2DruGZ2h/Jb42bNnBwYGPvnkk9Je0yBSXaOzb0O+4tlWKyxZAgEBJJorVYLvv69YQ/skmQLYQgpbx9np/OOPP/bu3TsuLq53797r168ncvPkyZPt2rULCwuj3gooVc5qdOZN+bt34amn6ClzmzbAYc1u3nrXGmJTAFtIYes4C52/+OILvV7fqFGjwYMHN27cWK/Xf/XVV0QWWa3WpUuXhoWFtWvX7uTJk2ypJdRxjc78KLtrF9SsSaN52jTg/MobfgzQWmFTAFtIYes4C52bNGnSsWNH4oEUi8XSoUOHJk2a2GfR1atX+/TpExgYaF8o5r5GZ1/VNpvhzTfh3+UyiJdnV60KW7b42qZ2vgAKYAspbB1noXNYWBj1zmwAmDZtWlhYmHPiSfgjoUZn53B4UHL9um15OYLLCEHXrsB5TSsPetGq8qEAtpDC1nEWOrdr165+/frXyxeHvHHjRoMGDdq1a8dHpvHWhkZn76XcvBmqVCHRrNfDvHnaUnPeiyn8mdhCClvHWei8d+/ekJAQf3//mJiYgIAAo9G4d+9e4fPQgx40OnsgFlW1pARefpmeMteqBbt3Uwe1HXkqgC2ksHWchc4AcO3atQULFrz00ksLFy68evWq3BJXo7PHEblwAR59lEZz376Qne1xI9oJoiuALaSwdZydzqInoWcdanT2TK/vvoOwMBLNgYGwdKn2cLZnAkpXG1tIYeu4RmfpRptvPXucsiYTvPACPWVu0ADY3jvjm4Ha2Twr4HHEee5fsuawddwdnRcuXGgymbjHZP/+/Zs3b+Zen5ea2tyZk4wnTsAjj9BoHj4c8vI4nahVko0C2EIKW8fd0TkkJKRatWpz5869cOGCmxQtKSlZu3Ztz5499Xr9okWL3NQU4pBGZxZVrVZYsQIMBhLNRiOsWqVdzWARTZaHsYUUto67o/ONGzdGjhzp5+en1+tbtWr10ksvffnll5s3b967d++2bdu+//77efPmPfXUU5UrV9br9fXq1VuzZo34Wa3R2Z3m9+/DoEH0lLl5czh92l197ZiMFcAWUtg67o7ORKKeP39+6tSp1apV0+l0+oqbTqfz8/Pr1q3b999/X1ZWJklia3RmlP2vv6BuXRrNL72kLTXHqJUSDmALKWwdZ6czkbdWq/XYsWOffvrpjBkzxowZM3ny5Pnz52/cuDEnJ0faxNbo7EJ/iwXefx/8/Uk0V64M69a5qKYVKUoBbCGFreNc6SzbNNbo7BiaO3egd296yvz443D5smMd7bMCFcAWUtg6rtFZgcO03GTXKbtjB8TE0GiePh1KS5XqoWZ3RQVcR7xiHVV+wtZxrnS+du3a9u3bqRvsLBbLO++80759+yeeeEL8u+jsUxDHuXNREaSmWpKS7jZtaklKgtRUKCqCsjKYPRt0OhLN1aqBdK/itQ+Qts+XAthCClvHudJ5xIgRkZGRpQ8mYm+99Zbuwebv7//333/zlYKetoMdnTdsgIgIQMhavuYn8S+Eh1e4nbl7d8jK8lRJrb7MFcAWUtg6zpXODRo0GDRoEJG+Vqu1WrVqTZo0yczMPHDgQHh4eHJyslSZjRedN2ywzY6pCTK18ie14+cHCxeCxSJVOLR+hVMAW0hh6zhXOleqVIla6Pnw4cM6ne7TTz8lEnHEiBF16tQRLindt4wRnYuKbLNmN2jW6WDHDvdyaUeVqwC2kMLWca50Dg0NfeWVV4jMXrx4sV6vP3PmDPFxxowZBoNBqqTHiM6pqfTPfdRk2WEnLU2qQGj9Cq0AtpDC1nGudH7kkUc6depE5F/nzp1r1qxJ5WJKSkr16tWpjyLvYETn/v3p90s5QJn4qNdD//4i6691J5oC2EIKW8e50nn27Nl6vX7AgAHDhw/X6/UTJ06kkrJdu3bt27enPoq8gxGd7V8x5ZLOCEGXLiLrr3UnmgLYQgpbx7nSOTc3t23btsRtGvHx8ffu3SOS8sqVK3q9fsaMGaLlqENHGNFZmzs7xB6zj9hCClvHudKZGAgnyjez2UyNiytXrqxfv5548SBVKOYORnTWrjuLmVjy6wtbSGHruGd0ll/GAkZ0LiqCypUZfxjU6Wx3dBQVyTBGmkm8KIAtpLB13DM6Z2VlLVu2bMKECaNGjSIS7s6dO3/99VdhYSEv+edFIxjRGQCGD3dNZ+Im6I0bvRBQO0UpCmALKWwd94DOy5YtMxgMxKVnvV5P5PTJkyf1ev2KFSukSnGM6Hz4ML3snMOzghERoKFZqhQUq19sIYWt41zpvHHjRp1O99hjj23atOmll16i6AwALVq06NOnj1gp6tgPLnQuKoK4OHLiPH06pKVZkpLuEOtspKVpFzQc00KNn7GFFLaOc6Vzp06dYmNjCwoKAGDu3Ln2dH7uuee0ZwUFp8HUqSSaW7aEkhIAwDZlBZdarh1gG3FsHedK57CwsJdeeonIWwc6T58+PTg4WKqUxmLuvGsX+QB3YCCcOEFIjW3KSpVpkveLbcSxdZwrnUNCQiZNmkQkqAOdU1JSKleuLFXuqp/OeXlQpw45cX7/fUpnbFOWUgCfnfIlYyEpydK06d2kJAuxZCw+7mOb6lzp3Kp8IxLCns5lZWUNGjSgHvIWP2PUT+cXXiDR3KkT2N1pjm3Kip9j0vb4YMlY0OutCJH/YvUzMLapzpXOH3zwgU6nmzt3rv11Z7PZPGnSJL1ev3LlSqkyWOV03rSJRHNoKFy8aC8ytilrL4Lq95mWjCVuodywQfUC2BzENtW50rm0tLRLly56vf7hhx9u1qyZXq9PTk6uW7euTqfr1auX1WqVKk3UTOe7dyE6mqSz098/bFNWqkwTv1/3S8bi8/gRtqnOlc4AUFJSMmPGjMjISOKWZ51OFx4ePn369JLyWwjEz12iR9XS2WqFgQNJND/5JDj9/cM2ZaXKNPH71R7dJzTHNtU9oDOhlNVqPX369L59+06cOGG/4Ib4uUv0qFo6r15NojkqyuVrqLBNWakyTfx+tWWvCM2xTXWP6Sx+jrrvUZ10zsykl9T4/nuXCmCbsi7VUGWhtmQsEVZsU12js/zGtdUKPXqQE+dhw5jswzZlmQRRX3m/fu7eU1Z+/wYWr1vANtW50rmu261evXpSjQ0Vzp2XLSPRXKMGPFhH21lebFPWWQpVlty5A/HxZCIwvWsBIcDhVWXYpjpXOsfGxtapuEVERBA/D9aoUUN7kps3QJw7B8HB5KDcutVNs9imrBtNVHNoxw6IiWFHM0LgNkdUoge2qc6Vzi7jfPny5X79+rVv395kMrmsIEKhqubOZWXQrh05KB88N8+kIbYpyySIOsrLyuCNN+gLGuHhtn0372EPDIS1a9XhOqMX2Ka6T3QmbhRv0qTJ5MmTGaUV+ICq6Dx/PonmBg2gfMEpN+Jhm7JuNFH6ocxM6NSJnjL36GG7W8fls4KVK8Ojj5I1dTpYtkzprruzH9tU95XOADBx4sQaNWq4U1fIY+qh85EjEBBgG3B6PfzxB6tm2KYsqzIKrbBxI0RGksD184OFC8FiIV0pKrJdXy5fZ+NOUpKFWDK2tBRGjKBRPnu28z3xClXC0WxsU50HOr/wwgsGg8FRUbE+q4TOxcXQtCk51Li9QhfblBUrs8Trp7gYJk+mOVu7Nuzb56J354hbrTB9On3i6NFQVubiRKUXOTuudI842u8rnXfv3h0SEhIfH8+xP96rqYTOr75KDrL4eGL5ZlahsE1ZVmWUVeHcOWjViiZsv36M9+kwRfzDD+nT+/YF6d4iJ5TwTI4L1Z9s2uVK565OW6dOnerVq6cv39atWyeVR2qg85495O8+gYFw7BhHJbFNWY76KKLa6tUQGkqyNSjIdvnY6Yl92g83Ef/2W/KqGELQsSMj3+m2FLXnxnFF+eGxsVzpTK2tQe3o9fqoqKjExMRff/3V4275O0HxdM7Lg7p1yQH67rvchcE2ZblLJOeaBQWQkkLPeRs1gqNHWex1H/HffqNBHxcHmZksrSnosHvHFeSIp6ZypbOn7YpWX/F0fvFFcox26GC/fDOrgNimLKsy8q9w7Bg0bkyjeeRIyM9nt5o14ocOQbVqZLMPPQQZGextKqIGq+OK8MILIyWg86FDh55++umIiIjg4OC4uLilS5dSdu/bt69Dhw7BwcHR0dETJkzI55CzyqbzTz+RgykkBC5coHTgsoNtynIRR7Z1rFZYvhyCguiwc3/Yj0vEL1yAevXIxiMjudz7I1upaMO4OE7XVtGe2HTeunVrYGBg27ZtFy9evGLFitdee23atGmEnkeOHDEYDC1btly+fPnMmTODgoISExNZpVYwnbOzoXp1ciR9/jmrpw4VsE1ZBx0U9DEnBwYMIAOOELRsCWfPemA+x4jfukX/zBgcDJs2edCFPKtydFyexvtilTs6v8l5e+utt7gYkZubGx0d3a9fPwt1J6fdab17946JicnNzSXKVq5ciRDayvakqoLpPGgQOVJ793b3Y5CdRPa72KasvQgK2t+/H2JjaTRPnAjFxZ6Zzz3ieXnwxBNkX35+8NVXnnUkt9rcHZeb5T7a447O1A+ArDt6vZ6LHcuXL0cIZZRfDysoKLBndG5urr+/PzWPJhb7Dw0NHTVqlPuWlUrnb78lR09kJNy86d5Hl0exTVmXasi50GKBd98Ff38y4BERsH69N/Z6FPHiYhgyhP5jMH++FxMAb4wU4hyPHBfCAKnadEfn3z3ZuDgwYMCASpUq/fbbbw0bNkQIhYSEjB07tqioCAD27t2LEFqzZo19Ox07dmzVqpV9ifO+Iul8/TpERJBD57vvnJ3iUoJtynIRRz51bt2Cnj1pSnbsCNeueWmdpxG3WGDSJLrrCRPohw+9tECi0zx1XCIz+e/WHZ1576158+bG8m3ChAnr1q2bMGECQmjIkCEAsHbtWoTQ7t277TtNTk6uXr26fQmxX1xcnPtgy8zMRAhlZWWVKmUrKbE8GK+WQYO8ttpkMq1fv95kMnndgnai0Aps2VJWvbrtRdoIgU5nff11c2Gh9316EfGSktL5883UAqQDB1ry8703QKozvXBcKlP57Tc7OxshRFzsRc4c5LekXr16CKGxY8dSzY4ZMwYhdO7cudTUVITQX3/9RR0CgOeeey48PNy+hNifM2cOqrilp6evV8h2dOxYYj5TFBHxU1qaQqzWzPRMgXXrNgwceFanI9EcEVH01lt7PWuCv9oTJhzS6y0Eo5s1u5Oevpm/trWWBFQgPT3dMzqbzeZbt25dddqcGepcEhcXhxDatWsXdWjXrl0IoW+++QaXuXNGhtVoJOhctmmTL39psZ1Q+CKaOOdeuFDavj1JQ4SgZ0/L9es89OxLxNevLwsOJv9UxMdbr13jwR7RmvDFcdGMFKIjD+bOBw8e7Nmzp8FgIJ7etv/Xz8+PAq6bnR49evx7KePMmTNUndOnTyOEPvzwQyyuO5vN8Pjj5IVAuy8QlBoe7WB7Mc4jlcSv/OOP9G8K/v7w3nu8Xe31MeL799Nr4NWtC+fPi6+Nlz366LiXvcrgNK7XnY8cORIcHBwWFta3b1+dTteiRYvExMRq1arpdLquXbuOHDmSiy/Tp09HCG3fvp2qvH37doTQ6tWr79+/7/KejZSUFKqyyx0l/Sq4cCGJ5vr1OT0c5tLhB4XYpuwDAWT3/6Ii+O9/yQgjBHXqwJ9/8mmk7xHPyIDatUkLq1aFAwf4NE+4tnx3XDjbBG2ZK5379+8fHBxM3Az37w12b775JgAUFhaOGzeuatWqly9f5mLl4cOH/73KPMzuTaZDhw719/e/ceMGACQmJsbExOTl5RFNffHFFwihLVu2uG9ZMXQ+epRevnnvXvdOcTmKbcpyEUf8OmfPQosWNJqTkyEnh2creIn49ev0UrUhISDpGjlc9eHFca6dyakeVzpXq1Zt8ODBhOU6nW7u3LnEvsViiY+PHzp0KEenUlJS/r3ledCgQcuWLUtOTkYIvf7668S5hw4dCgoKop4VNBgMPXv2ZG1WGXQuLobmzcmxO306q1NcKmCbslzEEblOaiqEhJDhNRjgs88EubmYr4jfu0e/gSUgANLTRVbL4+74ctzjjqU+gSudg4KCKIwGBgZOnTqVsnzSpEnVqlWjPrrfKS0tnTt3bmxsbEBAQIMGDZYsWWJff8+ePe3btzcYDFWrVh0/fjw1j7av47CvDDpTa6Q3b+7xI2IODj/4iG3KPhBAFv/Pz4fnn6enzE2awPHjQhnGY8QLCyEpiTZ78WKhbOalXR4d58Ue0RrhSueHHnqIuhOudu3azzzzDGXimDFjQkNDqY8i7yiAznv32l5GhZDtygbrMpGc5cM2ZTkrJHjFI0egYUOacaNGsb4M0ieT+I242QzU8ogIwauvCjLf98nhByfz6/iDVhXwf6507tWrV9euXQmHhg4dGhwc/Ef5u+8yMjIiIiIeffRRqXyVO53z86F+fXIEL1zIo0rYpiyPGnrdlNUKH38MgYFkYMPCxLg+wHvE/13pf84c+q/L889DaanXkgh4Iu+OC2grr01zpfNHH33k5+d3s3xFiKNHjxL31VWpUsXPz0+n0/3www+8WuVBY3Kn84NnT6B9e4+Wb2aVANuUZVVG6Ar//FPhskDr1iLdnSZQxJcvJ9/MgxD07i3s9N+70AjkuHfGiHkWVzqXlpbeunWrpKSEMG7fvn19+vRp3Lhxr169Nm/eLKbFDn3Jms4//0zOTIxG3kcwtinrkAAif9y7l74pDSGYMoXjayB5MFO4iK9bRy853aYN3L3Lg7U8NiGc4zwaKURTXOksRN+8tClfOv/zD8TEkHRevpwXZ+0bwTZl7UUQc99shvnzwc+PDGlUlNhLJwsa8d9/h/Bw0rVGjeDKFTGlZelLUMdZ+pb0MFc6b9u2TVI7GTuXL52pBRx79RLiBxdsU5YxFYQ8kJVFr5iMEHTuLMGL+4SO+PHj9HQiJob7+4eF1L28baEdF9wBbzvgSmedTvfQQw+99tprx4W7Y8grH2RK5+++I+chERFw/bpXnrGchG3KsugiwOGtW+n39f27kvmcOfz+gsDVYhEifvkyfRdKeDj8/jtX2wStJ4LjgtrvdeNc6TxhwgTiuW29Xt+iRYsPPviA+IXQ6475OlGOdL5xg17RQLB7/bFNWb4yh0s7paXw2mvk31mEoEYN2LmTy3mC1BEn4nfvQps2pMtBQbBunSC+eNSoOI57ZJI4lbnSGQDMZvOmTZsGDRpkNBp1Op2/v3/Pnj3T0tJMJpM4trrsRXZ0tlptv3wTyzUOGiTENQ1CB2xT1mUaCFF4+TK0a0ej+cknJf65TLSIFxTQKazX215TK+0mmuPSuuncuwd0pk7Oy8v78ssvu3TpQixTFxoa+uyzz1JHRd6RHZ0//5wc0NWrQ3a2cGpgm7LCSWrf8v/9H/0rWUAAfPCBcH9n7bt1ty9mxEtLKzwDOWeOlO6L6bi7AIh+zBs6U0ZmZmbOmjUrMDCQ43sFqRN53JEXnS9coBdc+OknHt10bgrblHWWgt+SwkKgblJHCOrVg7//5rcHL1sTOeJWq+0BQuq9Ki++KM3VdgAQ2XEvwyPAaV7S2Wq1/vrrr88//3xYWBhxlUMA2zg1KSM6m83QoQOZzi++yMl6Hyphm7I+aMZ+akYGvVwVQrYXpz54Rzz7uULXkCTiS5bQgE5KgsJCob100b4kjruwQ/Qij+l85MiRl19+uUaNGnq9XqfTxcXFvfPOO5mZmaJbTnYoIzq/+y6ZyPXq+b58M6ue2KYsqzLeVbBa4auv4MGLayA4GL74Qsqv885eSBXx1avJtW8Rsi1ux/vKqM6eOpRI5biDGeJ/5Erna9euLVy4sGnTpgSUq1evPmXKlMOHD4tvsUOPcqHz8ePksgs6HezZ42CkEB+xTVkhxMzLg2HD6EliXBycPClEPz61KWHEf/0VQkNJfZo2FegeUUZxJHSc0SZRDnClM/EDoNFoHDZs2JYtWywWiyjmsXciCzqXlEB8PJm8r77KbjQfNbBNWT7Eq9DGwYPQoAGN5hdfBEnvQqpgm/0HaSN+8CBUrUqqVLs2nD5tb5qw+9I6LqxvblvnSudu3bqtWrUqPz/fbWsSHJQFnWfMoOcVxcXiqIBtyvIor9UKH35If22vVAnWrOGxeZ6bkjzi58/bfiMlfieMjIT9+3l2kKk5yR1nMkzocq50FtoOr9uXns5//EEv33zkiNeOeHoitinrqVBM9bOz4emn6SlzmzZw6RJTXVmUyyHiWVn0C7qCg0GcBdDk4LgkGaDR2TfZCwrob8Xz5/vWlmdnY5uynsnEUHvXLqhZk0bz1KniLTXHYBF7sUwinpsL3bqR0vn5wddfs1vuYw2ZOO6jF16crtHZC9HsTnnpJTJP27WDsjK7A4LvYpuyPiprNsObb5LfdhCCKlXg5599bFKk0+UT8eJiGDSI/tv2zjvC3twiH8dFivSDbjQ6P1DCi///8guZoUYjnDvnRQO+nIJtyvoi2o0b0LUrjZWuXaH8dfC+NCneubKKuMUCEybQSk6aBMLdKCArx8WLN4BGZ2/VvnfPtigO8RPJsmXetuL9edimrNeS/fyzbaZMREyvh3nzJHv4zTsX5BZxqxUWLKABPWQIXy80dpRHbo472ifYZ43O3kpL3R/bo4ew3+sYDMQ2ZRn0cFdcUgKvvEJzpFYt2L3bXX15HpNnxL/6in4jQffukJfHv3jydJx/P51a1OjsJAmXgu+/J8d65coSLMNebiG2KcslPvZ1Ll6Exx6j0dy3r6CLU9n3zPO+bCO+aZPt0UriS0mrVnDrFi6O8+ynU3PsdL548eKxY8fKXP3kVVpaeuzYsYsXLzo1K14B4UC2kKvBOTpz8yZERZHJ+L//OR4V67Nsx6pYAnDqZ80aqFSJjFVgICxdKsn3HE6mslaSc8T/+AMiIkid69eHCxdYvfGggpwd98ANz6uy0Pnq1avBwcHPPPMMU8tJSUlGo/G6MK//YOrUvlxsOlut8OSTZBoOHCjhWMc2Ze2j72bfZILRo8lAIWS77/HQITfVFXBI5hHPyICHHiIFr1aNT7Vl7rhwqcNC51mzZgUEBLiZHV+6dCkgIGD27NnCmei+ZbHpvHIlmYDR0dIuxo5tyrrPB+LoyZMQF0ejefhwQa6HcrGExzryj3hmJi17aCj89hs/3svfcX78dGqFhc6PPfZY586dnc6qUNClS5dHH320QpGIH0Sl88WL9GIwmzaJ6KWLrrBNWRda2BVZrbBiBX0Z1Gi0PS5htdrVUOyuIiJ+7x69jG5AAHz7LQ9yK8JxHvx0aoKFzuHh4ZMnT3Y6q0LBlClTwsPDKxSJ+EE8OpvNtvUTid8+XnhBRBddd4VtyrqWo7z0/n0YPJieMjdvLupiPW4M4+WQUiJeWAh9+9JRWLrUV++V4rivfjqdz0LnwMDAmTNnOp1VoWDmzJlBQUEVikT8IB6d33+fzLg6deTwPRnblGVKrr//ptfoQQheekmapeKZzPO9XEERLyurcNF/+nSfvr4oyHHfo2zfAgudq1ev/vzzz9uf4Lw/YsSImJgY53JxSkSi84kT9PLNu3aJ45r7XrBNWWdZLBZYtAj8/cm/nuHh8H//51xL8SXKirjVCrNn0zPokSOhtNTLECjLcS+ddHUaC5379OkTExNTyqxrSUlJTExMnz59XDUuRpkYdC4poRfmmjpVDK849IFtyjpoc+cO9OlDU6BdO7h82aGKSj4qMeKffgo6HRmdPn2goMCbWCjRcW/8dDqHhc5fffWVTqebPn2604lkwYwZM/R6/apVq5gqCF0uBp1nzSLzKy4OioqE9ohj+9imrL0+O3fSj9MjBNOnez9Bs29WnvsKjfjateTXToSgbVtvHgVSqOO+ZxELnc1mc3x8vF6vHzFixIWKt5hfuHBh5MiRer2+ZcuWZrPZd1O8a0FwOu/fTy5o5u/P5z2c3nlrdxa2KUtoUFYGb7xBz8uqVYOtW+3UUeOuciO+cyf9TFDjxnD1qmfhUa7jnvnpVJuFzgBw9erVRo0a6XQ6vV5fu3bt9uVbbGws8YLBxo0bX7t2zalZ8QqEpbPJBA8/TE6c580TzysOPWGbsgC2h+c7d6avZnTvDllZHCRTeBVFR/zoUahenQxZjRpw/LgHwVC04x746VSVnc4AkJ+f/8Ybbzz00EM6u61WrVpz5syR/F1WwtL5v/8lE6pNG5GXb3aKlGMBtim7cSNERpJh8fOzLZMm3NqVjqJL+lnpEb90iZ7qhId7sBCV0h33Oms40Zlq/erVq3+Vb1c9/XJCNcH3joB0/vVXkgHBwXDmDN+G+9oehilbXAyTJ5MxQQhq14Z9+3yVUUHnqyDid+7QK1IFBcGPP3KSXwWOc/LTqZJndHY6XfoCoeh87x79aqOPP5beTycLcEvZ8+ehdWsazf36wT//OImi6gJ1RDw/H3r1IuOo18Pnn7PHTB2Os/vpVEOjs5MkRMGzz5IZ1L27PL85Y5WyAkp8FAAAIABJREFUq1fTj9AHBsInn/j0dANDyOVerJqIl5YCNbwQsr1IzP2j9qpx3NMMY6Fzb26b2u53/r//I9EcHg6S/ubpJpyYpGxBAaSk0FPmhg1BxPeeu5FfgkNqirjFAlOn0mEdO9bde2rU5LhHecNCZ7tfAd3t6vV6j3rlsTL/Vzaysujlm1NTeTSV36ZwSNnjx6FJE3oMjxgB+fn8qqik1tQX8Q8+oIPbvz/jswTqc5xj2rHQ+QrnjWN/vFfjmc5WKzz9NJky/fuzfOPi3RlPGlR3ylqtsHw5GAxkKEJCQMZ/KD0Jmw91VRnx//2PfgS/c2fIyXEhkCodd+GnUxELnZ3qy66AZzp/+SXJg2rV4M4d2XlrZ5CKUzYnBwYOpGdVLVrA2bN2nuO6q9aIb90KISFkuJs1c/GWdLU6zprILHTW6/VvvfUWaysSVuCTzpcu0b89bdggoVNculZryu7fD7GxNJonTGD8wstFJTXVUWvEAeDvv+nXpcfGOt6/qmLH3ecnC53/vdj85ptvum9C2qO80dlioZ8/S0mR1ikuvasvZS0WePdd+ntuRASsX89FCVzqqC/i9pE7dw7q1iX/KkdFwZ9/0gfV7Tjtp9OeRucHklC/UMTGQm7ug1L5/l9lKXv7Nn0bLEK292vI5oEnueSAyiLuLGtWFsTHk4A2GuHnn21fm1JTISnJ0rTp3aQkS2oqXl+kNDqXJ8nJkxAUZMsLnQ5+/905b2RYoqaxum0bvQiDTgczZ8rtsXlZxF9NEWcS9P596NKFBLReD0ajbV+vt1L/RkTAxo1MZ6utnJ3O6r/uXFoKrVqRGfHyy0qJsDrGalmZjcXUEsDVq8O2bUqJgNh2qiPirKoVF0NyMjkciffE2f+r09myRfa/CrF6yakCO53//WGQdfPz8+PUmwCVCAeys7O9b/uNN8hcaNJEQV+cVDBWr16l3xCKkO3Kxq1b3odR9WeqIOIcY1RQQH6Vtecyta/TQUSEgkYqR6ddVGOnc+XKletw2Fy0LUqRr3T+6y/w87PR2d8fDh4UxWR+OlH6WP3xR9sYI4acvz+89548H5jnJ1i8tKL0iHMXITWVce5MMTotjXt7Sq3JTmc137NhMkGjRmQiyPvWFOf8Uu5YLSqCCRPo4VenDuzf7+yfVuKogHIj7ugJ2+f+/ck3XlAsdtjR66F/f7ZWlH8cbzpPnEhC4rHHFPfKI4WO1bNn6Xc0IgQDBrh+PEz5I4t/DxQacS+ESEig/3g7cJn62KWLFw0r7BSM6bxtG5kCBgOcPq2wuAEocaymptJPhRkM8Nlncn5UXnYZocSIeyeiNncmdMOVzjk5UKsWSeelS73LIWnPUtZYzc+H55+nJ0RNmnj27iJppZZJ78qKuC+iadedCfVwpTOFim7dFPprlILG6pEj0LAhjeaUFCgo8GXwYnqugiLuY4SKimy/GFP3WVJXM4gd7Z4NH+UV73Tiz4tnd9StW0eiolIl5T6RpoixarXaVsonHvRByLaKyerV4uWGynpSRMT50nzjRhudnQFNFGLyQArL3JkvrYVrx2M637pFL7iyapVwhgndsvzH6j//QFISPWVu1QrOnxdaFTW3L/+I86v+hg3kPZfas4IAgPgVV5zWPKOz1QrPPEMCIylJ0b9JyXys7ttneysr9Z10yhQoLhYnI1Tbi8wjLoTuRUWQlkass3EnKcmSlobFQyiUkqLOnXfu3Imctv0PbnZNSEhwONirVy/KUKYdz+j89dckMKpWhdu3mdpURLlsx6rFAgsWkI/4IASRkbBpkyIUlbuRso240MJh67gEdJ44cWKa3Xb37l0iugkJCbVq1bI7krZ9+3bWwHtA5ytXICyMpLPy16aUZ8pmZUH37vSUuVMnyMxkjaFWgZMC8ow4J9N9q4St4xLQee3atS6DlZCQEBcX5/KQm0KudLZY6MWvRo5006BSDskwZbduhWrVSDTrdDBnjrbUHJ/ZJMOI8+kec1vYOi4NnfPy8srKyhzCQdC5rKws35NXe3Kl85IlJDZq14b79x26VuJHWaVsaSm89ho9Za5RA3buVKKosrZZVhEXUylsHZeAzqGhoQghPz+/Ll26HDhwgApzQkJCQEBAYGAgQig6OnrWrFmlpaXUUaYdTnQ+dYq+q2vHDqamlFUun5S9fBnataPR3KePzN/IqKw409bKJ+K0TaLsYeu4OzrrdDrWtUOJChxXEN23b9+AAQO+/PLLDRs2LFy4MCoqymAwHD58mAhxSkrK3Llz161bl5qa2rdvX4TQoEGDXEa/uLg498GWmZmJEMrKyipl2kwmy4Plm80TJzLVUly5yWRav369yWSS1vLvviurXNm2ODpCEBBgfe89c3GxtBaptneZRFx8fbF1PDs7GyGUW/6qJsc76hISErrYbfHx8Tqdzt/fv27duu3atatbt66/v79Op4uPj+/i1ZIk58+fDw4OZroxY/To0Qgh6o4Oe0zPmTPH4e6O9PT09Qzb6cGDiXldXq1aG9esYailFXuswJo1GxMTL1H3zEVHF7z//u8et6KdoCmgKcCgQHp6OiOd7YGYmZlZu3bt4cOHX7V73dvVq1eHDRsWGxub6e0P80OGDAkMDDSbzfZ9Eftnzpz59wLIvHnznA9xnzuX7d9vLV++2ernV/bHH+L/2ReuR2knFMeOlTZrRk6ZEYLkZMvdu8L5qrVsU0DaiEsYA2wddzd3tsfi4MGD27Zta19C7bdt23bIkCHUR492pk2bRv1xcDjRZDL9e2jKlCkO5Q4f3V13LiyExo3JC6Jz5jicqPSPUl2Ms1rhq6/IF74hBMHBsHKloh/rUUwiSBVxyQXC1nF3153toxIVFTVjxgz7Emr/9ddfr1KlCvXRo50BAwYYDAaLxeJ81okTJxBCCxYscD5kX+KOzpMnk2hu3Vpxyzfb++hyX5KUzcuD4cNJURGCuDg4edKldVoh/wpIEnH+3fC8RWwd50rnkJCQ//znPy6FHTFiREhIiMtDDoV37tyxLzl69GhAQEDfvn0BIDc3t9juUV+r1Tp48GCE0KFDh+xPcd5npPOOHSRFgoIgI8P5RKWXiJ+yhw5BgwY0ml98EUwmpauoJPvFj7hM1MHWca507ty5c3Bw8B9//OEQsH379hkMBo6/Cnbt2rVPnz5vv/32ihUrJk+ebDQaw8PDM8rRuXPnzurVq0+ZMmXZsmWLFi3q0KEDQujFF1906M75o2s6379Pr/KwZInzWSooETNlrVb48EMICCDRXKkSfPedCiRUmAtiRlxW0mDrOFc679mzJzAw0M/PLykpadGiRampqYsWLXrmmWf8/PyCgoL27t3LJZxLly5t06ZNZGSkv79/TEzMs88+e/7BqmWXLl1KTk6uU6eOwWAwGo2tW7f+7LPPrFYra7Ou6TxyJAmSLl0Uunwzq+OipWx2Njz9ND1lfuwxuHiR1TqtAv8KiBZx/k33rUVsHedKZwDYtm1bvXr1dOWbXq8ndurVq7dt2zbfxPfpbBd0/vFHkiVhYXDlik+ty/hkcVJ29276HTIIwdSpUFIiY1FUbZo4EZehhNg67gGdAcBqte7evfvjjz9+++23P/744927d3OZ3goab0c6374NVauSdP7qK0G7lrZxoVPWbIa33qJfjVylCvz0k7Qe49670BGXrb7YOu4ZnWUYvwp0tlqhXz8SzX37qvs+L0FT9sYN6NqVvprRtSvcuCHD4ONlkqARl7OU2DquLjp/8w1JlCpV4NYtOSec77YJl7I//0y/PUavt82gXT0t5LsHWgueKSBcxD2zQ/Ta2DruAZ3v3Lnz7rvvDhw4sHv37l0rbt26dRM9ZGSH9Nz56lWoVImk8w8/SGWPaP0KkbIlJbYry9TD2TVrwq5dojmkdcSigBARZ+lSHoexdZwrnY8dOxYVFUX9GEj8JEj9q9frpYoj4UDOk09CkyYkV55/XipjxOyX95S9eBHatKHR/PTTkJ0tpkNaXywK8B5xlv5kcxhbx7nSuXv37jqdbvbs2VeuXHG5LIZUoSQcuE/N96pUgZwcqYwRs19+U3bNGvqLR0CA7e5mDncziumu1hfwG3EFCYqt41zpHBIS0q9fPxlGlHSAorNOBxs2yNBO3k3iK2VNJhg9mp4yN2gABw/ybqzWIA8K8BVxHkwRtwlsHedK54iIiKlTp4obFE69uaBzRAQOb+7lJWVPnrStlUH9aRs2DMrXkuWkvFZJZAV4ibjINvPSHbaOc6VzUlISx8e1eYkH90Yc6UyQJi2NewsKreljylqttrXlgoNJNBuNtpXntKsZck4GHyMuZ9fc24at41zpfOHChSpVqrz//vvudRT/qAs66/XQv7/4lojcoy8pe/8+PHgngY3OzZqpcp0okQMieHe+RFxw44TsAFvHudL5P//5T5cuXfR6ff369QcMGPCfiltKSoqQ0XHXtgs6I2R7/bbaN69T9u+/oV49+mrGuHFQWKh2sVThn9cRV7r32DrOlc7UzXMudyS/oy6XunSKkO3pY23u7GpEWiywaBH4+5NoDg+HtWtd1dPKZKkAtpDC1nGudL7CtkmVz67nztp1Z6d43LkDffrQU+Z27eDyZadKWoGMFcAWUtg6zpXOsk1aRzrrdKDds+EUrZ07oUYNGs2vvaa+d8U4+ay6Amwhha3j6qKzTgc6HWzcqLqB6cIhjilbVgZvvGFThbj2U7Uq/PKLi9a0IvkrwDHi8nfEUwuxddwzOhcVFe3evfu77777xmnzVHG+6hMO3CfwExGBCZoBOD05lpkJnTvTU+YnnoCbN/kSXmtHbAWwhRS2jntA508++SQiIkLvtOl0Osl/FbSts5GWhsNDKBQSWFN20yaIiiLR7OcH8+drS81R4ilyhzXiivSKg9HYOs6VzuvWrdPpdM2bN1+8eLFOp+vXr98777zTp08fnU43cODAVatWcRBZkCqEA9n4LdjjJmWLi4F6HTlC8NBDwO3NYoIESGuULwXcRJyvLuTZDraOc6Vzp06doqOjTeUvYf73pro333yTCOTq1av9/f137twpVVw1Ojsof/48tG5NX81ISoJ//nGoon1UpALYQgpbx7nSOTw8fPTo0URS63S6N954g0rwnj17du3alfoo8o5GZ3vB09MhLIxEc2AgfPyx9nC2vTzK3scWUtg6zpXORqNxxowZRHYbjcaJEydSmT5t2rTw8HDqo8g7GNK5qAhSUyEpydK06d2kJEtqqu16e0EBpKTQU+aGDeHIEZFDoXUnrALYQgpbx7nSuUGDBv/5z3+I7GvSpEmnTp2oTBw0aFBUVBT1UeQd3Oi8YYPtfu7yJyKt1L+VKlV4c/bzz0N+vshx0LoTXAFsIYWt41zpPHTo0Pj4eCIBp0yZotfrFyxYcPLkyc8++8zf3z8xMVHw3GToACs6b9hgu3OZunnZ/vF1Yj8kBL75hkEprVjhCmALKWwd50rnH374oXHjxpfLH/69c+dO7dq1iTvrdDpd5cqVjx8/LlXm40PnoiLbrNkNmv384NgxqeKg9Su4AthCClvHudLZIfXu3bv33nvvjR07duHChdevX3c4KuZHfOicmkpfVnaeNRMlGKwvImZyyasvbCGFreNe0lk+aYsPnfv3t62+x8RlbNbmk0/qiW0JtpDC1nGNzmKPMa/7S0hwh2aC2hisa+21foo/EVtIYeu4RmfFDFpt7qyYUAljKLaQwtZxjc7CjCQBWtWuOwsgqpKaxBZS2Dqu0Vkx47OoCCpXZry4gc261oqJF++GYgspbB3X6Mz7IBKwwb59XdMZp3WtBZRX5k1jCylsHdfoLPMhSZu3Y0cFNOv19LOCOK1rTQuC2x62kMLWcY3OyhjjublQuzZJ53ffta1lXb7Oxp2kJAtm61orI15CWIktpLB1nIXOBQUFDRo0aN++fWlpqXPClZSUdOjQoVGjRoWFhc5HxSkhHFD9+s7/+Q+J5oQEsFhs0mKbsuLklQx7wTbi2DrOQuePP/5Yr9fv2rWLKVl3796t0+mWLVvGVEHochzovGEDieawMPpF2timrNAZJdv2sY04to6z0Ll79+5xcXHu87V58+bdunVzX0e4o6qn8507UK0aSeevvqKFxDZlaQkw28M24tg6zkLnqlWrjhs3zv0oGDduXNWqVd3XEe6ouulstUK/fiSa+/atsJQ+tikrXC7JvGVsI46t4yx0DggImDVrlvusnTlzZmBgoPs6wh1VN52pJ1CqVIFbtyqoiG3KVlABpw/YRhxbx1noHBUVxWXurK2+LwQlrl2DSpXIifP//Z9jD9imrKMQ2HzGNuLYOs5C58cff5z1unNcXFz79u2lGiNqnTtbLPDEEySan3vOhbrYpqwLLfAowjbi2DrOQud58+bp9fpvv/2WKf/XrFmj0+nmz5/PVEHocrXS+aOPSDTXqgU5OS5UxDZlXWiBRxG2EcfWcRY65+TkREZGhoSEfP31185DYNWqVaGhoVWqVMlxyQ/nEwQoUSWdT58Gg4Gk82+/uVYN25R1LQcGpdhGHFvHWegMANu2bTMajXq9PjY29vnnn59Rvo0YMSI2Nlav1xuNxh07dkg4NNRH57IyaNOGRPOECYzSYpuyjIqo/QC2EcfWcXY6A8DRo0c7d+6sc9oSEhKOHj0q7aBQH53nzSPR3LAhmEyM6mKbsoyKqP0AthHH1nFOdCbS/sKFC99888275ds333xz4cIFOQwHldH50CHw97fR2c8P/vrLncDYpqw7UVR9DNuIY+u4B3SWZ+aric5FRfDII+TEme0uc22dDXnmo4BWYQspbB3X6CzgcPK06VdeIdHcsiWUlLCcjW3Ksuii3sPYRhxbx1noTFzH4PKvVINCNXPn338Hnc5G56AgOHmSXU5sU5ZdGpXWwDbi2DrOQmedTqfX651+DnQs0Ov1Uo0IddA5Nxfq1CEnzosWcdIS25TlpI4aK2EbcWwdZ6HzKs6bVMNBHXQeNYpEc+fOYDZz0hLblOWkjhorYRtxbB1nobP8k1wFdN64kURzaChcusRVcmxTlqtAqquHbcSxdVyjs8SD+O5diI4m6fzFFx4Yg23KeqCRuqpiG3FsHdfoLOUItlphwAASzU89VWH5ZlazsE1ZVmXUWgHbiGPrOAud63Lb6tWrJ9WQUPSVjf/9j0RzVBRkZXkmIbYp65lMKqqNbcSxdZyFzjqdzt/f38Bhk2oUKJfOmZkQHk7See1aj/XDNmU9VkotJ2AbcWwd50TnxMTE77//3uVruT3K/J07dyKnbf/+/VQj+/bt69ChQ3BwcHR09IQJE/Lz86lDTDsKpbPFAt27k2gePpzJOXfl2KasO1FUfQzbiGPrOAudT58+/corr1SvXl2v11epUmXy5MnHjx/3eggQdJ44cWKa3Xb37l2iwSNHjhgMhpYtWy5fvnzmzJlBQUGJiYmsfSmUzp98QqK5Zk24d4/VSxcVsE1ZF1rgUYRtxLF1nIXORNqbzeYff/zx6aefDggI0Ov1rVu3/vTTT+/fv+/poCDovJbha3zv3r1jYmJyc3OJZleuXIkQ2rp1q/telEjns2chOJik86+/uveP8Si2KcuoiNoPYBtxbB3nRGcq7W/duvXOO+80btxYp9MZjcbhw4dfvXqVOsq6Q9E5Ly+vrKzMvn5ubq6/v/+0adOowpKSktDQ0FGjRlElLncUR+eyMmjblkTz+PEufeJUiG3KclJHjZWwjTi2jntGZyrnt23bVqtWLb1ev2HDBqqQdYegc2hoKELIz8+vS5cuBw4cIM7au3cvQmjNmjX2jXTs2LFVq1b2Jc77iqPz/Pkkmh9+GAoKnB3iWoJtynIVSHX1sI04to57TOe///577NixlStX1ul0tWrVOnToEPdRsG/fvgEDBnz55ZcbNmxYuHBhVFSUwWA4fPgwAKxduxYhtHv3bvvWkpOTq1evbl9C7BcXF+c+2DIzMxFCWVlZpUrY/vqr1N/fihDo9dY9e8p8MdlkMq1fv95kMvnSiHaughTANuLYOp6dnY0QIi72ImcOUiV3795dvHhxs2bN9Hp9YGDggAEDfv75Z4vFQlXwYuf8+fPBwcG9evUCgNTUVITQXxUXnH/uuefCw8OdW54zZ47DrR/p6enrZb99//3G2rVzEbLNnQcOPCt7ezUDNQU0BaRUID093R2dLRbLpk2b+vXrFxgYqNPpmjVrtmTJEuouC2dueloyZMiQwMBAs9mMw9z55ZfNBJqbN7cWFPg6acN2QuGrcIo9H9uIY+s4y9w5JiZGr9dHRESMGzeOukbsKYLd1J82bRrxx0H115137yaXbw4MBB9uSqS1xPZiHC0BZnvYRhxbx1muO+t0usDAwC5duvR2u/Xp08e7kTJgwACDwWCxWO7fv+/yno2UlBT3LSviV8G8PKhbl/wx8L333DvE9Si2KctVINXVwzbi2DrOTmfHlfZdfea4+v6dO3fsh8zRo0cDAgL69u1LFCYmJsbExOTl5REfv/jiC4TQli1b7E9x3lcEnUePJtHcsSPX5ZudPXUowTZlHXTA5yO2EcfWcRY6X+G8cRkkXbt27dOnz9tvv71ixYrJkycbjcbw8PCMjAzi3EOHDgUFBVHPChoMhp49e7I2K386b95MojkkBC5eZHWIawVsU5arQKqrh23EsXWchc78ZvjSpUvbtGkTGRnp7+8fExPz7LPPnj9/3r6LPXv2tG/f3mAwVK1adfz48dQ82r6Ow77M6ZydDdWrk3RescLBdp8+YpuyPqmm5JOxjTi2jotKZyGGhpzpbLVCcjKJ5t69PVu+mVUrbFOWVRm1VsA24tg6rtFZwLGcnk6iOTISbt7kuSNsU5ZnHZXTHLYRx9Zxjc5Cjc7r16FyZZLOFR9Q56dHbFOWH/kU2Aq2EcfWcY3OggxTqxV69iTRPHSoIF1gm7KCqKmERrGNOLaOa3QWZFx++imJ5ho14J9/BOkC25QVRE0lNIptxLF1XKMz/+Py/HkwGkk6//IL/+0TLWKbskIJKvt2sY04to5rdOZ5UJrN8PjjJJrHjeO5cfvmsE1ZexGw2sc24tg6rtGZ5wG+cCGJ5vr1fVq+mdUsbFOWVRm1VsA24tg6rtGZz7F89CgEBNjorNfD3r18tuzcFrYp6ywFJiXYRhxbxzU68za0i4uhWTNy4jx9Om/NMjWEbcoyCaL6cmwjjq3jGp15G9SvvUaiuXlzKC7mrVmmhrBNWSZBVF+ObcSxdVyjMz+Des8ecvnmgAA4doyfNt23gm3KupdFxUexjTi2jmt05mE45+dDvXrkxPmdd3hokEsT2KYsF3FUWQfbiGPruEZnHgbymDEkmtu35235ZlazsE1ZVmXUWgHbiGPruEZnX8fyzz+TaA4JgQsXfG2N+/nYpix3iVRWE9uIY+u4RmefhvA//0BMDEnn5ct9asrTk7FNWU+FUk19bCOOreManX0avEOGkGju1Yvn5ZtZzcI2ZVmVUWsFbCOOreManb0fy99+S6I5IgKuX/e+He/OxDZlvZNLBWdhG3FsHdfo7OWwvXEDIiJIOn/7rZeN+HIatinri2iKPhfbiGPruEZnbwas1QqJiSSaBw/2pgXfz8E2ZX2XTqEtYBtxbB3X6OzNUP3sMxLNMTGQne1NC76fg23K+i6dQlvANuLYOq7R2eOheuEChISQdP75Z49P5+sEbFOWLwEV1w62EcfWcY3Ong1Ssxk6dCDRPGaMZ+fyWxvblOVXRgW1hm3EsXVco7Nnw/Pdd0k016sH+fmenctvbWxTll8ZFdQathHH1nGNzh4Mz2PHIDDQRmedDvbs8eBEIapim7JCiKmINrGNOLaOa3TmOjCLi6F5c3Li/OqrXM8Srh62KSucpDJvGduIY+u4RmeuQ/L110k0N20qxvLNrGZhm7Ksyqi1ArYRx9Zxjc6cxvK+fbaXUSFkezHVkSOcThG6ErYpK7Swsm0f24hj67hGZ/bBmJ8P9euTE+cFC9jri1MD25QVR14Z9oJtxLF1XKMz+zAcN45E8+OPQ1kZe31xamCbsuLIK8NesI04to5rdGYZhr/8QqLZaIRz51gqi3kY25QVU2RZ9YVtxLF1XKOzuwF47x7UqEHSedkydzXFP4ZtyoovtUx6xDbi2Dqu0dnd0Bs2jERzjx5iL9/szqzyY9imLKsyaq2AbcSxdVyjM+NYXrOGRHPlypCZyVhNqgPYpqxUgkveL7YRx9Zxjc6uB93NmxAZSdJ59WrXdaQtxTZlpZVdwt6xjTi2jmt0djHcrFbo04dEc3Ky7K5pEBZjm7IuAoZHEbYRx9Zxjc4uRvaKFSSaq1eHu3ddVJBDEbYpKwfxJbEB24hj67hGZ8eBdvEivXzz5s2OR+XzGduUlU8IRLYE24hj67hG5wpDzGyGTp3IifMLL1Q4JLcP2Kas3AIhmj3YRhxbxzU6Vxhc779PorlOHcjLq3BIbh+wTVm5BUI0e7CNOLaOa3SmB9eJE/Tyzbt20eXy3MM2ZeUZDhGswjbi2Dqu0ZkcViUl0KIFOXGeOlWEseZrF9imrK/CKfZ8bCOOreMancnBOnMmiea4OCgqUsAIxjZlFRAbYUzENuLYOq7R2TaS9u8nl2/294fDh4UZW3y3im3K8i2kYtrDNuLYOq7RGQoK4OGHyYnz229rY1UxCuBmKLaQwtZxjc4wfjyJ5rZtZbR8Myt6sE1ZVmXUWgHbiGPrOO50/vVXEs3BwXDmjJLGNbYpq6Qg8WorthHH1nGs6XzvHtSsSdL54495HUnCN4ZtygovrUx7wDbi2DqONZ2ffZZEc/fuYLHIdEwymYVtyjIJovpybCOOreP40nntWhLN4eFw7Zryhja2Kau8UPFkMbYRx9ZxTOmclQVRUSSd09J4Gj3iNoNtyoors4x6wzbi2DqOI52tVnjqKRLNAwbIdPlmVipgm7Ksyqi1ArYRx9ZxHOn8xRfSbQfwAAANZklEQVQkmqOj4c4dpY5lbFNWqQHz2W5sI46t49jR+dIlCA0l6bxxo88jRroGsE1Z6SSXuGdsI46t43jR2WKBzp1JNKekSDzYfOwe25T1UTflno5txLF1HC86f/ABiebYWMjNVe44tVmObcoqO2w+WI9txLF1HCM6nzwJQUE2Out08PvvPowSeZyKbcrKQ34JrMA24tg6Lhmd3377bYRQXFwcleYJCQmo4tarVy/qKNMO4UB2djZTBaK8pARatiQnzi+/7L6uMo5im7LKCI8AVmIbcWwdl4bOmZmZRqMxJCTEgc61atVKs9u2b9/OmuQc6Tx7NonmRx5RxvLNrI5jm7Ksyqi1ArYRx9Zxaeg8ePDgbt26JSQkONDZ/iPHMcaFzn/+CX5+Njr7+8PBgxwblns1bFNW7oERzD5sI46t4xLQedeuXX5+fsePH3dJ57Kysvz8fO4ZzkpnkwkaNiQnzm+9xb1hudfENmXlHhjB7MM24tg6LjadzWZz8+bNx4wZAwDOdA4ICAgMDEQIRUdHz5o1q7S0lDXVWek8cSKJ5sceU9LyzayOY5uyrMqotQK2EcfWcbHp/Mknn4SHh98pf0TPgc4pKSlz585dt25dampq3759EUKDBg1yOdKKi4tzH2yZmZkIoaysrFJX2y+/lCFko7PBYD1+3FUNxZaZTKb169ebTCbFeqAZ7pkC2EYcW8ezs7MRQrnlN/8ilyjksTA7OzsyMnLRokVEmw50duho9OjRCKH9+/c7lP/7cc6cORVv7kDp6enrnbb//W9zVFQhQecXXjjudFwr0BTQFNAUkK8C6enp4tF57NixDRo0KCkp4ULnM2fOIITmzZvnTGeOc+dnn7UQaO7a1VJc7Nk8Rf61sZ1QyD80AlmIbcSxdVy8ufO5c+f0ev1HH310+cHWtm3bhg0bXr58+Z9//nFGsMlk+vfvxpQpU5wP2ZcwXXdet4683FypEly9an+GSvaxvRinkvh57ga2EcfWcfGuO+/cudPhcgT1cdKkSc65euLECYTQggULnA/Zl7ik861bUKUKSedvvrGvrp59bFNWPSH00BNsI46t4+LR+e7duz9W3OLi4mrXrv3jjz8eP348Nze3uLiYSler1Tp48GCE0P+3d74hTa5vHL/mBqlxiBUHrVNL08oSCiqTVZKMxUg7kKIUvjr0IoteeAoXQWSG1ZsspT/gCk5EUC87CkFUHJHeJNEbSYpKJy7ojytnhi6Zu885v/kbT2561Lk9u+/ruxdx+2zPfV/fz/e6v67H/Xn+/Hn4YNRBZDoHg+LXXyeiuaxM1o9vjipWe5Bty2ohsBqzdZyt8MSlc+RG0v5VsL29PTMz8+jRo9euXWtsbNy+fTsRHTx4MPKsSUci0/mPPyai+eefJf745kkyI39k27KRKJgcYes4W+HJks69vb2VlZVZWVmpqanp6embN29uaWkJBoP/ufEmpXNfn/jpp4l0/vPP/zxb4gewbVmJPYutdLaOsxWuZzrH1qsTZ2vTeXxcFBdPRPNvv83L9Mk7CduWTV5L4lwZW8fZClcqnZuaJqLZYhE+X5z3it7Ts21ZvcHrtj5bx9kKVyedu7snPr6ZSPz1l25bKGELs23ZhBFOtoXYOs5WuCLpXFIymJU18cT599+TbVvFpR62LRsXmjJMytZxtsIVSWciX+htgb/8IkZGZNhqMdfItmVjJifrBGwdZytcmXQeCqWzwSBaW2XdfrOqm23LzoqSSg9m6zhb4Qqms9msyLefTJ8sbFt2eiwK38vWcbbCVUvn0DPo27cV3qQT0ti2rPrWTqGQreNshSuYzikporx8igZX6DDbllXIw9lJYes4W+EKpjPRv+9JUf7GtmWVd3YqgWwdZytcwXTGc+eptjeOS02AbUixFa5gOhMJXHeWOoZQfFQCbEOKrXDV0tlgEHjNRtS9jYOyE2AbUmyFK5XOBoMwGERbm+zbcEb1s23ZGdFR8UFsHWcrXJF0Nhj+fa+g2cwlmoUQbFtWxeCdkSa2jrMVrkg6l5YO3r7N4k0o4X3MtmXDBLgN2DrOVrgi6ez1erFXuRHgppdtSLEVjnSWdY+zbVlZDYu5braOsxWOdI550+g0AduW1Ym3/suydZytcKSz/rtubhWwbdm54VLgLLaOsxWOdJZ127JtWVkNi7luto6zFY50jnnT6DQB25bVibf+y7J1nK1wpLP+u25uFbBt2bnhUuAsto6zFY50lnXbsm1ZWQ2LuW62jrMVjnSOedPoNAHbltWJt/7LsnWcrXCks/67bm4VsG3ZueFS4Cy2jrMVjnSWdduybVlZDYu5braOsxUufTr7fD4icrvdQ8xuXq/3zp07Xq+XmW6+ctk6zla4x+MhIp/PJ4SgmH+76zBBT08P4QYCIAACihLweDyypvPg4CAR9ff3c3tOFfq96vF4uAlnq5et42yF+3w+j8czPj4uazprL83o8NRdvyXZCtcPuc4rs3WcrXBtw0l5ZYOtc2yFa1uW1Zit42yFa9sb6aylkexjtGyyOzTf9bF1nK1wbQdJmc5+v//06dP//KtVwmHMVjgHc6NqZOs4W+HaNpAynbUCMAYBEAABJQkgnZW0FaJAAASkJ4B0lt5CCAABEFCSANJZSVshCgRAQHoCkqWz3+8/fvz40qVLU1NTt27d+vDhQ+kdmJmA4eHhuro6h8NhNpuJ6ObNmzM7D4+SksCLFy8qKiqys7PT0tKWLFlSVFTU1tYmpZLYij579iwR5efnxzaNrGdLls779+83mUy1tbUul8tqtZpMpidPnsjKfjZ1u91uIrJYLMXFxUjn2ZCT8rH37993OBz19fXXr19vbm4uKioiIpfLJaWYuRbt8XjS09MXLlyIdJ4rwgSe19nZSUQXLlwIrTk6OpqTk2O1WhNYgm5L+f3+9+/fCyGePXuGdNbNBp0WDgQCGzduXLt2rU7r67Psvn37bDbbzp07kc76GDCrVZ1Op9FoHBoaCp91/vz50AduhI8oP0A6K29xVIF79uzJyMiIepeSBzs6OoxGY1dXF9JZDn/tdvu6deu0tT5+/JiIWF2SQzprG0Dt8bdv3wYGBt6+fXvp0iWj0VhVVaW23rC6QCCwYcOG6upqIQTSOYwlqQf5+fk2m01bYnd3NxG1tLRoD6o9Rjqr7a9WXXV1degDMlNSUioqKr58+aK9V+Hx1atXFy1a9OnTJ6SzNC6vWrVq9+7d2nJDH/Tc1NSkPaj2GOmstr9adS9fvnz06NGtW7dKS0vLyso+fPigvVfVsdfrXbx4cWNjY0ggnjvLYTSeO+OvgnJ0ahyq3LVrV0FBQTAYjMPcyTXloUOHcnNzv3//HioL6Zxc9kxVDa47I52n6g3lj7tcLiJ69eqV2kpfv36dkpJy+fJl9/9vhYWFa9ascbvdnz9/Vlt7pDqZXu9cW1s76TUb586dw2s2Ik3FEfUINDc3E1FnZ6d60rSK2tvbp/ouqpqaGu0jOYxlSuenT59qX+/s9/tzc3MLCws5+BTWiOvOYRQKDz5+/KhVNzY2tmnTprS0tOHhYe1x9cYDAwP3frzl5+dbLJZ79+51dXWpp3d6RTKlsxCisrLSZDI5nU6Xy7Vt2zaTydTR0TG9QmXuvXLlSkNDw+HDh4movLy84X+30Hf3KqMRQkIE9u7da7PZ6uvrb9y40dDQkJeXR0QXL15kyAfXnaUxfXR0tLa2NjMzc8GCBQUFBQ8ePJCm9JgLXblyZeR/+txud8wTY4KkI3D37l273Z6RkWEymcxms91ub21tTboqE1IQ0jkhmLEICIAACIDAjAlIdmVjxrrwQBAAARCQmwDSWW7/UD0IgICqBJDOqjoLXSAAAnITQDrL7R+qBwEQUJUA0llVZ6ELBEBAbgJIZ7n9Q/UgAAKqEkA6q+osdIEACMhNAOkst3+oHgRAQFUCSGdVnYUuEAABuQkgneX2D9WDAAioSgDprKqz0BUTAbfbTUQOh2PSLM3NzQaDYcWKFcp/1PIk4fgx8QSQzolnjhUlIBA1nU+dOkVEeXl5/f39EmhAiZITQDpLbiDKjw+BSekcDAaPHDlCRFu2bBkYGIjPmpgVBH4ggHT+AQd+AIEQAW06j42NVVVVEZHNZvv69SsQgUBiCCCdE8MZq0hGIJzOIyMjJSUlRFRWVub3+yWTgXJlJoB0ltk91B43AqF0tlqtO3bs+Oe7Kw8cOBAIBOK2GiYGgSgEkM5RoOAQCITSOfRlNFarFUBAIPEEkM6JZ44VJSAQSuf169cvW7aMiM6cOSNB0ShRLQJIZ7X8hJp5IhC+7vzmzZvly5cTUV1d3TzNjWlAYEYEkM4zwoQHcSMQTmchRE9Pj8ViIaKTJ09y4wC9OhJAOusIH0snLwFtOgshent7Q9+JfuLEieQtGpWpRQDprJafUDNPBCalsxCir68vOzubiJxO5zwtgmlAYDoCSOfp6OA+tgQi01kI0d/fn5OTQ0THjh1jSwbCE0YA6Zww1FhIJgJR01kI8e7du9WrVxNRTU2NTHpQq4QEkM4SmoaSQQAEGBBAOjMwGRJBAAQkJIB0ltA0lAwCIMCAwN+k7D+zz59WrAAAAABJRU5ErkJggg==;" vertex="1" parent="1">
          <mxGeometry x="620" y="160" width="284.76" height="280" as="geometry" />
        </mxCell>
        <mxCell id="N-EFDGDJVmfZZWuScxHc-6" value="&lt;span style=&quot;color: rgb(0, 0, 0); font-family: Helvetica; font-size: 15px; font-style: normal; font-variant-ligatures: normal; font-variant-caps: normal; font-weight: 700; letter-spacing: normal; orphans: 2; text-align: center; text-indent: 0px; text-transform: none; widows: 2; word-spacing: 0px; -webkit-text-stroke-width: 0px; white-space: nowrap; background-color: rgb(251, 251, 251); text-decoration-thickness: initial; text-decoration-style: initial; text-decoration-color: initial; display: inline !important; float: none;&quot;&gt;CelebA&lt;/span&gt;" style="text;whiteSpace=wrap;html=1;" vertex="1" parent="1">
          <mxGeometry x="732.38" y="440" width="60" height="30" as="geometry" />
        </mxCell>
        <mxCell id="N-EFDGDJVmfZZWuScxHc-8" value="" style="shape=image;verticalLabelPosition=bottom;labelBackgroundColor=default;verticalAlign=top;aspect=fixed;imageAspect=0;image=data:image/png,iVBORw0KGgoAAAANSUhEUgAAAd0AAAHVCAIAAAA7DLZUAAAgAElEQVR4AexdCXzURBefTa9tC5RSoJT7lJtyKTctiFBQoBzlUgRBlOND4RMECgqKAioiiIAfN61UEYFyKKIgyiEqICBQUG4KFEq1B2zP3X2fIWn2SjbZ3WyOneTnDyeTmXnv/d+b/04nMxMEqrpMJlN6enpOTk6udmkIaAhoCPgQAjk5Oenp6SaTCQCQqmgZ0tPTkXZpCGgIaAj4KALp6enq4+WcnByE0LVr13zoZ1KQKVlZWSkpKVlZWYJKa4XUjwC2HsfWcGrQmZOToz5ezs3NRQhlZWWpa5jvubbFxcWpqanFxcWeN6W1oAoEsPU4toZT5Jabm6vxsip6KKkktsGqGg+JrSi2HsfWcI2Xxe5D3m8P22D1PrQKlYCtx7E1XONlhXZFJ2phG6xOMPHtR9h6HFvDNV5WX4/GNljV5yqRNMbW49garvGySF1HwmawDVYJMVaWKN/zuNFoLBBw5eXl7dmzJy8vT0BZlRVx/t5e42Vl9UAh2vheLxViNc5lfMnjZrP5zp07Fy5cSBNwnT9//sSJE+fPnxdQVn1Frly5Qq24cIxtjZcdMVF6ji/1UqVjrQz9fMnj2dnZaWlp9+/fz8/P5x3iGgyGe/fuGQwG3pLqKpCfn5+bm3vz5s20tDRWatZ4WRk9zxUtfKmXumI3vmV9xuNms/nPP/+8deuWQF+aTKbs7GxqO7LAKioqZjabb968eeXKFUedNV52xETpOT7TS5UOtGL08xmPl5SUpKWl5eXlCYTWt3kZAHJzc9PS0hznmjVeFhghCirmM71UQZgqWxWf8XhBQUFaWlp+fr5AvH2el/Pz89PS0goKCuwA0XjZDhAV3PpML1UB1rKrWFAASUmm+Pj7zZqZ4uMhKQkc+rDsOgpXgOJlRxriasHneZkLEI2XuUJCufkaLyvXN+JqtnMnhIcDQmaCYP4lc3btEleOZK1x0RCXAhova+djcMWG4vI1XlacS7yh0M6doNOR/yFk8x+VuXOnN2R6u02Nl+0Q5gJEGy/bAaWCW42XVeAkD1UsKCDHxY6kTHG0Tkc+VeGEBhcNcaEl13h5w4YN1JHOhw8fttbNbDZXr14dIfT0009T+QihSZMmWZf5l1LnzZvXokWL0NBQvV7ftGnT119//fbt29ZlmDQXIBovMxCpJqHxsmpc5baiSUk2Y2S7ITN1m5zsdvNyVeSiIS597Hn50Ww7DBwIMTHkv16bbad4Wa/XT5gwwVq3gwcPIoSCgoK4ePnKlSt16tTx8/MbNmzYJ598snr16v/85z8RERENGjSwbodJcwGi8TIDkWoSGi+rxlVuKzpwIDyaU+ZkZ4IgiUltFxcNcdlhw8uls+00MhQ+3pltp3h54MCBFStWLCkpYdQbN25cmzZtatWqxcrLJSUl0dHRISEhdqPs3NzcxMREphHrBBcgGi9bo6SOtMbL6vCTJ1rGxHAyMjN2jo31RIIsdbloiEsZCy9LO9tO8fLWrVt1Ot0333xDqVdUVBQeHv7hhx9y8fIXX3yBEHr33Xe5zHHM5wJE42VHrJSeo/Gy0j3koX7Xr0OtWjy8jNV42WCQeLad4uXjx4937Nhx5MiRlD9TU1MJgrh9+zYXL48YMQIhdPPmTeH+13hZOFZKL6nxstI95LZ+9+7Bq69CYCAPKVND5rVr3ZYjV0UuGuLShx4vb9zID4ios+0ML3/yySdly5alNsIkJCR069YNALh4uVWrVmFhYVy2sOZzAaKNl1nhUnSmxsuKdo97yuXmwptvQpkyFgLiWozBzGM0awaXLrknTa5a7DTUpg1Uq8b6n7laNVPVqma93gILY75dQq9nbcEms00bgYYzvJyZmenv7//ll1/m5eUFBwevWbPGCS/Xq1evevXqAkVQxdgBebQ/GyGkfd/PJTBlLqzxsswOEFd8QQEsXgwRERbqCQ6GmTMhJYV9/bI1H5UrBzt2iKuOV1tjp6Fq1Sy2W1snerpaNYHWMbwMAHFxcfHx8Rs3bgwMDMzOznbCy9p4mYSXGupr38MWGGpaMcUhUFICa9ZA9eoWVvL3h4kT4c4dWtXSFQj2+/0++QQaNbLUmjYNrNYMKM5MK4XYeVnB42UASEpKCgoKat++ff/+/SlTuOYxhg8frs0va7xcbBXwWlJVCJjNsHUrNGxo4VadDp59Fi5ftjejoACSk03x8ZnU+RjJyfR2krw8GDrUUr1LFwub2zehoHt2XuZWUPb5ZQB48OBBcHAwQmjLli2Uply8nJKSghBasGABt0H2T7gA0eaX7ZFS/r02j6F8H3FqaDbDvn3Qpo2FUhGCZ56BM2c4qwCwe9xsho8/hoAAuqnISPjxRyeNKOERFw1x6UbzsnzrMSjFNm7cOG/ePOYYPC5eLi4ubt68eWho6M8//2xtUV5enrZ+2RoQ30yz91LftNW3rPrlF+jWzYaRO3cG252+rAY78/ixY5aZEIKARYvAbGZtRAmZbvKyyUQe1eTktBCxD3Kynl92xI2LlwHg0qVLtWrV8vf3HzFixIoVK1avXv3qq69WqlTpsccec2wHALgA0cbLrHApOtNZL1W04hgrd+4cxMfbMHJ0NHz9tUAO5fF4ZiY89ZSl8X794NHrKQXCzUVDXKpa9pUAQOlsu2T7/Y4fP86qmBNeBoDs7Ow333yzefPmISEher2+WbNms2bNysjIYG2KCxCNl1nhUnQmTy9VtO74KXftGjz/vM0JRPXqkWstTCbhWPB73Ggkl9kxS+vq1oVTp4S3L1lJLhriUsCGlx8NLyE5mdyAHhtL/svMtnPVV3w+FyAaLyvedQ4K8vdShypahgwI3L0Lkydb5n8Rgqgo+PRTKHb5ha1Qj+/dCxUq0APnoCBQ3sYTLhri8o49L3OVU20+FyAaL6vPpUJ7qfos8xWNc3JgzhwIDbXMLYSHw3vvgcHgnoUuePz6dXj8cYvcF14AwR9tck83l2px0RBXIxova+fic8WG4vJd6KWK093XFcrPhw8+sAxaEYKQEEhM9HDC1zWPFxaSi6CZTRnR0crZFqjxsl0H4AJEGy/bAaWCW9d6qQoM8gkVS0pg9Wpy1y9DiAEBMGkScLzwcclmdzz+2WfkTwKlTFiYQrYFctEQFxraeFkbL3PFhuLy3emlijPChxQymWDLFnjsMQsj63Tw3HNw5YpYRrrp8XPnbLauTJ8u+7ZAjZftQoILEG28bAeUCm7d7KUqsExtKprN8O230KqVhZERgr594Y8/xLXEfY/n5cGQIRb1unaVd1sgFw1xwaWNl7XxMldsKC7f/V6qOFPUrNDPP5NfM2JmLRCCrl3h6FFvmOSRx81mWLoU/P1pVatUkXFboMbLduHBBYg2XrYDSgW3HvVSFdineBXPnoV+/WwYuWVL2LtX4CYRN8wTweM//2yZ+/bzIxeHyLEtkIuGuDDRxsvaeJkrNhSXL0IvVZxNKlHo6lUYOdKyfQMhaNAAvvjCpU0ibpgqjsczM6FHD8vPSf/+Hq4SccMQjZftQOMCRBsv2wGlgltxeqkKDFWSinfvwn/+Y7NJpGpV+N//3Ngk4oZVonncaCQXVjNzL/XqSbwtkIuGuDDRxsvaeJkrNhSXL1ovVZxlilQoJwdmz7bfJPL++1Lu1xDZ4998Y1lhrdfDunWS4a7xsh3UXIBo42U7oFRwK3IvVYHFMqmYnw/vv09+8ZMZYIaEkBwt+alA4nv82jVo29Zi15gx0vzMcNEQl4O18bI2XuaKDcXli99LFWei3AoVF5NzFFWrWpgrIIA87OLuXVk084rHCwth/HiLgS1bspzKL7a1yudl5PQ6ePDgtWvXEEIffPCBNTZ379597bXXGjZsGBwcHBIS0rp16/nz51MfnbIu5pjmAkQbLztipfQcr/RSpRstlX4mE3z+OdSvbyEsnY5813f1qlQasMjxoseTk222BaamsogXL4uLhrgk2I2XCwogKYk8SC4mhvw3KYn+eAtXdTfyk62up556CiFklZF89+5dR17+7bffKlasqNfrX3zxxVWPrrFjx4aGhj711FO8CnABovEyL3SKK+DFXqo4WyVUyGyGb76Bli0tjIwQ9O8PZ89KqAS7KO96/OxZm82Kr7/uvW2BXDTEbjaANS9LePwyrc6kSZMQQna62fFydnZ2tWrVIiMjL1y4YF3y7t278+fPt85hTXMBovEyK1yKzvRuL1W06V5T7uhRclcIM4+MEDkks/0akNdk8zfsdY/n5sLgwRbzY2JEOdbD0TAuGnIsSeUwvLxzp7PPlezcydWAR/lCeHnRokUIoc2bN7sniQsQjZfdw1POWl7vpXIaJ7nsP/4gd05bM3Lr1uTuajm2XXAZL4XHHbcF/vQTlz5u53PREFeDFC8bDKbwcJtV49bu0unIV7MFBVxtuJ8vhJc7duwYHBxcVFTknhguQDRedg9POWtJ0UvltE8q2VeukKcLMd/4QIj8c/7LL729ScQN86Tz+NGjlredfn7kmaWi/j5x0RAXJhQvb9xosiZi1nRyMlcb7ucL4eXw8PDo6Gi3ZXABovGy25DKVlG6XiqbiV4WnJFBnsDJfEkaIXKP8po13ptX9dAeST1+7x48+aTlD4j4eMjJ8VB/pjorDbVpQ8LP8Z+5alWTXm9m5WLrTL2eqwVLfps2jCKCEkJ42c/Pr3PnzoKaYyvECggASMTLo0aNYl1/cuvWLQCIiYmxe9qrVy82K2zyKNWzsrJscjG4kbSX+hie2dkwa5ZlBQJC5A6LxYulWb3rNpZSe9xxW+Dp024rb12RlYasz6y2plrR09WqWevCnxbCy+oeL//888/Wy02SkpJCQkKaNGlCYRMTE1O9enXrAgcOHOCFTeNlXoi0AhYEDAZYtMhmk0hoKLzxhoiDQYsssVNS8zKl/549Frj0etiwwXOzWHlZ1ePlDh06+M788uHDhxFC7777LuXpmJiYpk2buup1jZddRQzT8sXF5NdOo6Isf5sHBMArr8i1ScQNL8jDywBw7Rq0aWPB7cUXPfzDgpWXnQCi/PnlBQsWIIRSUlKcWOHkERcgEs1j2Gk2YcIEnU537do1Kp/i5ZKSkgcPHtiVdHKr8bITcLRHJAImE6Sk2GwSIQgYNYqkG1VdsvEyALnQwXpbYKtWnnyHhYuGuLyh/PUY//zzT9Sj688//7S24t69eypbv1xcXBwREdGpUyfGjJiYmICAgMDAQIRQZGTknDlzigV8y13jZQZALWGPgNkMX38N0dGWsR5CEB8P587Zl1TDvZy8TOGTlATBwTSYYWHg7oJh93jZZDLt2uVs/fKuXV7xopD5ZQD45ZdfKlSoEBwcPG7cuE8fXS+99FLZsmV79uzJqxYXIDKMl3fv3o0QWrlyJaP0mDFj5s2bt23btqSkpH79+iGEhgwZwjy1ThQWFuaWXunp6QihjIyMYswug8GQmppqMBgws1uouSU//mjq3NmakU2xsSWHDwutr7xyivD4yZNmq+3pxunTi/PzXYUqLy/v/PnzBoPBJOwyGo3Z2dlGo9FkMu3YYQoPJxdmEITl3/Bwc2qqsLZcLzVx4kSEkF29K1euIITef/996/xbt25NmTLlscce0+v1ISEhbdq0eeedd7Kzs63LsKYNBsP58+fz8vLskMzKykII5ebmSndu0fDhwwMCApysoxg3bhxC6NixY9aMTKXnzp1rt3IjJSUlVbs0BB4h8MPSpRnWx6QhlF2v3tF581J37NAQ8hyBPSkptzp2ZH7wMps127thg0vN7tmz58SJE/fu3ct268rIyP7004d9+xZ17lzct2/Rp58+zMhwqyHFVLp3796JEyf27NljB2NKSoqkvPzgwYOQkJBnnnnGkXOZnIsXLyKEWGdntPFycXGxIkZPdr/vst9euGAaNsxstUnE/NhjJZ9/XlxUJLtqniugII8XFRkXLzaXfi3QHBVV8sMPwg30ZLzMOt5Ue6ZSxsvJyckIoc8//5xhYceEwWD497di6tSpjo+sc7T5ZWs08E3fuQMTJli+K4oQVK8Oa9cqdpOIG56Sf37ZTukjR9zbFsg1nWrXPHNLvfczmUxMjo8luACRen45Li6uTJkyBoPBCb5nz55FCC1YsMBJGWZLjJP5EOfV1ftUcb1ULij/+QdmzrS8j0IIIiLgww+9claCXDY+kqtEj9+7B927M3MaMGCAkJXgXDTEha7Gy1LML2dmZvr7+48cOdLaDbm5uYWFhUyO2WweOnQoQujkyZNMJmtCGy+zwoJFpsEACxdC+fIWXihTBt58Ex69J/E9BJTIywBgNEJiosUF9esD37ZAjZftgpMLEEnHy8uXL0cIffvtt9bKHTx4sEqVKlOnTl2xYsXixYs7deqEEHrppZesy7CmNV5mhcXHM4uLYeVKm00igYHw6qtw754PG65QXqYQ373b8gPJty2Qi4a4fKeNl6UYL7dv375y5cpGo9HaDVevXk1ISKhduzazxOTTTz81CzjFSuNlaxh9P20ywebNULeuZYBGEPDCC3D9us/brmheBiA/5tK6tcUvL77INZWk8bJdrHIBIul42U4nD281XvYQQNVUN5thzx5o0cLS8xEivyN0/rxqTPBMUaXzMrUt8KWXLA7i2BbIRUNc8GjjZSnGy1zou5ev8bJ7uKms1qFD0KmTpcMjRJ5C+euvKrPCM3VVwMuUgZs2WV7Dli8PDvvwKF7Oz88XiIfP83J+fn5aWlqBw6n+2nhZYIQoqJhqeqmHmJ0+DX362DBy27bw/fcetqrG6mry+B9/QIMGFq/NnGm9YNFoNKalpQlfQ+XzvHz//v0LFy7YTe0yi80k3e8nVsfQxstiIam4di5dguHDLX0bIWjUCLZtE/fbGYqzmlshNfEyALlgbuBAi/u6dbM+uu/OnTsUNefn5xfwXQaD4d69ewaDga+gyp7n5+fn5eXdunUrLS3tzp07jp7XxsuOmCg9R2W91CU4b98mTy8r3U5G9u0aNWD9eusxl0vt+UZh9XncbCYXkvv50ewcFQWHD1O+MJvNFDWnCbjOnz9/4sSJ8+fPCyirviJ//vlndnY26xoHjZfV13PV10uFYPzPPzBjhmV2EiGoWBE++ojrzb6QJn2mjFo9fviwZUWjnx/5XZjSdVZGo1HIEDcvL2/Pnj15eXlCCqurTElJCSsjU0Gr8bL6Oq9aeykX0g8fwoIFEBZm+cu3TBmYN89XN4lwweAkX8Uev3sXunWzeHbgQCHbAhkoVGw4Y4NbCY2X3YJN1kq+E6xFRfDJJxAZaem3gYEwdSpkZsoKsOKEq9vjJSXkNxWZr/XVrw9nzgiEWN2GCzSSrZjGy2yoKDvPF4LVaITkZKhTx9JdCQLGjIEbN5SNvTza+YLHd+2ybAsMDoaNG4VA6QuGC7HToYzGyw6QKD5D3cFqNsPu3dC8uYWREYJBgyAtTfHAy6aguj3OwHblis22wHHjeF8e+IjhDAKCExovC4ZKMQVVHKw//QRWB6uT1NyjB/z2m2KgVagiKva4HaIFBTBunOUnuXVrcg839+U7hnPbyPpE42VWWBSdqcpgPXUKeve2dEiE4Ikn4MABRQOtGOVU6XEn6G3cCHo9HQzly5N/P3FcvmY4h5mO2RovO2Ki9ByVBetff8GwYTaM3LgxbN/OLJlSOtwK0E9lHheC2JkzNt8pnzWLdYm6DxouBBwAjZeF4aSkUqoJ1lu34KWXLJsLEIKaNWHDBvLcXu1yBQHVeNwVo5xvC6Ra8k3DBaCk8bIAkBRWRAXB+vffMH265W9VhKBSJVi6FKw+gKAwUBWtjgo87h5+ZjO52YTZFli1KrMtkGrPZw3ng0vjZT6ElPdc0cH68CG8847NJpGyZeGttyAvT3lAqkYjRXvccxQPHbLZFvjhh+QcV0EBJCWZ4uPvN2tmio+HpCTexRueK6KcFjReVo4vhGqi0F5aVATLl9tsEgkKgtdeg/v3hRqmleNAQKEe59DWneyMDIiNtbyE6NCBWuxsJghAiPoXwsMdDw51R5Ya6mi8rAYv2eqouF5qNJLDGbtNIi++CDdv2iqu3bmJgOI87qYdTquVlJBf0WW2BTomdDrQ6WDnTqet+MhDjZfV50gF9VKzmewnzZrZdKeEBLh4UX2wKlhjBXnc2yht3WoTS3bsrNORo2aHU+S9rZT07Wu8LD3mnkpUSi/98Ufo0MGmF/XsCSdOeGqeVt8BAaV43EEx8TOSkmwiyo6XqdvkZPHlKqxFjZcV5hAB6sjfS0+ehF69bPpPu3bwww8CdNeKuIOA/B53R2u36gwcCI/mlG2iy5qdCYI8dN/XL42X1edhOXvpn3/CkCE2faZJE0hN1TaJeDWM5PS4Vw1zbDwmxia6rBmZScfGOtbzsRyNl9XnUHl6aXo6ebIBs9QUIahVCzZt0jaJSBBA8nhcAsMcRWjj5UeYaLzsGBpKz5G6l2ZlwbRp9ptEPv5Y2yQiWaBI7XHJDHMUpM0vP8JE42XH0FB6jnS99MEDmD8fypWz/GlZrhyZ8+CB0jHyLf2k87jsuBUUkCsudDpLyDHTFwiR+dp6DNl95FwB6idF+DfPnbemoqdS9NLCQvj4Y6hc2dI99Hpy1JyVpSKgfEZVKTyuHLB27SL515Gaqcxdu5Sjqfc00cbL3sPWWy17t5cajeSsca1aFkb28yNnltPTvWWP1i4fAt71OJ90GZ7v3EmOi0t3+mn7/WRwgdsitfGy29CxVzSbYccOaNrUwsgIkasv/vyTvbyWKxUC2PEyALl5JDnZFB+fSZ2PkZyMw3YSJqC08TIDhWoSXumlBw9Cu3Y2jBwXBydPqgYUn1bUKx5XA2LYGq7xshrC01ZHkYP1xAno2dOGkTt0gB9/tJWp3cmJgMgel9MU12Rja7jGy64FihJKixasFy9CQoINIzdrRp53YTYrwUxNBwYB0TzOtKiSBLaGa7yskgi1UlOEYE1PhxdftNkkUrs2eSac9iURK5yVkxTB48oxxhVNsDVc42VXwkQZZT0K1vv3yTORg4Isw+TISPLc5KIiZRinacGCgEceZ2lPNVnYGq7xsmpilFHUzWDNyyO/G1K2rIWRy5Ujvy2ibRJhkFVqwk2PK9Uc4Xpha7jGy8KDRCklXQ7WwkLy23qVKlkYWa+H11+Hv/9WikmaHk4RcNnjTltT0UNsDdd4WUVRSqvqQrAajeT3p2vWtDCynx+8/DLcuqU+szHW2AWP+xZK2Bqu8bL6AllQsJrNsH07NGliYWSEYNgw+Osv9RmMvcaCPO6LKGFruMbL6gtn/mA9cACeeMKGkXv3ht9/V5+pmsaPEOD3uI8Cha3hGi+rL6KdBevx4/DUUzaM3LEj/PST+ozUNLZCwJnHrYr5XhJbwzVeVlUwFxRAUpIpPv4+dWhAUpLl0IALF2DQIBtGbt4cdu/WNomoysHsymJLT9gazs/LV65cWbNmzejRo3v06NGyZcuOHTv2799/zpw533//fZGsi14p1TE655PrkK1162DMGJuvotWpA599pm0SYSc5FeZiS0/YGs7Jy2azOSUlpWvXrsSjS+dwEQQRERHx2muvXb16VZZQx4uXd+5kP5TW+tRwhCAyElas0DaJyBKQ3hOKLT1hazg7L+/du7d58+Y6na5SpUrjxo1bv379H3/8ce/evZKSkry8vOvXr+/bt+/tt9/u3LkzQRBBQUFTp079559/vBeXrC1jxMvOP+JAUXO5crBgATx8yIqVlqlqBLClJ2wNZ+dlnU7XpUuX3bt3l5SUOA/o69evz549Oyws7K233nJeUvSnGPGykI+erVolOsJagwpBAFt6wtZwdl7ev3+/SxGZnZ39u9NlWKNGjUJs163SDQ5Hjx7t1KlTcHBwZGTk5MmTHwjYHIwRL2sfCXYpHH2uMLb0hK3h7LwsemD//PPPyVZXUlJSSEhIkyZNKEGnTp3S6/WtWrVatWrV7Nmzg4KC4uLieHXAiJdjYmwWWtjNKVO3sbG8iGkFVIoAtvSEreES8bJdfzh8+DBC6N1336Xye/fuHRUVlZubS92uWbMGIbRv3z67Wna3GPGyNl628z1mt9jSE7aGu8bL6enpiYmJAwcOHDRo0BtvvHH79m33OsiECRN0Ot21a9cAIDc319/ff/r06UxTRUVFZcqUGTt2LJPDmsCIl4XMLycns6KkZfoAAtjSE7aGu8DLe/fu1ev1YWFhTzzxRHR0tL+/f0hIiKsz0QBQXFwcERHRqVMnqsMcOXIEIbRlyxbr/tO5c+fWrVtb5zimMeJl5+sxdDry48EFBY4QaTlqR+DRRiKIjzc1a3Y/Pt5kvZFI7aYJ0V/jZQBAzpFq1KjRiBEjCkr7//Xr1+vVq9eiRQvntRyf7t69GyG0cuVK6tHWrVsRQocOHbIumZCQUKVKFescKl1YWJhbeqWnpyOEMjIyijG4SrZvN+t0jrPMZp3OrNOVbN+OAQbYmbhtW0n58maEgCAs/5Yvb96+vQQTLAwGQ2pqqsFgwMRexsysrCyEEDW1a8PLCxcuNJlM1szo7+//ww8/WOdMnTo1KCjIOkdIevjw4QEBAcw+vaSkJITQr7/+al135MiRYWFh1jlUeu7cuXbLOlJSUlLxuHJq1aJ4mSJo6t+i0NBjiYl4AICXlYmJvzz6zSUZ2fo/KjMx8Re84MDM2pSUFHZerlChQqtWrU5afam+cePGzz77bGFhIUWRN2/erFevXvPmzR3Z00nOgwcPQkJCnnnmGaaMNl5mfiSdJU6fpkk5MrKkX7/MZs1K+vcv2bChOC/PWS3tmToRyMsrLl+e/FvImpGZtE5nLl/ejIPntfGy/TzG3bt3ExISAgICpk2blp+fDwBff/11UFBQ+fLl27Vr17Jly4CAAL1ez7tqguFfKpGcnIwQ+vzzz5l8bX6ZgcJZYsIEetT00UfYTro5w8e3nmkveil/YhvqPO/9du3aVaNGjbp1637//Z+N3xEAACAASURBVPcAcP369RkzZgx4dCUmJt68edPV7hAXF1emTBmDwcBUzMnJYV2PMWbMGKYMawKj9345ORAaSvJyaCjk5GAbrKxh4JOZ2sJIyq3YhjoPLwNAXl7ehAkT/Pz8Ro0a5eEhGJmZmf7+/iNHjrTrS3FxcVFRUXl5eVT+2rVrEUJ79+61K2Z3ixEvf/QRPVieMIFa0JKamlpcXGwHiHbrMwhoG4koV2q8bD+PYRfiR44cadKkSeXKlVNSUuweCb9dvnw5Qujbb7+1q3Ly5MmgoCBmv59er+/Zs6ddGcdbXHjZZIL69WlePn9e42XHSPCxnKwsaNCAdjgzp2yXIAgYONDH7GYxR+NlHl6m6OCNN94IDAx8+umn3ZjBAID27dtXrlzZaDQ6euDw4cMdO3bU6/WVKlWaNGkSM3Z2LMnk4MLLX39N99Enn6RsxzZYGdf7auLBA3j7bShXjoeUKY7esMFXYbDYhW2oO5vH2LFjR+/evZs2bdq7d+/U1FQKrXPnzrVv375s2bLLli2z4CdHChdejouju2mpC7ANVjmiTCKZhYWwbBlUqiSIkSle7tgR3N1vK5FRnovBNtQ5eXnt2rUEQTRs2HDo0KGNGjUiCGL9+vUU0GazedmyZWXLlm3fvv25c+c8R9+9FrDg5T//pHtq7drM90ewDVb34kThtYxG2LgRStemk97284OXXoING/g/hFC5MtjuKFC4rS6rh22oc/Jy48aNO3fuTG0tMZlMnTp1aty4sTWuN27c6NOnT2BgoHWmlGksePmVV2hefv99Bltsg5VBwDcSZjNs3w5NmtiMkYcNg7/+ou0r/XCYzX6/8HD44AOoUYOuRRCwcCHY7gDzDXhIK7ANdU5eLlu2rPVZQtOnTy9btqyjwz15DejYmks5vs/LeXlQtizZ/4KD4e+/GXCwDVYGAR9IHDgATzxhw8hxceB4hnlBASQnU+djZMbHm5KT6XNQ7t+HXr0s1fv2Bcm/FySFE7ANdU5ebt++fb169ahz62/fvl2/fv327dtL4QrBMnyflz/5hO55L75ojQq2wWoNgnrTx4/DU09ZKBUh6NABfvzRmUGsHjcaYd48cq6Dmm6uUwesNuc6a01Fz1gNV5H+bqvKyctHjhwJDQ319/ePiooKCAgICQk5cuSI22K8UdHHedlshkaN6D535ow1gNgGqzUIakxfuACDB9swcrNmsGsXmM081jjx+LffQkQE3WZQEKxZw98ajzAlPXZiuJLUFF8XTl4GgJs3by5YsGDixIkLFy68ceOG+MI9a9HHefn77+ne1rWrHU7YBqsdDiq6vXkTxo4FgrCQcp065AQF25JRFrOce/zGDZspkdGjwWo7LUtrKspybriKDHFVVWe87GpbEpf3cV7u14/uxFu32gGLbbDa4aCK2/v34b//haAgCyNHRsInn0BRkQvq83q8sBAmTbKIaNHC8vLQBTHKK8pruPJUFkcjjZfFwVHkVq5epScOq1cHh0+SYxusIoPs5eby8sj5X+rFLTUFHBYGCxbAw4cuCxbo8ZQU+hgVhMjNKdu3uyxIaRUEGq40tT3Xh52XFy5caH20EK+YY8eO7dmzh7eYuAV8ebw8bRo9+Cn9BKI1dNgGqzUISk4XFMBHH0HFipYBrF4PM2ZYr6lxTX3hHj9/3vJWAiGYNg1UfYyKcMNdA1Txpdl5OTQ0tHLlyvPmzbt8+bITE4qKirZu3dqzZ0+CIBYvXuykpDce+SwvGwzkd6EQgsBAyMx0hA7bYHWEQmk5JSWwfj3UrGlhZD8/GD/e0415Lnk8Lw+GDrUo0KWLp9JlBNklw2XUU3TR7Lx8+/bt0aNH+/n5EQTRunXriRMnrlu3bs+ePUeOHNm/f/+XX345f/78Z555pnz58gRB1K1b1+7rfKJrydqgz/Ly6tV0r3r+eVbDsQ1WVjQUkmk2w7ZtNmNVhGD4cLh0SQQFXfW42QzLl0NAAB1HkZFw8KAIakjfhKuGS6+hlySy8zIl7NKlS9OmTatcubJOpyNsL51O5+fn17179y+//LLEYQLUS7raNeubvPxv/27enO5Px4/bmUzdYhusrGgoIXP/fnj8ccsQFSHo0wdOnRJNNfc8fuwYVK9Oa0UQsGiR+rYFume4aLjL15AzXqa0MpvNZ86cWblyZWJi4ssvvzxlypR33313165d2dnZ8qlNSvZNXv7xR7once/iwTZY5Y03Vum//QZPPmnDyJ06ge03hFnruZbptsczM232sPTrp7JtgW4b7hq+yivNz8vK05nWyDd5edAgupdv3syFPLbBygWILPlpaeQJyNRCC+rfFi1gzx6vbOvwxOP/LpGeO9dmW6Djbm9ZABQi1BPDhbSv2DIaLyvJNTdvkoeJIQRVqjhZ4IptsCrEVTduwAsv2GwSqVsXNm/24iyB5x7fuxcqVKB/RYKCYO1ahWDJo4bnhvMIUOpjfl6+efPmgQMHmGVzJpNp0aJFHTt2fPLJJ6VfG2cNow+Ol2fNorvO3LnWltqlsQ1WOxykv83MhClTyGUyzDC5ShVYudLJb6g4Oori8evXbSbBX3hBBdsCRTFcHB9I2wo/L48aNapChQrM1+TefvttXenl7+//22+/SauwRZqv8XJBAb3k1d8f7tyx2OmQwjZYHZCQLiM3l5wNKFPGwsjly5MHbLqxScQNpcXyuN22wOhocZaLuGGRwCpiGS5QnHKK8fNy/fr1hwwZQmlsNpsrV67cuHHj9PT048ePh4WFJSQkyGWMr/Hyhg10px8+3Dmk2Aarc1i89LSgAJYssZwNRJ26OnOmpC/QxPX45s0QEkLHWrlysGOHl5AToVlxDRdBIama4OflcuXKMQcx//777zqdbuXKlZR6o0aNql27tlSq2svxKV42m6F1a7qv/Pyzvam299gGqy0MXr8rKSHnYZkT6BECf3+YMMH5HzNe0Up0j587Bw0bWsb+06Y57vb3iiGuNiq64a4qIFd5fl4uU6bMa6+9Rum3ZMkSgiAuXrxI3SYmJur1enlVz8rKkksBMeUePUr3kjZteN/oYxusYgLutC2zGb76yoa5dDoYMQKc7n512qJnD73hcbttgV27yvB7w4uKNwznFaqEAvy83KRJky5dulC6du3atVq1aozeY8aMqVKlCnMrccKnxsvDhtG8vHEjL4zYBisvMqIU+P57aNvWMpZECJ5+Gk6fFqVtNxvxksfNZvj4Y/KPAOo1ZmQkz/H8bmrvQTUvGe6BRhJV5eflN954gyCIQYMGPfvsswRBvPLKK4xq7du379ixI3MrccJ3ePnOHbpzVKxIfybIKZTYBqtTVER4+Ouv0L27DSN37gyHD4vQsodNeNXjP/9s2Rbo5wfvvcf7B5uH1rhQ3auGu6CH5EX5eTk3N7ddu3bUEozo6Oh/Sr8jdv36dYIgEhMTJdeZFug7vDx3Lk0GwsDENli9F2nnz8OAATaMHB0NX3+tFIbytsfttgX27w9yb+alXe1tw70XUR62zM/LlICzjy6j1fcVrl+/npqaSn0A0EMl3KvuI7xcVETuIqE+T5+eLgQKbINVCDiulrl+HUaPttkkUq8epKR4cZOIqxpK81looxHefNPyy1Svnpjne7hhMlUF21AXystuI+u9ij7Cy5s3071h8GCBWGEbrALxEVjs3j145RWbTSJRUbBqlRIPLJbM4998Y9kWqNfDunUCsfRWMckM95YB7rYrlJczMjJWrFgxefLksWPHUrIyMzN//fXX/Px8d0V7Ws9HeLl9e5qXf/pJICLYBqtAfHiL5eTAG29YPu2BEJQvTx63ptjP4knpcbttgWPGgHxdHKQ0nDdspCwgiJdXrFih1+upKWaCICj9zp07RxDE6tWrpVTXWpYv8PLx4zQpt2ghfC4T22C19r576fx8WLzYZpNISAjMmiXpJhE3NJfY44WFMHGiZU6jZUufWiDoBv7SV+Hn5V27dul0uscff3z37t0TJ05keBkAWrZs2adPH+mVpiT6Ai8//zwd/mvWCIdR4l4qXDEllywpgTVrLAsPqE0ikyZBRoaStaZ1k8Xjn31m2RYYFgapqTIAJYvhMtjpIJKfl7t06VKrVq2Hjw4CmDdvnjUvjxw5Utvv5wCp4Ix79+jZzfBwl/6ExjZYBSNrU9Bkgi+/tN8k8txzcOWKTTEl38jlcbttga+/LvW2QLkMlz0Y+Hm5bNmyEydOpBS14+WZM2cGBwfLZYPqx8vvvEMPlqdNcwlDbIPVJZQAyJmhffugTRvLn+QIQd++8McfrrYkc3kZPZ6XB0OGWACMiZH0LwwZDZfX5fy8HBoa+uqrr1Ja2vHymDFjypcvL5cB6ubl4mKoVo2Md50Orl51CUNsg9UllI4dg9hYC6EgBF26wNGjLrWhlMLyetxshqVLLdsCq1QBwa+oPQVQXsM91d6D+vy83PrRRYmw5uWSkpL69eszW7Q90MHNqurm5S+/pDmjXz9X7cc2WAUCde4c9O9vw8gtW8I33wh/sSpQjnTFlODxo0fpgQS11P7996XAUwmGS+dmK0n8vPzhhx/qdLp58+YBAMPLRqPx1VdfJQhijSsvrKzkipBUNy936UIzx/ffu4oFtsHKC9S1a/D885ZvJiEE9evD558ra5MIrxWOBRTi8Xv3bD5mGB/v9W2BCjHc0SPezuHn5eLi4tjYWIIgGjRo0Lx5c4IgEhIS6tSpo9PpevXqZTabva0iV/sq5uXTp2lSbtzYjVEHtsHKFQkAcPcuTJ4MAQGWYXLVqvC//ylxk4gTK7geKcfjRiPMmWMBuV49757opBzDuVzjpXx+XgaAoqKixMTEChUqUEuYdTpdWFjYzJkzi4qKvKSWkGZVzMtjx9KhvWKFEEvtymAbrHY4ULc5OSRThIZayCI8HN5/X87dEKx6epKpNI9//TWEh9OA6/Wwfr0nxjmrqzTDnekq6jNBvExJNJvNFy5cOHr06NmzZ60PyhBVHxcaUysvZ2WBXk8Gdbly8OCBCwaXFsU2WEsBoP+fnw8ffGDZN4wQud529myv/3Ftp4YEtwr0+LVrNqehjh3rlR9CBRougbsBwAVelkYh4VLUysvvvUePNEpXuQg3mSqJbbAyQJWUwOrVltdQCJEzGP/5j6RLuBhlJEgo0+OFhTB+vOXPlJYtxV8SrkzDJfC4xssSgGwlwmiEWrXoWP7rL6sHLiSxDVYA8g3eli3QoIGFDnQ6GDnS1aWGLqCthKJK9nhyMgQH0+4IC4OdO8UETMmGi2mnQ1v8vFzH6VW3bl2HNiXKUOV4eccOOoR793YbJjyD1WyGvXuhVSsLIyME/fqpb5OIG35XuMfPnoXHHrP4ZcYM0bYFKtxwN1wpsAo/L9eqVau27RUeHk69AKxataq2D1sg0HSxJ5+k4/ebb1yraFUaw2D9+WeIibH0fITIW77v01pBpvKk8j2emwuDB1scFBsrzpyS8g33UmTx8zKr4GvXrg0YMKBjx44G+c5GVN94+fx5OnIbNPBkSS1WwXr2LDkopj5AR/3bqhV8+60bywtZA1kdmarwuNkMH31k2RYYFQWHDnkKryoM99RItvpu8jL1DYXGjRtPmTKFrVkp8tTHyxMm0ASzdKknAGESrFeuwHPP2WwSadCAnFw2mTwBT5V1VeTxI0egalU6zP38yAUznuxwUJHh4gaW+7wMAK+88krVqlXFVUh4ayrj5ZwcepFtaCjk5Ag307Gkzwfr3bvk4grrTSLVqpELMIqLHcHAIkddHrfbFjhggPvxri7DRYxFj3j5xRdf1Ov1wrU5efJk3759w8PDg4ODmzZtumzZMqpuTEwMsr169erF26zKePmjj+hRROnhfLwGchXw4WDNziYXIIeEWCYuKlQgx1wyfjKDywtS5qvO40Yj6Udm9ql+fTe3BarOcLGiwn1ePnToUGhoaHR0tEBV9u3bFxgY2K5duyVLlqxevXrGjBnTp0+n6sbExFSvXj3Z6jpw4ABvs2riZZOJPKmBitO0NF7TnBfwyWA1GOC99yy7yBAi/7qYM8f9oZZzDNX1VKUe37PH4lC9HjZscBl1lRrusp0OFfh5uZvD1aVLl7p16xKPrm3btjm0yZKRm5sbGRk5YMAAE9vsYExMTNOmTVmqOc1SEy9//TVNyj16OLVJ0EMfC9biYvj0U8ukJLVJZPJk8sgL7aIQUK/Hr12zOf/6xRehoMAFr6rXcBeMZCvKz8vMmRhMgiCIiIiIuLi47777jq1NlrxVq1YhhNIeDRUfPnxox84UL5eUlDxwZV+ymng5Lo7mZTG+xuMzwWoykYe9MX9IUIdRP/88XLvGEkI4Z6na4wUF8PLLljmNVq1c2BaoasM9iVh+XvakdabuoEGDypUr9/333z/22GMIodDQ0PHjxxeU/nTGxMQEBAQEBgYihCIjI+fMmVMs4BWPanj5zz/pqKxdG4xGBhO3Ez4QrGYzeSByy5aW7ooQxMfDuXNuo+LLFX3A40lJlm2B5cvDrl2C/OUDhguy06GQRLzcokWLkEfX5MmTt23bNnnyZITQsGHDKH3GjBkzb968bdu2JSUl9evX79+R9ZAhQxxUJTMKCwtzS6/09HSEUEZGRrGyL+N//kPRj3HhQlE0NRgMqampBoNBlNakb+THH0s6dzYxL4UebRIxHT5cIr0mapGodo9TOJ88WVy/vpnx+/Tpxvx8Hg/4huE8RrI9zsrKQgjl5ub+e+o9YqVCUTLr1q2LEBo/fjzT2ssvv4wQ+ovtjIhx48YhhI4dO8YUZhJz5861XbiBUlJSUhV87fn88+JHxweUBAZ+nZysYE2lUG3p0h/ats1geiZCUK9e9ty5R3fskEK6JkN2BFJS9nTocJsJgObNMzdu3Cu7VgpUICUlhYWX3xJ8vf322wxpOkk0bdoUIfST1XfBfvrpJ4TQpk2bHGtdvHgRITR//nzHR6obLxuXLaMGy6YxY9h+F93JU+Mg4uLF4uHDTTqdZbjUoIH5889LiorcQQC3Omr0OJePioqKP/jA6O9PR0JUlPngQc4/lXzJcC5AWPPZx8vMKz7eBEEQjuzpmPPUU0/9O3Fx8eJF5tGFCxcQQkvZdr4ZDIZ/fyumTp3KFGZNqGB+2WyGRo3oOdQzZ1itcCNTXZNud+7AxImW7bkIQfXqsGaNaEfbuAGg6qqoy+NC4LXbFrh4Mfu2QN8zXAg4nOcv/+jKJUTSzJkzEULWq5IPHDiAENq8ebNj9bNnzyKEFixY4PjIOkcFvPzddzQpd+1qrbmHabUEa3Y2zJpls0kkIgIWL8Z9k4gb3leLx10y7d496N6d7h8IwcCBLGvVfdJwIShJ9N7v999//3c2ecSIEYxOw4cP9/f3v337dm5ubmFhIZP/71dRhg4dihA6efIkk8maUAEv9+1Lx93WrawmuJep/GA1GGDRIihf3tLrQkPhzTfh0WsM94zGupbyPe6ee4xGSEy0BEn9+mD3V6WvGs4Ll0S8DAD/LrqgFlqsWLEiISEBITRr1iwAOHjwYJUqVaZOnbpixYrFixd36tQJIfTSSy8JVD0rK4u3pDwFrlyhD92pXl3cP9qVHKzFxbBqFURFWTpbYCC8+ircuyePE3xDqpI97jnCu3dbfsKDg2HjRrLJggJISoL4eFOzZvfj401JSa5tSPFcK3lbcIGXjUbj3bt3bzhcAg0oLi6eN29erVq1AgIC6tev/9FHH1EVr169mpCQULt2bb1eHxIS0qZNm08//VTIZ7aVPl5+7TWanN59VyBEAosps5eaTLB5M9SrZ2FkgoDRo+H6dYFmacU4EVCmxznVdf3B1avQurUlcnr2pJmaIMjXg9S/4eFCVz27Ll9xNQTx8okTJ3r27KnX66m919b/+vn5yWWTonn54UM6soKCIDNTXIiU1kvNZtizB6KjLf0KIRgwAM6fF9dufFtTmse94YmCAnjpJZsQYpbTUQmdjvz7U9zvVHnDEFHa5OflU6dOBQcHly1btl+/fjqdrmXLlnFxcZUrV9bpdN26dRs9erQoerjRiKJ5efVqOsRGjXLDNOdVFNVLDx+Gzp1tulO3bvDLL84t0J66hoCiPO6a6i6WXrPGJpYcqTk8HIsJDX5eHjhwYHBwMHW0xb/L5t566y0AyM/PnzBhQqVKla7Jd5aBcnnZbIbmzen4OnHCxcjkL66QXnr6NDz9tE0vatMGvvuOfcETv1VaCW4EFOJxbgVFe5KUZBNRdrxM3SYniyZOsQ3x83LlypWHDh1KGaDT6ebNm0elTSZTdHT08OHD5bJNubz84490cHXo4A1wZO+lly/DiBE2XxJp2BC++kpjZG94m2xTdo97yzCHdgcOBIJwRs0EQa6o8/mLn5eDgoKohRMAEBgYOG3aNAaUV199tXLlysytxAnl8vKgQXRkpaR4AxMZe+mdOzBhgv0mkXXrxF1v4g3M1N2mjB6XGDi7r+uyjpdjYyVWSgZx/Lxco0YN5lyLmjVr9u/fn1Hz5ZdfLlOmDHMrcUKhvHzzJvj5kbxcpQoUFXkDE1l66T//wIwZliPBEIKKFWHJEiwm+7zhRJfalMXjLmkoVmFtvEwhyc/LvXr16tatG1V6+PDhwcHBPz/6QHxaWlp4eHjbtm3Fcomr7SiUl2fNogfLpRM+rtrFW17iXvrwISxYYFlhihD8+1s8d662SYTXUaIVkNjjountekPa/DKFGT8vf/zxx35+fnfu3AGA06dPU6vlKlas6Ofnp9Pptm/f7jr44tRQIi8XFJDDSOqTGxkZ4tjp0IpkvbSoCFasIMf9zJ+TgYEwZYroC/8cLNQybBGQzOO2YmW4KyggPz2l01lCjok96rMJ2noM2ivFxcV3794tKv2T/OjRo3369GnUqFGvXr327Nkjg+tKRSqRlzdsoAPKm69DJeil/36P8LPPoG5dS/cgCHjhBbhxoxR97f8SIiCBxyW0hkfUrl0kLztSM5Up8EB9HhmKf8w/XlasCYrjZbPZsmnp0VSPl6Dzai81m2H3bssyP2q0MnAgePy1WC+BgUWzXvW4AhHcuZP+YKu234/zXPz9+/cr0HPMUXgKOh/j6FF6eNmmjVeXjHmvlx46BJ06WcbICMGTT8KvvyrT/xhp5T2PKxbEggJITqbOx8iMjzclJ+P1hpl/vKzT6WrUqDFjxow//vhDUV5U3Hh52DCa0qiTV7wGljd66alT0Lu3DSM//jgo9RfZa8gqtWFveFypttroha3h/Lw8efJkatc1QRAtW7b88MMPqXeANvjJcaMsXr59m17WW7Git3/ZxQ3WS5eA+UGhZi0aN4Zt27w64pcjXNQsU1yPqwgJbA3n52UAMBqNu3fvHjJkSEhIiE6n8/f379mzZ3JyssFgkNHHyuLlN9+kR5uJid7GRKxgvX2b/IC8v79lmFyzJqxfr20S8bYDXW5fLI+7LFjuCtgaLoiXGe/k5eWtW7cuNjaWOlKuTJkyzz33HPNU4oSCeLmoCCIjSXrz84P0dG/j4Hmw/v03vP466PUWRq5YEZYuBavvE3jbCK19FxDw3OMuCFNSUWwNd42XGZelp6fPmTMnMDBQ4Pf9mIoiJhTEy599RjPc4MEiGsjVlCfB+vAhvPsuhIVZGLlsWXjrLcjL45Km5cuPgCcel197DzTA1nCXedlsNn/33XfPP/982bJlqTkND2D3qKqCeLldO5rnrD747ZFtTiu7F6xFRfDJJ/SwnppHDgqCqVO1TSJOsVbGQ/c8rgzdPdICW8Nd4OVTp07997//rVq1KkEQOp2uadOmixYtSvf+n+1cjlUKL//2G03KLVpI87LM1WA1GsklR3XqWMbIBAFjx8LNm1zQavnKQsBVjytLew+0wdZwfl6+efPmwoULmzVrRtEx9S2+33//3QO0xamqFF5+/nma8NasEccwvlaEB+u/O1127YJmzSyMjBAMHgwXLvDJ0J4rCQHhHleS1iLogq3h/LxMveILCQkZMWLE3r17TSaTCHiL0YQiePnePQgMJGkvPBykWp0iMFh//BE6dLBh5KeeguPHxYBea0NaBAR6XFqlpJCGreH8vNy9e/eNGzc+ePBACj+4IkMRvPzOOzTzTZ/uiu4eleUN1t9/h7g4G0Z+4gk4cMAjoVplGRHg9biMunlVNLaG8/OyV3H3pHH5ebm4GKpVI/mPIEDC72k5Cda//oKhQ20YuUkT2LFDmnlvT5yp1XWGgBOPO6um/mfYGq7xsgfB++WXNAVafSvAg+b4qxYUQFISdWjA/fh4U1KSZWthejqMG0efyE8tt6hZEzZuBKORv1mthMIRwJaesDVc42UPumSXLjQvS3KQBNchW599BtOm2WwSqVQJli3TNol44FmFVcWWnrA1XONld7vg6dM0KTduLME0wc6d7IfSUkNj5t+yZeHtt7VNIu76VKn1sKUnbA3XeNndvjh2LM3LK1a424TQes4/4kCRcmAgvPYa3L8vtE2tnIoQwJaesDVc42W3umdWFj1xUK4ceH+lipCPni1d6pYhWiU1IIAtPWFruMbLbvXL996jB8uvvupWfdcqaR8Jdg0vnyuNLT1ha7gzXr5y5cqZM2dKSkoc47y4uPjMmTNXrlxxfCRZDqW6DN8rMRqhVi2al//6SwJ7Y2Joacw8smMiNlYCRTQR8iCALT1hazgnL9+4cSM4OLg/9wqw+Pj4kJCQW7duyROqALLx8o4dNE327i2N7dp4WRqcFSsFW3rC1nBOXp4zZ05AQICTEfHVq1cDAgLeeOMNuaJZNl7u3p3m5W++kcZ2IfPLycnS6KJJkQEBbOkJW8M5efnxxx/v2rWr8xiMjY1t27at8zLeeyoPL587R5NygwYg1VEhztdj6HTk4RwFBd5DWmtZZgSwpSdsDefk5bCwsClTpjiPx6lTp4aFhTkv472n8vDy+PE0L0u7AGLXLnL9suO0sk5H5u/a5T2YtZbllUFdNQAAIABJREFURwBbesLWcE5eDgwMnD17tvOQnD17dlBQkPMy3nsqAy9nZ0NICMmOoaGQk+M901hbbtuW5mWdzvzoTA7y3/BwjZRZ0fKpTGzpCVvDOXm5SpUqzz//vPPoHjVqVFRUlPMy3nsqAy8vWUJT48SJ3rOLteXLl+nxcoUK0L+/qVmzzPh4U3KyNn3BipavZWJLT9gazsnLffr0iYqKKi4u5orxoqKiqKioPn36cBXwdr7UvGwyQb16NC+npXnbOrv2p06lJS9cCNgGqx0m+Nxi63FsDefk5fXr1+t0upkzZ3JFf2JiIkEQGzdu5Crg7Xypefnrr2lq7NHD26bZtf/gAf2l1KAgcqc1tsFqBws+t9h6HFvDOXnZaDRGR0cTBDFq1KjLly9b94HLly+PHj2aIIhWrVoZ5TtHUmpeZo6a37nTGg0J0qtW0b8IL7xASsM2WCWAWpkisPU4toZz8jIA3Lhxo2HDhjqdjiCImjVrdnx01apVi/rQX6NGjW7K+uVOSXn5zz9paqxdW+Ijjc1maNqUFk59VRHbYFUmaUqgFbYex9ZwZ7wMAA8ePHjzzTdr1Kihs7qqV68+d+5c2b8sJSkvv/IKTY0ffCBBP7QWceAALblTJzob22C1hgWrNLYex9ZwHl5mov/GjRu/Prpu3LjBZMqbkI6X8/KgbFmSHYOD4e+/JbY6Pp7m5S++oCVjG6wSI68ccdh6HFvDhfKycmKU0UQ6Xv7kE5oax41jpEuTuH6d/HYgQlC1KjBLY7ANVmkwV6AUbD2OreEaL/N1Q7MZGjWiefnMGb7SIj9//XVa8ttvW1rGNlgtEGCWwtbj2BrOycu9hV2+v375u+9oauQ7LUR0rsjPhwoVSOGBgXD3rqV5bIPVAgFmKWw9jq3hnLxs9Z7PWZIgCOF95OTJk3379g0PDw8ODm7atOmyZcuYukePHu3UqVNwcHBkZOTkyZOFvFSUaB6jb1+al7duZbSVJrF2LS35uedsBGIbrDYo4HSDrcexNZyTl68LvgR2kH379gUGBrZr127JkiWrV6+eMWPG9OnTqbqnTp3S6/WtWrVatWoVdeZGXFwcb7NS8PKVK/T25+rVge37ALxKul3AbIboaJqXf/3Vphlsg9UGBZxusPU4toZz8rK4YZ+bmxsZGTlgwAAT29mYvXv3joqKys3NpYSuWbMGIbRv3z7nOkjBy6+9RlPju+86V0b0p4cO0ZKfeMK+bWyD1R4IbO6x9Ti2hnPyMkEQb1u/bPKsD6xatQohlPboWImHDx9as3Nubq6/vz8zdgaAoqKiMmXKjB071rlMr/Pyw4dQvjzJjkFBkJnpXBnRnyYk0LzseOA9tsEqOshqaRBbj2NrOCcv/zup/NZbb4kVuIMGDSpXrtz333//2GOPIYRCQ0PHjx9f8Ogs9yNHjiCEtmzZYi2rc+fOrVu3ts5xTHudl//3P5oaR41ylO7VnPR08PMjhVeuDIWF9qKwDVZ7ILC5x9bj2BouES+3aNEi5NE1efLkbdu2TZ48GSE0bNgwANi6dStC6NChQ9a9LCEhoUqVKtY5VLqwsDC39EpPT0cIZWRkFHvjKioyl25/Lv7lF29IcNLmzJlG6gj8xESjYzGDwZCammowGBwfaTk+iQC2HsfW8KysLIQQNbWLrHlQ3PFy3bp1EULjx49nRLz88ssIob/++ispKQkh9Kvtu62RI0eyfgll7ty5yPZKSUlJ9cJ1eP58arD8d8OGXmjeWZNffrkrLKwQIfDzM61b962zotozDQENAV9EICUlhZOXRZxfbtq0KULop59+Ynj5p59+Qght2rRJmeNlU+n255KkJImHYOvXl1CD5cGDTayisR1EsKKBQya2HsfWcGfj5X9f/fFefn5+DNU6STz11FP/TlxcvHiRKXPhwgWE0NKlS5U4v3zjBr39uUoVKCpidJYm8fjj9LT24cPsArGddGOHA4NcbD2OreHO5pfLly9fW8AlpF/MnDkTIXTgwAGm8IEDBxBCmzdvzsnJYV2PMWbMGKYwa8KL7/1mzqSpcd48VtHey/zlF1pyy5ZgNrPLwTZY2eHAIBdbj2NruDNeFnE9xu+///7vbPKIESOYTjR8+HB/f//bt28DQFxcXFRUVF5eHvV07dq1CKG9e/cyhVkT3uLlggKIiCDZMSAAMjJYRXsv89lnaV5et45TCLbByomIrz/A1uPYGi4RLwPAmDFj/l3CPGTIkBUrViQkJCCEZs2aRXWokydPBgUFMfv99Hp9z549efuat3h5wwaaGq1+RXiVEaVARgb5W4AQ+buQn8/ZJLbByomIrz/A1uPYGi4dLxcXF8+bN69WrVoBAQH169f/6KOPrHvT4cOHO3bsqNfrK1WqNGnSJGbsbF3GLu0VXjaboXVrmpePHbOT6O3bt96iJc+Y4UwUtsHqDBSffoatx7E1XDpeFr3jeIWXjx6lqbFtW875XdEtedRgURFERZHCCQKuX3cmA9tgdQaKTz/D1uPYGq7xsm2HHjaM5uVNm2wfeP3u889pyQMG8MjCNlh5cPHdx9h6HFvDOXlZ+UEu/nj59m3w9yfZsVIllu3PXkakY0eal3/4gUcStsHKg4vvPsbW49garvGyVW9+802aGmfPtsqVInnyJC25WTP+6RNsg1UKTyhSBrYex9ZwjZdLO2JREURGkuzo5wfp6aW5Ev1/9Gialz/9lF8itsHKD42PlsDW49garvFyaVf+7DOaGgcPLs2S6P+ZmeRJogiRp4o+fMgvFNtg5YfGR0tg63FsDdd4ubQrt2tH87LVIR6lz7z7/wULaMn//a8gQdgGqyB0fLEQth7H1nCNlx/1499+o6mxRQv++V1Re35JCdSoQQrX6eDKFUFNYxusgtDxxULYehxbwzVeftSPR46keXnNGon79Vdf0ZKfeUaoZGyDVShAPlcOW49ja7jGywD37kFgIMmO4eFgMEjcqWNiaF7m+5yhRS9sg9UCAWYpbD2OreHsvKzT6XhP+KQKCDzn0xv9iFI9KyvL08ZLj8CH0u9ze9qg4PpnztCk3LAhsH2Qlr0hbIOVHQ4McrH1OLaGs/NyTExMrNUVHR2t0+n8/f3r1KnTvn37OnXq+Pv763S66Ojo2NhYufqFOLxcXAxVq5LsSBBw7ZrEtrz0Es3LH3/sgmRsg9UFjHyrKLYex9Zwdl62jur09PSaNWs+++yzN27cYPJv3LgxYsSIWrVqpUu+1JfRQRxe3rKFpsb+/ZmWpUn88w+EhJDCy5SB3FwXZGIbrC5g5FtFsfU4tobz8/LQoUPbtWvHGuft2rWjvp3K+tTbmeLwcufONC/v3+9the3aX7yYlvyf/9g94bnFNlh5cPHdx9h6HFvD+Xk5IiIiMTGRNeZnzZpVsWJF1kcSZIrAy6dO0dTYpInEy+OMRqhThxZu9XUtQbBhG6yC0PHFQth6HFvD+Xk5NDT0hRdeYI32UaNGhYaGsj6SIFMEXh47lqbGlSslUNhaxK5dtGQBHwCwrkemsQ1WeyCwucfW49gazs/LXbt2DQ4O/vnnn+16wdGjR/V6vYrf+2VlgV5PsmNYGDx4YGedt2+feorm5d27XRaFbbC6jJSvVMDW49gazs/Lhw8fDgwM9PPzi4+PX7x4cVJS0uLFi/v37+/n5xcUFHTkyBG5gt/T8fJ779HUOGWKxCZcuEBLrlsXjEaXhWMbrC4j5SsVsPU4tobz8zIA7N+/v27durpHF0EQVKJu3br7JX9XZt3RPOJloxFq1SLZUaeDS5esm5UgPWkSzcsffuiONGyD1R2wfKIOth7H1nBBvAwAZrP50KFDy5cvf+edd5YvX37o0CGz2SxvzHvEyzt20NTYp4/EVuTmkgvjECIXyWVnuyMc22B1ByyfqIOtx7E1XCgvKzC8PeLl7t1pXt67V2LTli2jJb/8spuSsQ1WN/FSfzVsPY6t4Vjy8rlzNDU2aODC9mcxurfJBA0a0MLPnnWzRWyD1U281F8NW49ja7ggXs7MzHzvvfcGDx7co0ePbrZX9+7d5Qp798fL48fT1Lh0qcTK791LS+7WzX3J2Aar+5CpvCa2HsfWcH5ePnPmTEREBPO6j3rpx/xLEIRcMe8mL2dn09ufQ0MhJ0di5fv0oXl5+3b3JWMbrO5DpvKa2HocW8P5eblHjx46ne6NN964fv260Y1VXV7rEm7y8pIlNDVOnOg11dgbvnSJXP2BENSsCSUl7GWE5GIbrELA8cky2HocW8P5eTk0NHTAgAEKDHd3eNlkgnr1aF5OS5PYqClTaMmLFnkkGdtg9Qg1NVfG1uPYGs7Py+Hh4dOmTVNgVLvDy3v20NTYo4fEFj14AOXKkcL1evDwyGhsg1VilylHHLYex9Zwfl6Oj4+XcbO1k77hDi/36kXz8s6dTlr2xqOVK2nJY8Z42jy2weopcKqtj63HsTWcn5cvX75csWLFDz74QGlR7TIvX7xIU2Pt2u5sf/bAfrMZmjShhf/+uwcNPaqKbbB6Cpxq62PrcWwN5+flF154ITY2liCIevXqDRo06AXba4znwz93e4vLvDx5Mk2Nkv/GHDhAS+7UyV1rrephG6xWGOCVxNbj2BrOz8vMkjjWhGrWyeXlQdmyJDsGB8Pff0vcrePjaV7+4gsRJGMbrCJgp84msPU4tobz8/J1vkuuUHdtvLx8OU2N48ZJrPD16+S3AxEivyNYXCyCcGyDVQTs1NkEth7H1nB+XlZsJLvAy2YzNGxI8/Iff0hs0euv05LfflscydgGqzjwqbAVbD2OreF48PJ339HUGBMjca/Mz4cKFUjhgYFw9644wrENVnHgU2Er2HocW8OF8nJBQcGhQ4e++OKLTQ6XXHHuwni5b1+al7/6SmJt166lJT/3nGiSsQ1W0RBUW0PYehxbwwXx8ieffBIeHk44XDqdTgXv/a5cobc/16jh0fZn1zuz2QzR0TQv//qr6/U5amAbrBx4+H42th7H1nB+Xt62bZtOp2vRosWSJUt0Ot2AAQMWLVrUp08fnU43ePDgjRs3ytUthI6XX3uNpsYFCyRW9dAhWvITT4gpGdtgFRNEVbWFrcexNZyfl7t06RIZGWkwGADg36Vyb731FhXSmzdv9vf3P3jwoFwRLoiXHz6E8uVJdgwKgvv3JVY1IYHm5eRkMSVjG6xigqiqtrD1OLaG8/NyWFjYuNK1ZTqd7s0332RCumfPnt08OUiYacithCBe/t//aGocPdotIe5XSk8HPz9SeOXKUFjofjuONbENVkcoMMnB1uPYGs7PyyEhIYmJiVQHCAkJeeWVV5jOMH369LCwMOZW4gQ/L5vN0KwZzcsnTkis3uzZtOQ33hBZMrbBKjKO6mkOW49jazg/L9evX/+FF16gYrhx48ZdunRh4nnIkCERERHMrcQJfl4+eJCmxg4dJNatoAAqVSKF+/vD7dsiC8c2WEXGUT3NYetxbA3n5+Xhw4dHR0dTMTx16lSCIBYsWHDu3LlPP/3U398/Li5OrvDm5+WBA2leTkmRWMlNm2jJQ4eKLxnbYBUfSpW0iK3HsTWcn5e3b9/eqFGja9euAUBmZmbNmjWp9XI6na58+fJ/SL59julKPLx84wa9/blKFSgqYmpJkDCboW1bmpePHBFfILbBKj6UKmkRW49jazg/L9uF7j///PP++++PHz9+4cKFt27dsnsq5S0PL8+cSVPjvHlSagUAx47Rklu1ArNZfOHYBqv4UKqkRWw9jq3hLvOye5F88OBB5HAdO3aMai0mJsbuYa9evXgFOePl/HyIiCDZMSAAMjJ4mxK3wIgRNC+vXy9uw3Rr2AarV9BUQ6PYehxbwyXl5VdeeSXZ6rpfuqA4JiamevXqVk+SDxw4wNtfnPHy+vU0NY4YwduOuAUyMsjfAoTI34X8fHHbplvDNli9gqYaGsXW49gaLikvb926lbUXxMTENG3alPWRk0xOXjaboVUrmpdLh+RO2hH30bx5tOQZM8Rt2NIatsFqgQCzFLYex9ZwqXk5Ly+vpKTErltRvFxSUvLgwQO7R05uOXn5yBGaGtu29cr8LrdORUVQpQopnCDg+nXucp49wTZYPYNNxbWx9Ti2hkvKy2XKlEEI+fn5xcbGHj9+nOkoMTExAQEBgYGBCKHIyMg5c+YUCzhAnpOXhw6leXnTJkaENInPP6clDxjgRYHYBqsXMVV209h6HFvDJeLlo0ePDho0aN26dTt37ly4cGFERIRer/+99BOkY8aMmTdv3rZt25KSkvr164cQGjJkCGtPKSwszC290tPTEUIZGRnF1tf162Z/f0DIXKlS8YMH1k8kSHfoYEKIpObvvivxnjiDwZCammowGLwnQmtZUQhg63FsDc/KykII5ebmAgBipUJvZF66dCk4OJhr0cW4ceMQQsxqDWsF5s6da7dyIyUlJdXqulA6WL6YkGCVLUXyww8PUqRcs2bujh1SSNRkaAhoCPgkAikpKTLwMgAMGzYsMDDQaDRa0y6Vvnjx4r/THfPnz3d8xDNefvjQHBlJDpb9/IqvXpV4yPP88/RgecUKo1dFYzuI8CqqSm4cW49jazjnePnhw4f169fv2LEj61RvUVFRp06dGjZsmO/uWrDp06czPwh2/GswGP59NHXqVLt8u1uW+eXPPqPndxMS7Ap7+zYzkzxJFCHyVNGHD70rDdtJN+/CquDWsfU4toZzzi8vX76cIIiffvqJK1wPHTqk0+lWrFjBVcB5/qBBg/R6vclkcix29uxZhNACvmPsWXi5XTualw8dcmzWqzkLFtCS//tfr8ohG8c2WL2OrFIFYOtxbA3n5OUePXrwrilu0aJF9+7dhQRzZmamdbHTp08HBAT069cPAHJzcwutzic2m81Dhw5FCJ08edK6imPanpd/+42mxuhoiZfHlZRAjRqkcJ0Orlxx1FTkHGyDVWQc1dMcth7H1nBOXq5UqdKECROch+6ECRMqVarkvAz1tFu3bn369HnnnXdWr149ZcqUkJCQsLCwtLQ0ADh48GCVKlWmTp26YsWKxYsXd+rUCSH00ksv8TZrz8sjR9K8vHYtb11xC3z1FS35mWfEbZi9NWyDlR0ODHKx9Ti2hnPyckBAwJw5c5zH/OzZswMDA52XoZ4uW7bsiSeeqFChgr+/f1RU1HPPPXfp0iXq0dWrVxMSEmrXrq3X60NCQtq0afPpp5+aBZz3Y8PL9+5BYCDJjhUqeGv7M7edMTE0L+/bx11IvCfYBqt4EKqsJWw9jq3hnLwcEREhZLyslHPx58+nqXH6dIn73JkztOSGDYFttlx8dbANVvGhVEmL2HocW8M5eblDhw6888tNmzbt2LGjXLFtGS8XF0PVqiQ7EgQ8OidaSpXGjaN5eflyicRiG6wS4as8Mdh6HFvDOXl5/vz5BEF8/vnnXFG6ZcsWnU737rvvchXwdr6Fl7dsoamxf39vC7Vr/++/ITiYFF62LOTl2T301i22weotQBXfLrYex9ZwTl7Ozs6uUKFCaGjohg0bHON248aNZcqUqVixYnZ2tuNTaXIsvNy5M83L+/dLI5qR8sEHtOTJk5k8ryewDVavI6tUAdh6HFvDOXkZAPbv3x8SEkIQRK1atZ5//vnER9eoUaNq1apFEERISMgPP/wgYyTTvPzDDzQ1Nmki8fI4oxFq16aF//mndEhgG6zSQawwSdh6HFvDnfEyAJw+fbpr1646hysmJub06dPyRi+lejbzdZCVKyXWZ+dOmpQFfFxFTNWwDVYxQVRVW9h6HFvDeXiZit7Lly9v2rTpvUfXpk2bLl++rISoplTP0elIdixXDlw5u1kU/Xv0oHl5zx5R2hPaCLbBKhQgnyuHrcexNVwQLyszzmnVqTPcgoJg1y4p9UxLo0m5bl1gO3zJi7pgG6xexFTZTWPrcWwN9xVe1unITdA7d0rWvyZNonn5ww8lk0kLwjZYpQZaMfKw9Ti2hnPyMjVrIeRfuaLXZrxMHU4RHg4FBRLok5sLZcqQvBwSAtIvSME2WCXwrDJFYOtxbA3n5GWdTkcQhMMLP/sMgiDkCmV7XqYmNJKTJdBn2TJ6sPzyyxJIsxeBbbDaA4HNPbYex9ZwTl7eKPiSq3ew8DJBwMCB3tbHZIIGDWhePnvW29JY2sc2WFmwwCMLW49jazgnLys/4Fl4GSGIjfW25nv30qTcrZu3RbG3j22wssOBQS62HsfWcN/iZUnGy3360Ly8fbs8lIBtsMoDtwKkYutxbA33LV5GCLw8v3zpErnuAyGoWRNKSuTpstgGqzxwK0Aqth7H1nBOXq4j7Kpbt65ccWs/j6HTgffXY0yZQg+WFy2Sy27tO1KyIS+XYGzpCVvDOXlZp9P5+/vrBVxyBasNL1Prl728teTBA3JfIUKg10NWllx2a7wsG/JyCcaWnrA1nIeX4+LivvzyS9ZPYssVo4xcSnV6H3Z4uAT7/VaupAfLY8YwWsiQwDZYZcBaGSKx9Ti2hnPy8oULF1577bUqVaoQBFGxYsUpU6b88ccfyohSWgtK9eynnybnlL2/ncRshiZNaF4+dUpOJLANVjlBl1U2th7H1nBOXqbi0Gg07tixo2/fvgEBAQRBtGnTZuXKlTk5ObJGKS2cUj1LqgmF/ftpUu7cWWbrsQ1WmXGXTzy2HsfWcB5eZkLx7t27ixYtatSokU6nCwkJefbZZ2/cuME8lSUhMS/370/z8pYtsphrEYptsFogwCyFrcexNVwoLzMdYf/+/dWrVycIYqeEhwQx0q0TUvLytWvktwMRgmrVoLjYWgsZ0tgGqwxYK0Mkth7H1nAXePm3334bP358+fLldTpd9erVT548KW/QSsnL06fTg+X58+U1mpSObbDKD71MGmDrcWwN5+fl+/fvL1mypHnz5gRBBAYGDho06JtvvjGZTDKFqEWsZLxsMJALoxGCwEC4d8+igFwpbINVLsBll4utx7E1nJOXTSbT7t27BwwYEBgYqNPpmjdv/tFHH92/f1/2GGUUkIyX16yhB8vPPccIlzOBbbDKCbqssrH1OLaGc/JyVFQUQRDh4eETJkw4fvy4rGHJLlwaXjabITqa5uVff2XXROJcbINVYpyVIw5bj2NrOCcv63S6wMDA2NjY3k6vPn36yBW+0vDyoUM0KT/xhFyG2svFNljtgcDmHluPY2u4M162PwOf7V72c/G9vX45IYHmZS8fiOQCx2AbrC5g5FtFsfU4toZz8vJ1wZdcXUCC8XJ6Ovj5kbxcuTIUFsplqL1cbIPVHghs7rH1OLaGc/Ky8mNeAl6ePZseLL/xhoLwwDZYFeQDaVXB1uPYGq7xMmcPKyiASpVIXvb3h9u3OYtJ/wDbYJUeaoVIxNbj2Bqu8TJn19u0iR4sDx3KWUaWB9gGqyxoK0Eoth7H1nCNl9n7ndkMbdvSvHzkCHsZuXKxDVa5AJddLrYex9ZwjZfZO92xYzQpt2oFZjN7GblysQ1WuQCXXS62HsfWcI2X2TvdiBE0L69fz15Axlxsg1VGzOUVja3HsTVc42WWHpeRAQEBJC9HREB+PksBebOwDVZ5YZdROrYex9ZwjZdZutu8efRgeeZMlqeyZ2EbrLIjL5cC2HocW8M1Xrbva0VFUKUKycsEAXIf/W+vG3WPbbCyw4FBLrYex9ZwjZftu3VKCj1YHjjQ/pFC7rENVoXgL70a2HocW8M1XrbvZR060Lx88KD9I4XcYxusCsFfejWw9Ti2hmu8bNPLTpygSblZM8Utj2MUxTZYGQRwS2DrcWwN13jZpo+PGkXz8v/+Z5OvqBtsg1VRXpBSGWw9jq3hGi9b+ldmJgQFkbxcvjw8fGjJV1oK22BVmiMk0wdbj2NruMbLls61YAE9WP7vfy2ZCkxhG6wK9IU0KmHrcWwNl4iXDx48iByuY8eOMWF99OjRTp06BQcHR0ZGTp48+cGDB8wjrgSluljn4peUQI0aJC/rdHDlCpdMReRjG6yKQF8OJbD1OLaGS8rLr7zySrLVxXzF9dSpU3q9vlWrVqtWrZo9e3ZQUFBcXBxv/IvLy199RQ+Wn3mGV7LMBbANVplxl088th7H1nBJeXnr1q2ssd27d++oqKjc3Fzq6Zo1axBC+/btYy3MZIrLyzExNC/ziWXky5bANlhlQ1xuwdh6HFvDpeblvLy8kpIS6zjPzc319/efPn06k1lUVFSmTJmxY8cyOawJEXn5zBmalBs2BJOJVZqCMrENVgX5QFpVsPU4toZLystlypRBCPn5+cXGxh4/fpyK7SNHjiCEtmzZYh3qnTt3bt26tXWOY1pEXh43jubl5csd5SguB9tgVZwnpFIIW49ja7hEvHz06NFBgwatW7du586dCxcujIiI0Ov1v//+OwBs3boVIXTo0CHrIE9ISKhSpYp1DpUuLCzMLb3S09MRQhkZGcWeXXfvFgcHmxGCsmXNf//tWVuS1DYYDKmpqQaDQRJpmhD5EcDW49ganpWVhRCipnaRIw96KefSpUvBwcG9evUCgKSkJITQr7/+ai1r5MiRYWFh1jlUeu7cuXbLOlJSUlI9u0aPPosQOV5++ukrnrWk1dYQ0BDQEBABgZSUFBl4GQCGDRsWGBhoNBrlHS8XFBTXrk0OlhGCc+fkHxkJ0QDbQYQQcHyyDLYex9ZwecbLADB9+nTqB0He+eWdO+mZ5Udjd8cBuhJzsJ10U6IzJNEJW49ja7hE88uO0Tto0CC9Xm8ymXJycljXY4wZM8axlnWOKO/9evSgeXnPHuu2FZ3GNlgV7RVvKoetx7E1XCJezszMtI7b06dPBwQE9OvXj8qMi4uLiorKy8ujbteuXYsQ2rt3r3UVx7TnvJyWRpNyvXoqWB7HIIBtsDII4JbA1uPYGi4RL3fr1q1Pnz7vvPPO6tWrp0yZEhISEhYWlpaWRnWwkydPBgUFMfv99Hp9z549efue57zdsuCLAAAQmklEQVQ8cSLNy0uW8EpTUAFsg1VBPpBWFWw9jq3hEvHysmXLnnjiiQoVKvj7+0dFRT333HOXLl2yju3Dhw937NhRr9dXqlRp0qRJzNjZuoxd2kNezsmB0FCSl0NCIDvbrm1F32IbrIr2ijeVw9bj2BouES97I2g95OWlS+nB8vjx3tDOi21iG6xexFTZTWPrcWwNx5SXTSaoX5/m5XPnlN0pHbTDNlgdkMAlA1uPY2s4prz8zTc0KXfvrr6+jW2wqs9VImmMrcexNRxTXu7Th+bl7dtF6joSNoNtsEqIsbJEYetxbA3HkZcvXSIPv0cIatYE27PtlNUbubTBNli5APH5fGw9jq3hOPLylCn0YHnRIlX2aGyDVZXeEkNpbD2OreHY8fKDB1CuHMnLej1kZYnRaSRvA9tglRxppQjE1uPYGo4dL69cSQ+W+bZ5K6VPOuqBbbA6QoFJDrYex9ZwvHjZbIYmTWhePnVKrZ0a22BVq8M81htbj2NrOF68vH8/TcqdO3vcV+RrANtglQ9ymSVj63FsDceLl/v3p3nZ9qtVMvc6V8VjG6yuAuUz5bH1OLaGY8TL164BQZC8XK0aFBeruM9iG6wq9plnqmPrcWwNx4iXp0+nB8vz53vWS+SujW2wyg28bPKx9Ti2huPCywYDhIeTvBwYCPfuydbBRBGMbbCKgp4aG8HW49gajgsvr1lDD5ZHjlRjx7TRGdtgtUEBpxtsPY6t4VjwstkMLVrQvPzbb6rv0NgGq+o9564B2HocW8Ox4OWffqJJuV07d3uGkuphG6xKcoKkumDrcWwNx4KXBw+mefmzzyTtTl4Shm2weglP5TeLrcexNdz3efnmTfDzI3k5MhKKipTfB/k1xDZY+aHx0RLYehxbw32flxMT6cHym2/6SK/FNlh9xH+um4Gtx7E13Md5uaAAKlYkednfH27fdr1DKLIGtsGqSG9IoRS2HsfWcB/n5U2b6MHy0KFS9B9pZGAbrNLAq0Ap2HocW8N9mZfNZmjblublI0cU2N3cVAnbYHUTL/VXw9bj2Bruy7x87BhNyq1agdms/t5ZagG2wVoKAHb/x9bj2Bruy7w8YgTNy+vX+1RPxjZYfcqLrhiDrcexNfz/7V1bTBNZGP4p9QJmo+ADaBAvIF660cQbqZfFNBjiZY0SFePLJmQVjdmwumBMvGFQX0QlXhKrD0ZN8GFjELMmxksIMRsl6sOiRlfFutREhaJcRArWnhWnNkMLWHQ6nfP//zzo6cyZc/7vcj7HYeigzeWXL8WAAV25PHy4eP++P4vA8H3JmtXwyoSrQLKKkwWONpeLinwXy1u3hmu1RGpcsmaNFOERn5es4mSB48zljg6RmNiVyyaT+O+/iC8rjQsga1aNeZRnOLKKkwWOM5fLynwXy9nZ8iy+kCsla9aQGcLWkaziZIHjzGWr1ZfLlZXYlqgQgqxZEWoZGiSyipMFjjCX79zxhfKPP6J6PM6/hMma1c8AtQZZxckCR5jLv/ziy2W7Hef6JWtWnHKGgIqs4mSBY8vl+noxaFBXLg8bJt69C8HyEnYha1YJtdKmZLKKkwWOLZf37vVdLP/xhzZLwoCjkDWrAbXQpySyipMFjiqXP3wQSUlduRwVJWpr9VkyEZiFrFkjwLUxpiSrOFngqHL5zz99F8s//2yM9RSeKsiaNTx0SjAqWcXJAkeVyz/95MvlK1ckWGzfXCJZs34zY7KfSFZxssDx5PI///hCecIEnI/H+cOFrFn9DFBrkFWcLHA8ufzrr75cPnIE+bIla1bkuvYOj6ziZIEjyeXGRhET05XLP/wgWlp6NziKI2TNikK9bwFBVnGywJHk8v79vovl3377Ft/LdQ5Zs8olk4bVklWcLHAMuezxiDFjfLn8778aLgeDDkXWrAbVI/xlkVWcLHAMuVxR4QvlrKzwLxEDzEDWrAbgPjIlkFWcLHAMuZyZ6cvlv/6KzLLReVayZtWZZ+NMR1ZxssAjkMt79uwBAIvF4vd9RkYGdN+yQrj0VUr/+28XQFcup6SIjx/9Q2JukDUrZlH7xEZWcbLA9c5lp9MZGxs7ZMiQgFxOSko6q9quX7/ep1G7Diql5+a+UXL54MGvnoGkA1mzItGv/zDIKk4WuN65nJOTY7PZMjIyAnJZ/TFE3yqlm0xNAF0Pyb19G+J50ncja1bplftWAGQVJwtc11yuqqqKjo6uqanpMZc/fPjQ2toaunWV0gGaAcTAgeLixdBPlbsnWbPKLdt3VE9WcbLA9ctlj8czZcqUvLw8IURwLg8YMGDgwIEAkJCQsH379s7Ozq/aWJ3LUVFd3yFXUfHVkzB0IGtWDOJ9EwayipMFrl8uHz16dOjQofX19cG5nJubW1RUdP78+TNnzixduhQAVq1a1aOB3W5385fN6XR+/mFh1/Xy5+/29A4b5m1p6US/tbW1Xbhwoa2tDT1SBqgwQFZxssBdLhcANDc3CyGgxyjUZKfL5YqPjy8pKVFGC7heDphi7dq1AHDz5s2A/Z8+7tq1q/uDG13FK7ms/Pn773cu8MYMMAPMgMwMlJWV6ZHL69evT01N7ejoCCWXHz16BADFxcXBudzH9TKAMJm8y5Z9RH+RRfYiAr2yvQEkqzhZ4HpcLz9+/NhkMh0+fNjxZUtPT09LS3M4HI2NjcHh29bW9unfik2bNgUfUu9R31/2XzLPn6/ugrNN9qYbTjlDQEVWcbLA9bi/XFlZGXTzwbcjPz8/2Jb37t0DgH379gUfUu8JzmWTSWRnq7vgbJM1K045Q0BFVnGywPXI5YaGhvLum8ViSU5OLi8vr6mpaW5udrvdfnN6vd6cnBwAuHv3rn9nj43gXP70W39nz/bYF9VOsmZFpWJ/wJBVnCxwPXI52IHqn/tVVlYmJiZu2rTp2LFjJSUlc+bMAYB169YFnxWwJyCXo6JEXJxobw/ohfAjWbMi1DI0SGQVJws88rn87NmzlStXjhkzZvDgwbGxsdOnTz9+/LjX6/2qY9W5rDy/TORXS8ia9auWwNqBrOJkgUcmlzVZP0rpUVFdv4cdF8e/76cJqTyIERkgG09kgUufy4sXvz17lsTtC39gkDWrnwFqDbKKkwUufS67XC5epdQYoIaXbDyRBc65LN8aJ2tW+aTSqGKyipMFzrms0dLRcRiyZtWRY2NNRVZxssA5l421AkOphqxZQyEHZR+yipMFzrks30Ima1b5pNKoYrKKkwXOuazR0tFxGLJm1ZFjY01FVnGywDmXjbUCQ6mGrFlDIQdlH7KKkwXOuSzfQiZrVvmk0qhisoqTBc65rNHS0XEYsmbVkWNjTUVWcbLAOZeNtQJDqYasWUMhB2UfsoqTBc65LN9CJmtW+aTSqGKyipMFLnEuNzU1AYDD4fjyIlYqf7tcrrKyMpfLRQUweZxkFScLXHmpdFNTU3jfu6rRdUO3YWpra3t7DQrvZwaYAWZAdgacTqd8ufz27VsAqKuro3Y5pfxb6nQ6qQEni5es4mSBNzU1OZ3Ojx8/ypfL6lsw3S6ksX8gCxy7sL3iI6s4WeBqK4D6g/HbZDUjC9z4ngxThWQVJwtcbSTOZTUbxm2zWY2rTXgqI6s4WeBqH0mWy5/eor1r1y71u7TVYBC3yQJHrGnf0MgqTha42g+S5bK6dG4zA8wAM4CSAc5llLIyKGaAGZCYAc5licXj0pkBZgAlA5zLKGVlUMwAMyAxA9Lkstvt3rJly4gRIwYPHjxr1qwrV65IzHp/Sm9tbd25c2dWVlZcXBwAnDp1qj9nc1/JGLh///6KFSvGjh0bExMzfPjwefPmXbx4UTIMWpS7Z88eALBYLFoMJt8Y0uTy6tWrzWZzQUGB3W63Wq1ms/nGjRvy8d3/ih0OBwAkJyfPnz+fc7n//El2xqVLl7KysoqKik6cOFFaWjpv3jwAsNvtksH4vnKdTmdsbOyQIUM4l7+PyDCfXV1dDQD79+9X5mlvb09JSbFarWGe1hDDu93uly9fCiFu377NuWwISXQswuPxTJ06dcKECTrOGfmpcnJybDZbRkYG53LkxeijgsLCwujo6ObmZn+fffv2KV+U4d+DvsG5jF7iHgEuWbIkISGhx0Mod1ZVVUVHR9fU1HAuG13fzMzMSZMmqau8du0aAJC69ca5rDYA7va7d+8aGhqePn168ODB6OjoNWvW4MbrR+fxeKZMmZKXlyeE4Fz202LQhsVisdls6uIePHgAAMePH1fvxN3mXMatrxpdXl6e8n2VJpNpxYoVb968UR9F3D569OjQoUPr6+s5lyVQedy4cQsXLlQXqnwR86FDh9Q7cbc5l3Hrq0b38OHDq1evnj59evHixcuXL3/16pX6KNa2y+WKj48vKSlRAPL1stGF5utl/rmf0T0atvoWLFgwc+ZMr9cbthmMMvD69etTU1M7OjqUgjiXjSJMb3Xw/WXO5d68gX6/3W4HgEePHuFG+vjxY5PJdPjwYceXLT09PS0tzeFwNDY24sYejE6O55cLCgoCnsfYu3cvP48RLCfvwcdAaWkpAFRXV+ODpkZUWVnZ2yug8vPz1T0ptOXI5Vu3bqmfX3a73ampqenp6RQU8mPk+8t+KhA3Xr9+rUbX2dk5bdq0mJiY1tZW9X587YaGhvLum8ViSU5OLi8vr6mpwYe3b0Ry5LIQYuXKlWazubCw0G63z54922w2V1VV9Y0NzdEjR44UFxdv2LABALKzs4s/b8p7c9FgZCAKA8uWLbPZbEVFRSdPniwuLp44cSIAHDhwgCA/fH9ZAtHb29sLCgoSExMHDRo0c+bMy5cvS1C0RiWOHj06+L94DodDo+F5GAMxcO7cuczMzISEBLPZHBcXl5mZWVFRYaD6dCyFc1lHsnkqZoAZYAaYgT4ZkOY+Rp8o+CAzwAwwA3gY4FzGoyUjYQaYARwMcC7j0JFRMAPMAB4GOJfxaMlImAFmAAcDnMs4dGQUzAAzgIcBzmU8WjISZoAZwMEA5zIOHRkFM8AM4GGAcxmPloyEGWAGcDDAuYxDR0bBDDADeBjgXMajJSNhBpgBHAxwLuPQkVFoxoDD4QCArKysgBFLS0ujoqJGjRqF/quQA4DzR/0Z4FzWn3Oe0dAM9JjLO3bsAICJEyfW1dUZunouDgUDnMsoZGQQ2jEQkMter3fjxo0AMGPGjIaGBu3m4ZGYgV4Z4FzulRo+QJMBdS53dnauWbMGAGw2W0tLC01CGLX+DHAu6885z2hoBvy5/P79+0WLFgHA8uXL3W63oYvm4nAxwLmMS09G890MKLlstVrnzp376R2Subm5Ho/nu0flAZiBfjDAudwPsrgrBQaUXFZeEGO1WilAZoxGY4Bz2WiKcD0RZkDJ5cmTJ48cORIAdu/eHeGCeHp6DHAu09OcEffJgP/+8pMnT5KSkgBg586dfZ7BB5kBjRngXNaYUB5Odgb8uSyEqK2tTU5OBoBt27bJjovrl4gBzmWJxOJS9WBAnctCiGfPninvI9+6dase0/MczIAQnMvsAmagGwMBuSyEeP78+dixYwGgsLCwW1f+wAyEhwHO5fDwyqNKy0BwLgsh6urqUlJSAGDz5s3SIuPCpWGAc1kaqbhQfRjoMZeFEC9evBg/fjwA5Ofn61MJz0KWAc5lstIzcGaAGTAoA5zLBhWGy2IGmAGyDPwPTQ3kNmC+8y4AAAAASUVORK5CYII=;" vertex="1" parent="1">
          <mxGeometry x="40" y="160" width="284.78" height="280" as="geometry" />
        </mxCell>
      </root>
    </mxGraphModel>
  </diagram>
</mxfile>
